<svg width="59" height="20" viewBox="0 0 59 20" fill="none" xmlns="http://www.w3.org/2000/svg">
<path d="M23.7269 10.523C23.7039 9.64556 23.8599 8.77262 24.1851 7.95737C24.5104 7.14211 24.9982 6.4016 25.6188 5.78094C26.2395 5.16028 26.98 4.67246 27.7952 4.3472C28.6105 4.02194 29.4835 3.86604 30.3609 3.88901C31.4486 3.87277 32.5223 4.13569 33.4794 4.65268C34.4366 5.16967 35.2452 5.92346 35.828 6.84201L33.3129 8.30002C33.0049 7.79968 32.569 7.39065 32.05 7.11517C31.531 6.8397 30.9479 6.70775 30.3609 6.733C29.3706 6.75575 28.4284 7.16515 27.736 7.87362C27.0437 8.5821 26.656 9.53339 26.656 10.524C26.656 11.5146 27.0437 12.4659 27.736 13.1744C28.4284 13.8828 29.3706 14.2923 30.3609 14.315C30.9483 14.3427 31.5323 14.2118 32.0517 13.9361C32.5711 13.6604 33.0067 13.25 33.3129 12.748L35.828 14.206C35.2483 15.1274 34.4402 15.8834 33.4824 16.4006C32.5245 16.9178 31.4493 17.1787 30.3609 17.158C29.4834 17.181 28.6103 17.0251 27.795 16.6997C26.9797 16.3744 26.2392 15.8865 25.6185 15.2657C24.9978 14.645 24.51 13.9043 24.1848 13.089C23.8596 12.2736 23.7038 11.4005 23.7269 10.523Z" fill="white"/>
<path d="M41.9669 12.894H40.5819V17.086H37.6659V4.32801H42.7658C43.3406 4.32656 43.9102 4.43871 44.4416 4.658C44.9729 4.87729 45.4559 5.19941 45.8625 5.60585C46.269 6.01229 46.591 6.49504 46.8105 7.02638C47.0299 7.55772 47.1421 8.12715 47.1408 8.70201C47.1276 9.47542 46.9013 10.2302 46.4865 10.8831C46.0716 11.5359 45.4845 12.0616 44.7899 12.402L47.5048 17.086H44.3698L41.9669 12.894ZM40.5819 10.342H42.769C43.1697 10.2934 43.5388 10.0998 43.8065 9.79762C44.0743 9.49546 44.2221 9.10572 44.2221 8.70201C44.2221 8.29829 44.0743 7.90855 43.8065 7.6064C43.5388 7.30424 43.1697 7.11059 42.769 7.06202H40.5819V10.342Z" fill="white"/>
<path d="M48.6659 14.008L51.1808 12.55C51.3755 13.0951 51.742 13.5622 52.2252 13.8811C52.7083 14.1999 53.2822 14.3532 53.86 14.318C55.245 14.318 55.5909 13.771 55.5909 13.279C55.5909 12.495 54.8618 12.185 52.9478 11.657C51.0478 11.128 49.193 10.217 49.193 7.77401C49.2061 7.23355 49.3288 6.70138 49.5538 6.20983C49.7789 5.71828 50.1015 5.27756 50.502 4.91445C50.9026 4.55133 51.3727 4.2734 51.8839 4.09746C52.3951 3.92153 52.9368 3.85128 53.4759 3.891C54.451 3.85757 55.414 4.11314 56.2442 4.62557C57.0744 5.138 57.7348 5.8844 58.1419 6.77099L55.682 8.21099C55.5201 7.76161 55.2186 7.37589 54.8216 7.11028C54.4247 6.84467 53.9531 6.71316 53.4759 6.73501C52.5639 6.73501 52.109 7.19101 52.109 7.70101C52.109 8.28401 52.4188 8.68401 54.4088 9.28701C56.3418 9.87001 58.5089 10.545 58.5089 13.242C58.5089 15.702 56.5408 17.16 53.7708 17.16C51.0898 17.162 49.3769 15.885 48.6659 14.008Z" fill="white"/>
<path d="M20.3378 11.131H18.5239C18.524 9.90752 18.2831 8.696 17.815 7.56561C17.3469 6.43523 16.6607 5.40812 15.7956 4.54295C14.9305 3.67777 13.9035 2.99147 12.7732 2.52323C11.6429 2.055 10.4314 1.814 9.20789 1.814V0C12.1598 0.000265201 14.9908 1.17311 17.078 3.26055C19.1653 5.34799 20.3378 8.17905 20.3378 11.131Z" fill="white"/>
<path d="M16.6999 11.005H14.8719C14.872 10.2633 14.726 9.52892 14.4423 8.84368C14.1586 8.15844 13.7426 7.53581 13.2182 7.01133C12.6938 6.48685 12.0713 6.0708 11.3861 5.78695C10.7009 5.5031 9.96654 5.357 9.22488 5.357V3.529C11.2075 3.52926 13.1087 4.31704 14.5105 5.71903C15.9123 7.12102 16.6999 9.02241 16.6999 11.005Z" fill="white"/>
<path d="M13.0348 10.934H11.1629C11.1629 10.424 10.9603 9.93488 10.5997 9.57425C10.239 9.21361 9.74986 9.01101 9.23985 9.01101V7.139C10.2459 7.14033 11.2104 7.54057 11.9219 8.25198C12.6333 8.96339 13.0335 9.9279 13.0348 10.934Z" fill="white"/>
<path d="M16.5119 16.845C15.6261 17.8401 14.5392 18.636 13.323 19.1798C12.1069 19.7237 10.7891 20.0033 9.45686 20C8.23273 20.048 7.01151 19.8484 5.86639 19.4131C4.72127 18.9778 3.67584 18.3157 2.79276 17.4666C1.90968 16.6175 1.20714 15.5989 0.72725 14.4717C0.247359 13.3445 0 12.1321 0 10.907C0 9.68193 0.247359 8.46947 0.72725 7.3423C1.20714 6.21514 1.90968 5.19647 2.79276 4.34737C3.67584 3.49827 4.72127 2.83621 5.86639 2.4009C7.01151 1.96558 8.23273 1.76595 9.45686 1.814V3.614C8.481 3.58601 7.50944 3.75405 6.59967 4.10817C5.68989 4.46229 4.86039 4.9953 4.16024 5.67565C3.4601 6.35601 2.90353 7.16989 2.52348 8.06914C2.14342 8.96839 1.9476 9.93473 1.9476 10.911C1.9476 11.8873 2.14342 12.8536 2.52348 13.7529C2.90353 14.6521 3.4601 15.466 4.16024 16.1463C4.86039 16.8267 5.68989 17.3597 6.59967 17.7138C7.50944 18.0679 8.481 18.236 9.45686 18.208C11.0249 18.212 12.5554 17.7287 13.8369 16.825L12.5219 15.541C11.6046 16.1198 10.5415 16.4258 9.45686 16.423C8.72052 16.4428 7.98767 16.3149 7.30158 16.0469C6.61549 15.7788 5.99007 15.3759 5.46224 14.8621C4.93441 14.3483 4.51488 13.734 4.22842 13.0554C3.94195 12.3767 3.79436 11.6476 3.79436 10.911C3.79436 10.1744 3.94195 9.44525 4.22842 8.76663C4.51488 8.088 4.93441 7.47365 5.46224 6.95986C5.99007 6.44606 6.61549 6.04322 7.30158 5.77514C7.98767 5.50706 8.72052 5.37916 9.45686 5.399V7.20699C8.72821 7.22568 8.02125 7.45889 7.42449 7.87741C6.82773 8.29594 6.36767 8.88119 6.10191 9.55991C5.83615 10.2386 5.77649 10.9807 5.93041 11.6931C6.08432 12.4056 6.44496 13.0568 6.9672 13.5653C7.48943 14.0738 8.15004 14.417 8.86635 14.5518C9.58267 14.6867 10.3228 14.6072 10.9942 14.3235C11.6656 14.0397 12.2384 13.5642 12.6409 12.9565C13.0433 12.3488 13.2576 11.6359 13.2569 10.907H15.1089C15.1091 12.1426 14.6855 13.341 13.9089 14.302L16.5119 16.845Z" fill="white"/>
</svg>
