<svg width="72" height="20" viewBox="0 0 72 20" fill="none" xmlns="http://www.w3.org/2000/svg">
<path d="M18.2295 3V6L17.3445 6.125C16.7815 6.12451 16.2297 6.28247 15.7522 6.5808C15.2748 6.87912 14.8909 7.30578 14.6445 7.812C14.4445 8.239 14.4255 8.49901 14.3945 10.863C14.2932 11.9228 14.3387 12.9916 14.5295 14.039C14.6721 14.4518 14.905 14.8276 15.2112 15.1389C15.5174 15.4503 15.8892 15.6895 16.2995 15.839L16.9245 16.089H21.5575C26.1805 16.089 26.1905 16.089 26.7945 15.839C27.4549 15.6083 28.0097 15.1466 28.3565 14.539C28.5755 14.133 28.5855 13.966 28.6165 11.228C28.6475 8.458 28.6375 8.328 28.4165 7.813C27.9795 6.793 27.0425 6.24101 25.4905 6.08501L24.7825 6.01199V0H21.8675V6.039H21.1385V0H18.2235L18.2295 3ZM21.8735 8.95599V9.58099H24.7885V9.123C24.7885 8.863 24.8195 8.63401 24.8715 8.61301C25.009 8.60083 25.1475 8.61855 25.2775 8.66499C25.8915 8.83199 25.9855 9.17501 25.9855 11.195C25.9855 13.121 25.9025 13.527 25.4545 13.735C25.1735 13.86 17.8745 13.912 17.5545 13.787C17.1695 13.631 17.0855 13.204 17.0855 11.267C17.0855 9.497 17.0955 9.382 17.3245 9.049C17.3786 8.94078 17.4598 8.84844 17.5602 8.78096C17.6607 8.71348 17.7768 8.67319 17.8975 8.664C18.2305 8.633 18.2305 8.633 18.2305 9.101V9.58H21.0415V8.33099H21.8745L21.8735 8.95599Z" fill="white"/>
<path d="M17.4115 8.89C17.2855 10.1284 17.2681 11.3755 17.3595 12.617C17.4146 12.1053 17.432 11.5903 17.4115 11.076C17.3598 10.4195 17.4124 9.759 17.5675 9.119C17.7545 8.682 17.7545 8.67101 17.6195 8.67101C17.5725 8.67101 17.4725 8.765 17.4115 8.89Z" fill="white"/>
<path d="M25.0165 8.787C24.9575 8.89874 24.9321 9.02516 24.9435 9.151C24.9435 9.307 24.8815 9.44301 24.8185 9.44301C24.7555 9.44301 23.2565 9.453 21.5075 9.453C18.3425 9.453 17.9675 9.47401 17.9675 9.66101C19.1551 9.75998 20.3478 9.78436 21.5385 9.73401L25.0995 9.703L25.1305 9.287C25.1325 9.11209 25.1869 8.9418 25.2865 8.79801C25.3695 8.74601 25.3595 8.71501 25.2445 8.71501C25.1622 8.70996 25.0809 8.73561 25.0165 8.787Z" fill="white"/>
<path d="M24.8155 2.707C24.7503 3.59297 24.7839 4.48344 24.9155 5.362C25.0258 4.48158 25.0593 3.59323 25.0155 2.707C25.0593 1.82078 25.0258 0.932422 24.9155 0.052002C24.7839 0.930561 24.7503 1.82103 24.8155 2.707Z" fill="white"/>
<path d="M53.5485 0.208005C53.0283 0.297775 52.5608 0.579714 52.2387 0.997938C51.9166 1.41616 51.7634 1.94014 51.8095 2.466C51.7772 2.9642 51.9243 3.45751 52.2242 3.85664C52.5241 4.25577 52.957 4.53437 53.4445 4.64201C54.1646 4.86323 54.943 4.79134 55.6105 4.442C56.0895 4.171 56.1835 4.182 56.1835 4.494C56.1835 4.65 56.2465 4.69401 56.4755 4.66101L56.7565 4.63V2.235L55.7045 2.20401C54.7045 2.17301 54.6425 2.183 54.5905 2.404C54.4905 2.81 54.6115 2.914 55.2045 2.914C55.8295 2.914 55.9044 3.02901 55.6044 3.49701C55.3488 3.78201 55.0068 3.97543 54.6308 4.04767C54.2548 4.1199 53.8655 4.06698 53.5225 3.897C53.2831 3.73703 53.0872 3.52 52.9526 3.26547C52.818 3.01094 52.7489 2.72692 52.7515 2.43901C52.7517 2.16024 52.8167 1.88534 52.9413 1.63597C53.0659 1.3866 53.2466 1.16957 53.4694 1.002C54.1694 0.637996 55.4374 0.90201 55.6144 1.45001C55.6664 1.63701 55.7705 1.669 56.1975 1.669C56.6975 1.669 56.7185 1.65901 56.6455 1.43001C56.5684 1.19828 56.442 0.986062 56.2748 0.808042C56.1077 0.630022 55.9039 0.490446 55.6774 0.399C54.9969 0.149094 54.2626 0.083214 53.5485 0.208005Z" fill="white"/>
<path d="M29.0985 0.332987C29.0985 0.405987 29.4105 1.416 29.7985 2.582L30.5065 4.69599L31.0165 4.66499L31.5375 4.63398L32.0785 2.96798C32.4425 1.83298 32.6405 1.36798 32.6925 1.48998C32.7345 1.58398 32.9845 2.33298 33.2545 3.15598L33.7335 4.63398H34.7435L35.4615 2.552C35.8615 1.417 36.1795 0.417996 36.1795 0.344996C36.1795 0.125996 35.3795 0.167988 35.2525 0.386988C35.2005 0.486988 34.9715 1.22998 34.7315 2.02198C34.4915 2.81398 34.2835 3.49 34.2625 3.511C34.032 2.99041 33.834 2.45604 33.6695 1.91099L33.1075 0.265986L32.7015 0.234995C32.528 0.204755 32.3495 0.230312 32.1915 0.307993C31.9585 0.835776 31.7604 1.37827 31.5985 1.93199C31.3275 2.76499 31.0885 3.46298 31.0575 3.49398C30.6923 2.68398 30.4199 1.83525 30.2455 0.963984L30.0265 0.213984H29.5685C29.2655 0.207984 29.0985 0.249987 29.0985 0.332987Z" fill="white"/>
<path d="M39.6655 0.500006C39.4655 0.885006 37.8335 4.571 37.8335 4.633C37.9872 4.68622 38.1509 4.704 38.3125 4.685C38.7815 4.685 38.7815 4.68501 39.0415 4.11201L39.3015 3.53899H41.3525L41.5915 4.11201L41.8305 4.685H42.3305C42.4997 4.70251 42.6707 4.6813 42.8305 4.62299C42.8305 4.52299 41.0395 0.478998 40.9255 0.332998C40.7409 0.236507 40.5332 0.193228 40.3255 0.207998C39.8745 0.207998 39.8015 0.239006 39.6655 0.500006ZM40.7175 1.947L41.0405 2.75899L40.3405 2.811C40.0983 2.83657 39.8549 2.84693 39.6115 2.842C39.7914 2.25204 40.032 1.68233 40.3295 1.142C40.4988 1.38917 40.6296 1.66059 40.7175 1.947Z" fill="white"/>
<path d="M46.6245 0.332997C46.4995 0.488997 44.7195 4.487 44.7195 4.612C44.7195 4.654 44.9275 4.685 45.1885 4.685C45.6575 4.685 45.6575 4.685 45.9175 4.112L46.1675 3.53901H48.2195L48.4585 4.112L48.6975 4.685H49.2075C49.4885 4.685 49.7175 4.65399 49.7075 4.60199C49.6975 4.54999 49.2705 3.57101 48.7395 2.39501L47.7815 0.261006L47.2605 0.23C46.9195 0.209 46.6975 0.249997 46.6245 0.332997ZM47.5825 1.978C47.8015 2.499 47.8825 2.811 47.8115 2.821C47.3719 2.8675 46.9284 2.86413 46.4895 2.81099C46.6802 2.2192 46.9204 1.64451 47.2075 1.09301C47.2285 1.11401 47.3955 1.50999 47.5825 1.975V1.978Z" fill="white"/>
<path d="M59.3665 0.343001C59.3355 0.416001 59.3245 1.405 59.3355 2.55L59.3665 4.632L61.3235 4.66299L63.2705 4.68399V3.955H60.3555V2.70599H63.1775L63.1465 2.362L63.1155 2.02899H60.3565V0.945997L61.7935 0.914992L63.2195 0.884001V0.259001L61.3145 0.227995C59.8325 0.207995 59.3955 0.229001 59.3665 0.343001Z" fill="white"/>
<path d="M66.0795 2.457V4.696L66.5275 4.66501L66.9645 4.634L67.0165 3.034L67.0685 1.42L68.3685 3.05501L69.6685 4.7L70.1895 4.66901L70.7104 4.638V0.264999L70.2734 0.234009L69.8254 0.203003V1.817C69.8512 2.3561 69.8267 2.89642 69.7524 3.431C69.3821 3.05139 69.0412 2.64422 68.7325 2.213C67.2015 0.234997 67.1815 0.212997 66.5875 0.212997H66.0795V2.457Z" fill="white"/>
<path d="M0.240473 5.797C0.17191 6.21327 0.147442 6.6356 0.167473 7.05699V8.234H4.98847C7.63347 8.244 9.99647 8.28601 10.2465 8.32801C10.5243 8.38141 10.7809 8.51345 10.9858 8.70845C11.1907 8.90345 11.3354 9.1532 11.4025 9.428C11.4853 9.91989 11.5237 10.4182 11.5175 10.917C11.5175 12.166 11.3305 12.812 10.8615 13.145C10.5285 13.384 10.4765 13.384 6.70747 13.416L2.87547 13.447V10.417H0.167473V15.842L6.13347 15.811L12.1095 15.78L12.6095 15.468C12.9565 15.2171 13.2477 14.8969 13.4646 14.5277C13.6814 14.1585 13.8193 13.7483 13.8695 13.323C14.0664 11.8242 14.0872 10.3076 13.9315 8.804C13.8761 8.22879 13.6848 7.67498 13.3734 7.18817C13.062 6.70137 12.6394 6.2955 12.1405 6.004C11.6825 5.796 11.5055 5.785 5.99747 5.754C2.87447 5.745 0.282473 5.756 0.240473 5.797Z" fill="white"/>
<path d="M29.0045 10.885V15.831H31.8155V12.395H40.0405V15.831H42.7475V5.939H40.0405V9.687H31.8155V5.939H29.0045V10.885Z" fill="white"/>
<path d="M32.1205 7.56999C32.0734 8.07544 32.1071 8.58518 32.2205 9.08C32.3338 8.58518 32.3676 8.07544 32.3205 7.56999C32.3676 7.06454 32.3338 6.55482 32.2205 6.06C32.1071 6.55482 32.0734 7.06454 32.1205 7.56999Z" fill="white"/>
<path d="M42.8075 10.859L42.7555 15.859L41.2765 15.911C40.757 15.9109 40.2383 15.9527 39.7255 16.036C40.2478 16.1277 40.7794 16.1556 41.3085 16.119H42.9635L42.9325 12.09C42.9225 9.862 42.9015 7.561 42.8805 6.957C42.8595 6.353 42.8285 8.10999 42.8075 10.859Z" fill="white"/>
<path d="M43.4705 10.854L43.5015 15.779L44.7825 15.81L46.0525 15.841V8.229H52.7995L53.1225 8.5C53.4345 8.76 53.4455 8.79201 53.4455 9.68701C53.4455 11.134 53.5455 11.087 50.7175 11.145L48.3955 11.197L48.3645 12.259L48.3335 13.331H50.5495C51.3433 13.2702 52.1417 13.3156 52.9235 13.466C53.3405 13.789 53.4445 14.091 53.4445 14.966V15.83H56.1495V14.487C56.1495 12.977 56.0555 12.727 55.3685 12.487C54.8995 12.31 54.8995 12.06 55.3685 11.887C55.5921 11.805 55.7899 11.6648 55.9415 11.481C56.1495 11.221 56.1604 11.106 56.1284 9.315L56.0975 7.42001L55.7855 6.972C55.566 6.67506 55.2809 6.43278 54.9525 6.26401L54.4425 5.99301L48.9425 5.96201L43.4495 5.929L43.4705 10.854Z" fill="white"/>
<path d="M56.7095 10.885V15.831H59.4164V11.931C59.4164 9.786 59.4475 8.031 59.4995 8.037C59.5515 8.043 60.9675 9.797 62.6855 11.937L65.7855 15.831H70.9705V5.939H68.1595L68.1385 9.95799L68.1075 13.967L64.9075 9.95799L61.7095 5.939H56.7095V10.885Z" fill="white"/>
<path d="M71.1715 10.866L71.1295 15.866L68.4225 15.897C67.4873 15.8666 66.5512 15.9084 65.6225 16.022C66.5531 16.1568 67.4956 16.1903 68.4335 16.122H71.3335L71.3025 11.622C71.2925 9.14401 71.2605 6.833 71.2505 6.489C71.2405 6.145 71.2025 8.117 71.1715 10.866Z" fill="white"/>
<path d="M56.3534 9.65399C56.3114 11.122 56.2284 11.414 55.7074 11.83C55.4574 12.03 55.5614 12.23 55.8324 12.059C55.991 11.9253 56.1312 11.7713 56.2494 11.601C56.4574 11.289 56.4784 11.143 56.4784 9.769C56.4907 9.26861 56.4767 8.76792 56.4364 8.269C56.4154 8.269 56.3844 8.89399 56.3534 9.65399Z" fill="white"/>
<path d="M46.5945 8.37999C46.3945 8.46299 46.3865 8.58801 46.3345 12.149L46.2825 15.835L44.8565 15.887C44.3539 15.8873 43.8522 15.9291 43.3565 16.012C43.8717 16.1039 44.3964 16.1317 44.9185 16.095C46.5535 16.095 46.5535 16.095 46.5425 15.856C46.5325 15.731 46.5215 14.044 46.5325 12.108L46.5425 8.599H49.7905C52.3905 8.599 53.0185 8.56799 52.9145 8.46399C50.8123 8.2889 48.7005 8.26083 46.5945 8.37999Z" fill="white"/>
<path d="M0.0104675 8.62201C1.70405 8.75494 3.40397 8.78832 5.10147 8.722C8.46447 8.722 10.3495 8.76401 10.5465 8.83701C10.8275 8.93701 10.8275 8.931 10.6465 8.754C10.4655 8.577 10.1155 8.56701 5.26347 8.53501C3.5122 8.46708 1.75852 8.49613 0.0104675 8.62201Z" fill="white"/>
<path d="M59.9945 9.07001C59.9635 9.16401 59.9325 10.725 59.9325 12.558V15.879H58.5064C57.9734 15.8573 57.4396 15.8908 56.9135 15.979C56.8135 16.041 57.3195 16.079 58.4445 16.079H60.1264L60.1365 12.487C60.1365 10.509 60.1265 8.895 60.0945 8.895C60.0625 8.895 60.0265 8.97601 59.9945 9.07001Z" fill="white"/>
<path d="M3.12448 11.563C3.12448 12.281 3.13448 12.573 3.15548 12.209C3.17648 11.845 3.17648 11.272 3.15548 10.909C3.13448 10.546 3.12448 10.845 3.12448 11.563Z" fill="white"/>
<path d="M32.1875 12.555C32.0644 13.0789 32.0307 13.6198 32.0875 14.155C32.1081 14.6798 32.0873 15.2054 32.0255 15.727C31.5392 15.849 31.0357 15.8879 30.5365 15.842C30.0068 15.8206 29.4763 15.8541 28.9535 15.942C28.8535 16.004 29.3805 16.042 30.5465 16.042H32.2855V12.606H35.9925C37.2045 12.6699 38.4198 12.6365 39.6265 12.506C38.4013 12.3928 37.17 12.3594 35.9405 12.406C32.9475 12.409 32.2815 12.43 32.1875 12.555Z" fill="white"/>
<path d="M14.0355 13.332C13.9213 13.9849 13.6296 14.5938 13.1925 15.092C12.4535 15.821 12.8385 15.779 6.13348 15.842C2.80148 15.873 0.0424749 15.936 0.000474937 15.977C-0.0415251 16.018 2.70748 16.039 6.11248 16.029L12.2975 15.998L12.7975 15.706C13.2184 15.4137 13.5649 15.0267 13.8093 14.5762C14.0536 14.1257 14.189 13.6243 14.2045 13.112C14.1705 12.801 14.1605 12.812 14.0355 13.332Z" fill="white"/>
<path d="M48.2955 13.471C48.0665 13.627 48.7015 13.679 50.8775 13.69C52.4705 13.7 52.8664 13.669 52.7624 13.565C51.2801 13.3872 49.7839 13.3557 48.2955 13.471Z" fill="white"/>
<path d="M56.3665 14.609L56.3354 15.786L54.8044 15.838C54.2687 15.8384 53.7338 15.8802 53.2045 15.963C53.7326 16.0543 54.2697 16.0821 54.8044 16.046H56.4915V14.746C56.5101 14.312 56.4927 13.8771 56.4395 13.446C56.3855 13.8312 56.3611 14.22 56.3665 14.609Z" fill="white"/>
<path d="M28.6045 13.932C28.4473 14.277 28.2245 14.5881 27.9485 14.848C27.6279 15.2066 27.2071 15.4605 26.7405 15.577C26.1055 15.777 25.7405 15.785 21.3265 15.785H16.5895L15.9335 15.514C15.5695 15.358 15.3335 15.295 15.4025 15.379C15.6149 15.5396 15.8511 15.6661 16.1025 15.754C16.6855 15.993 16.7895 15.993 21.2255 16.025C22.9257 16.0944 24.6284 16.0667 26.3255 15.942C26.8979 15.8608 27.4362 15.6211 27.8796 15.25C28.3229 14.8789 28.6537 14.3912 28.8345 13.842C28.9585 13.401 28.7495 13.484 28.6045 13.932Z" fill="white"/>
<path d="M29.8315 17.635C29.6289 17.7107 29.4514 17.8414 29.3189 18.0124C29.1864 18.1834 29.1042 18.3879 29.0815 18.603C29.0345 18.8278 29.0583 19.0617 29.1496 19.2724C29.241 19.4832 29.3953 19.6605 29.5915 19.78C29.8217 19.9057 30.0782 19.9758 30.3403 19.9848C30.6025 19.9939 30.8631 19.9415 31.1015 19.832C31.3015 19.697 31.3305 19.697 31.3825 19.832C31.5175 20.196 31.6535 19.947 31.6535 19.311V18.634H31.0805C30.5805 18.634 30.5075 18.655 30.5075 18.842C30.5075 19.009 30.5805 19.05 30.8195 19.05C31.0275 19.05 31.1315 19.102 31.1315 19.206C31.1315 19.591 30.1215 19.706 29.7775 19.362C29.6383 19.2041 29.564 18.9994 29.5695 18.789C29.5612 18.6286 29.5998 18.4692 29.6807 18.3304C29.7616 18.1915 29.8813 18.0793 30.025 18.0075C30.1687 17.9356 30.3302 17.9073 30.4898 17.9258C30.6494 17.9444 30.8001 18.0091 30.9235 18.112C31.1235 18.312 31.6525 18.404 31.6525 18.237C31.6315 17.937 30.8715 17.487 30.3825 17.487C30.1931 17.512 30.0079 17.5617 29.8315 17.635Z" fill="white"/>
<path d="M53.6705 17.593C53.513 17.639 53.3666 17.7169 53.2404 17.8218C53.1142 17.9266 53.0108 18.0563 52.9367 18.2027C52.8625 18.3491 52.8192 18.5091 52.8093 18.6729C52.7995 18.8367 52.8234 19.0008 52.8795 19.155C52.9532 19.4165 53.1171 19.6435 53.3419 19.7959C53.5668 19.9483 53.8383 20.0164 54.1085 19.988C54.7855 19.988 55.3785 19.603 55.3785 19.165C55.3785 18.946 54.9415 19.05 54.7325 19.311C54.6659 19.4034 54.5758 19.4762 54.4715 19.522C54.3672 19.5677 54.2525 19.5846 54.1395 19.571C54.0045 19.5794 53.8698 19.5518 53.7489 19.4912C53.628 19.4306 53.5252 19.3391 53.4512 19.2259C53.3771 19.1127 53.3344 18.982 53.3272 18.8469C53.3201 18.7119 53.3488 18.5773 53.4105 18.457C53.4454 18.3239 53.5162 18.203 53.6151 18.1075C53.7141 18.012 53.8374 17.9455 53.9716 17.9154C54.1058 17.8852 54.2457 17.8926 54.3761 17.9366C54.5064 17.9806 54.6221 18.0596 54.7105 18.165C54.9915 18.446 55.3765 18.519 55.3765 18.29C55.3765 18.061 54.9765 17.707 54.5765 17.603C54.2877 17.4801 53.962 17.4765 53.6705 17.593Z" fill="white"/>
<path d="M57.3585 17.624C57.141 17.698 56.9509 17.8361 56.8133 18.0201C56.6757 18.2041 56.597 18.4254 56.5875 18.655C56.5665 19.571 57.1395 20.055 58.1595 19.967C58.3257 19.9795 58.4925 19.951 58.6451 19.8838C58.7977 19.8167 58.9314 19.713 59.0345 19.582C59.1633 19.4379 59.2557 19.265 59.3041 19.0779C59.3525 18.8908 59.3554 18.6948 59.3126 18.5063C59.2699 18.3178 59.1826 18.1423 59.0582 17.9944C58.9338 17.8465 58.7758 17.7305 58.5975 17.656C58.4057 17.561 58.1955 17.509 57.9815 17.5035C57.7675 17.4979 57.5549 17.5391 57.3585 17.624ZM58.5455 18.165C58.6489 18.2594 58.7268 18.3784 58.7722 18.5109C58.8175 18.6435 58.8287 18.7852 58.8048 18.9232C58.7809 19.0612 58.7226 19.191 58.6353 19.3005C58.5481 19.4101 58.4347 19.4959 58.3055 19.55C58.1755 19.6158 58.0301 19.6451 57.8848 19.6349C57.7394 19.6247 57.5996 19.5754 57.48 19.4921C57.3605 19.4089 57.2657 19.2948 57.2058 19.162C57.1458 19.0293 57.1229 18.8827 57.1395 18.738C57.1395 18.322 57.2125 18.197 57.5035 18.03C57.6675 17.9328 57.8594 17.8936 58.0483 17.9186C58.2373 17.9437 58.4124 18.0315 58.5455 18.168V18.165Z" fill="white"/>
<path d="M68.9435 17.676C68.7733 17.7571 68.6242 17.8766 68.5082 18.0253C68.3922 18.1739 68.3123 18.3475 68.2749 18.5323C68.2376 18.7171 68.2438 18.9081 68.293 19.0901C68.3422 19.2721 68.4331 19.4402 68.5585 19.581C68.7761 19.786 69.0505 19.9205 69.3458 19.9669C69.6411 20.0133 69.9436 19.9694 70.2135 19.841C70.4945 19.706 70.5465 19.695 70.5985 19.831C70.7335 20.195 70.8695 19.946 70.8695 19.31V18.633H70.2965C69.7965 18.633 69.7235 18.654 69.7235 18.841C69.7235 19.008 69.7965 19.049 70.0355 19.049C70.3995 19.049 70.4355 19.149 70.1355 19.413C69.9659 19.5424 69.7562 19.6081 69.543 19.5986C69.3299 19.5891 69.1269 19.505 68.9695 19.361C68.8409 19.1792 68.7767 18.9597 68.787 18.7372C68.7973 18.5148 68.8816 18.3021 69.0265 18.133C69.1765 17.9919 69.3736 17.9117 69.5794 17.9078C69.7853 17.9039 69.9853 17.9767 70.1405 18.112C70.2681 18.2328 70.4333 18.3063 70.6085 18.32C70.8485 18.32 70.8585 18.299 70.7645 18.112C70.5628 17.8342 70.2684 17.6376 69.9345 17.5576C69.6006 17.4777 69.2492 17.5197 68.9435 17.676Z" fill="white"/>
<path d="M33.1005 18.79C33.1005 19.914 33.1105 19.99 33.3085 19.99C33.5065 19.99 33.5164 19.917 33.5164 19.022L33.5265 18.064L33.8265 18.741C34.3055 19.803 34.3995 19.941 34.6075 19.941C34.7635 19.941 34.8995 19.733 35.1905 19.077C35.3192 18.7535 35.4724 18.4403 35.6485 18.14C35.7139 18.4232 35.7281 18.7158 35.6905 19.004C35.6595 19.904 35.6595 19.941 35.8905 19.972C36.1215 20.003 36.1195 19.993 36.1195 18.795V17.582L35.7445 17.613C35.3805 17.644 35.3595 17.675 34.9945 18.519L34.6095 19.394L34.2035 18.494C33.8035 17.619 33.7765 17.588 33.4435 17.588H33.1005V18.79Z" fill="white"/>
<path d="M37.4885 18.759L37.5195 19.936H38.4985C39.3835 19.936 39.4875 19.915 39.6645 19.686C39.723 19.6349 39.7701 19.5721 39.8027 19.5015C39.8353 19.431 39.8526 19.3544 39.8535 19.2767C39.8545 19.1991 39.839 19.122 39.8082 19.0507C39.7773 18.9794 39.7318 18.9155 39.6745 18.863C39.5075 18.707 39.5075 18.663 39.6435 18.415C39.7795 18.167 39.7785 18.115 39.6225 17.863C39.4455 17.603 39.4035 17.592 38.4455 17.592H37.4575L37.4885 18.759ZM39.1885 18.27C39.1885 18.447 39.1055 18.478 38.5955 18.509C38.0015 18.54 37.9955 18.53 37.9955 18.27C37.9955 18.01 38.0055 17.999 38.5955 18.031C39.1025 18.062 39.1855 18.093 39.1855 18.27H39.1885ZM39.3135 19.113C39.4135 19.394 39.1365 19.571 38.5535 19.571C38.0015 19.571 37.9915 19.561 37.9915 19.279C37.9844 19.1627 37.9986 19.0461 38.0335 18.935C38.2443 18.911 38.457 18.9076 38.6685 18.925C39.0505 18.957 39.2695 19.019 39.3105 19.113H39.3135Z" fill="white"/>
<path d="M41.1355 18.759C41.1665 19.852 41.1775 19.936 41.3745 19.936C41.5515 19.936 41.5825 19.853 41.6145 19.384L41.6455 18.843H43.0925V19.426C43.0925 19.967 43.1025 19.999 43.3325 19.967C43.5625 19.935 43.5615 19.894 43.5925 18.759L43.6245 17.593H43.3535C43.1135 17.593 43.0935 17.635 43.0935 18.062V18.531H41.6355V18.062C41.6355 17.635 41.6145 17.593 41.3755 17.593H41.1045L41.1355 18.759Z" fill="white"/>
<path d="M47.6145 17.801C47.3745 18.04 47.3545 18.228 47.5205 18.394C47.6145 18.488 47.5725 18.581 47.3535 18.758C47.2688 18.8156 47.1989 18.8922 47.1492 18.9817C47.0995 19.0712 47.0715 19.1711 47.0674 19.2734C47.0634 19.3757 47.0833 19.4775 47.1257 19.5707C47.1681 19.6639 47.2317 19.7459 47.3115 19.81C47.5195 19.977 47.6555 19.997 48.1345 19.945C48.5396 19.8587 48.9583 19.8587 49.3635 19.945C49.7695 20.028 49.7905 19.914 49.4255 19.622C49.1755 19.422 49.1655 19.372 49.2795 19.164C49.4565 18.831 49.2375 18.612 49.0295 18.904C48.8735 19.104 48.8735 19.104 48.6445 18.883L48.4255 18.654L48.6445 18.435C48.7439 18.3479 48.8193 18.2366 48.8635 18.112C48.8635 17.893 48.4365 17.591 48.1345 17.591C47.9421 17.5988 47.7583 17.673 47.6145 17.801ZM48.3745 18.051C48.4475 18.228 48.1875 18.467 48.0305 18.374C47.9962 18.338 47.9697 18.2955 47.9525 18.2488C47.9353 18.2022 47.9278 18.1526 47.9305 18.103C47.9225 17.864 48.2915 17.822 48.3745 18.051ZM48.2915 19.151C48.5515 19.422 48.5725 19.484 48.4475 19.567C48.3299 19.6425 48.1908 19.6774 48.0515 19.6662C47.9122 19.655 47.7805 19.5983 47.6765 19.505C47.4765 19.318 47.4765 19.297 47.6145 19.036C47.7705 18.759 47.9475 18.793 48.2915 19.155V19.151Z" fill="white"/>
<path d="M64.7265 18.78C64.7265 19.894 64.7365 19.988 64.9265 19.988C65.1345 19.988 65.2495 19.788 65.2495 19.415C65.2541 19.273 65.3141 19.1384 65.4165 19.04C65.5625 18.915 65.6455 18.967 66.0725 19.456C66.4785 19.914 66.6035 19.997 66.8535 19.966L67.1535 19.935L66.5705 19.235L65.9774 18.548L66.5185 18.069L67.0705 17.59H66.7165C66.4455 17.59 66.2475 17.69 65.8625 18.059C65.6896 18.2448 65.4893 18.4029 65.2685 18.528C65.2265 18.528 65.1855 18.328 65.1855 18.08C65.1955 17.705 65.1645 17.643 64.9665 17.611C64.7265 17.583 64.7265 17.593 64.7265 18.78Z" fill="white"/>
<path d="M60.4575 19.727C60.4575 19.935 60.5095 19.987 60.7175 19.987C60.9255 19.987 60.9775 19.935 60.9775 19.727C60.9775 19.519 60.9255 19.467 60.7175 19.467C60.5095 19.467 60.4575 19.519 60.4575 19.727Z" fill="white"/>
</svg>
