<svg width="64" height="18" viewBox="0 0 64 18" fill="none" xmlns="http://www.w3.org/2000/svg">
<path d="M41.3671 1.22101V2.44101H43.9601V0H41.3671V1.22101Z" fill="white"/>
<path d="M0.0620117 4.98901C0.108012 9.51901 0.108028 9.53499 0.504028 10.374C1.46503 12.418 3.03502 13.12 6.66602 13.12H8.57202V10.984H6.48303C4.05803 10.984 3.49303 10.801 3.05103 9.91602C2.80703 9.44402 2.776 8.86302 2.776 4.91602V0.459015H0L0.0620117 4.98901Z" fill="white"/>
<path d="M11.165 1.45099V2.44299H13.1481V0.459015H11.165V1.45099Z" fill="white"/>
<path d="M14.368 1.45099V2.44299H16.351V0.459015H14.368V1.45099Z" fill="white"/>
<path d="M20.6219 2.13699V3.815H18.944V5.49301H20.6219V8.16202C20.534 9.24539 20.6113 10.3358 20.851 11.396C21.385 12.678 22.239 13.104 24.176 13.12H25.5029V10.984H24.588C23.109 10.984 23.062 10.893 23.062 7.93301V5.492H25.5029V3.814H23.0609V0.459015H20.62L20.6219 2.13699Z" fill="white"/>
<path d="M29.1639 0.657013C28.3539 0.932013 27.944 1.67901 27.944 2.83801V3.814H26.113V5.492H27.944V13.119H30.385V5.492H32.673V3.814H30.385V3.37201C30.385 2.62401 30.827 2.25799 31.802 2.16699L32.672 2.10599V0.459015L31.192 0.473999C30.5112 0.45497 29.8304 0.51641 29.1639 0.657013Z" fill="white"/>
<path d="M54.485 6.789V13.119H56.7729V10.909C56.7273 10.1694 56.7684 9.42706 56.895 8.69699C56.956 8.69699 57.856 9.704 58.908 10.909L60.8149 13.109L62.386 13.124H63.9719L63.453 12.524C63.178 12.189 62.217 11.136 61.318 10.175C60.403 9.21399 59.671 8.38999 59.671 8.34399C59.671 8.31399 60.5709 7.29101 61.6539 6.08701L63.6539 3.88699L62.2369 3.841L60.8199 3.79501L58.913 5.77802C58.2757 6.47816 57.6035 7.14567 56.8989 7.77802C56.7721 6.56208 56.7314 5.33869 56.777 4.117V0.457001H54.4869L54.485 6.789Z" fill="white"/>
<path d="M9.48596 7.04901C9.46323 8.32223 9.51439 9.5957 9.63903 10.863C9.77568 11.2871 10.0037 11.6762 10.3069 12.0027C10.6101 12.3293 10.9812 12.5854 11.394 12.753C12.111 13.088 12.339 13.119 15.024 13.119H17.876V3.81903H15.588V10.988H14.062C11.82 10.988 11.926 11.171 11.926 7.09802V3.81903H9.48498L9.48596 7.04901Z" fill="white"/>
<path d="M33.74 8.46704V13.122H36.028V5.49203H36.776C36.9478 5.43833 37.1311 5.43269 37.3059 5.47574C37.4807 5.51878 37.6403 5.60886 37.7676 5.73621C37.8948 5.86356 37.9848 6.02331 38.0277 6.19815C38.0706 6.37299 38.0648 6.55624 38.011 6.72803V7.47504H40.299V6.27002C40.299 5.18702 40.2529 5.00404 39.8989 4.59204C39.3649 3.93604 38.7239 3.81403 36.0699 3.81403H33.736L33.74 8.46704Z" fill="white"/>
<path d="M41.3671 8.46701V13.121H43.9601V3.82101H41.3671V8.46701Z" fill="white"/>
<path d="M45.0281 8.46701V13.118H47.316V5.94901H48.765C50.107 5.94901 50.26 5.97899 50.595 6.32999C50.976 6.69599 50.9761 6.69601 50.9761 9.91501V13.115H53.447L53.386 9.63699C53.325 6.43699 53.31 6.12699 52.986 5.53699C52.7925 5.17306 52.528 4.85173 52.208 4.59201C51.277 3.92101 50.6221 3.814 47.7531 3.814H45.0231L45.0281 8.46701Z" fill="white"/>
<path d="M1.09692 16.322C0.684924 17.161 0.333984 17.878 0.333984 17.922C0.333984 17.966 0.60897 17.998 0.94397 17.998H1.55396L2.31689 16.473C2.72889 15.634 3.07996 14.917 3.07996 14.873C3.07996 14.829 2.80497 14.797 2.46997 14.797H1.85999L1.09692 16.322Z" fill="white"/>
<path d="M6.21899 16.322C5.80699 17.161 5.45605 17.878 5.45605 17.922C5.45605 17.966 5.73104 17.998 6.06604 17.998H6.67603L7.43896 16.473C7.85096 15.634 8.20203 14.917 8.20203 14.873C8.20203 14.829 7.92704 14.797 7.59204 14.797H6.98206L6.21899 16.322Z" fill="white"/>
<path d="M22.975 16.322C22.563 17.161 22.2119 17.878 22.2119 17.922C22.2119 17.966 22.4869 17.998 22.8219 17.998H23.432L24.1949 16.473C24.6069 15.634 24.958 14.917 24.958 14.873C24.958 14.829 24.6829 14.797 24.3479 14.797H23.7379L22.975 16.322Z" fill="white"/>
<path d="M2.78491 16.322C2.37291 17.161 2.02197 17.878 2.02197 17.922C2.02197 17.966 2.29696 17.998 2.63196 17.998H3.24194L4.005 16.473C4.417 15.634 4.76794 14.917 4.76794 14.873C4.76794 14.829 4.49296 14.797 4.15796 14.797H3.54797L2.78491 16.322Z" fill="white"/>
<path d="M4.4729 16.322C4.0609 17.161 3.70996 17.878 3.70996 17.922C3.70996 17.966 3.98495 17.998 4.31995 17.998H4.92993L5.69299 16.473C6.10499 15.634 6.45593 14.917 6.45593 14.873C6.45593 14.829 6.18095 14.797 5.84595 14.797H5.23596L4.4729 16.322Z" fill="white"/>
<path d="M11.281 16.322C10.869 17.161 10.5179 17.878 10.5179 17.922C10.5179 17.966 10.7929 17.998 11.1279 17.998H11.738L12.501 16.473C12.913 15.634 13.264 14.917 13.264 14.873C13.264 14.829 12.9889 14.797 12.6539 14.797H12.0439L11.281 16.322Z" fill="white"/>
<path d="M7.84692 16.322C7.43492 17.161 7.08398 17.878 7.08398 17.922C7.08398 17.966 7.35897 17.998 7.69397 17.998H8.30396L9.06702 16.473C9.47802 15.634 9.82996 14.917 9.82996 14.873C9.82996 14.829 9.55497 14.797 9.21997 14.797H8.60999L7.84692 16.322Z" fill="white"/>
<path d="M9.53491 16.322C9.12291 17.161 8.77197 17.878 8.77197 17.922C8.77197 17.966 9.04696 17.998 9.38196 17.998H9.99194L10.755 16.473C11.167 15.634 11.5179 14.917 11.5179 14.873C11.5179 14.829 11.243 14.797 10.908 14.797H10.298L9.53491 16.322Z" fill="white"/>
<path d="M16.343 16.322C15.931 17.161 15.58 17.878 15.58 17.922C15.58 17.966 15.8549 17.998 16.1899 17.998H16.8L17.563 16.473C17.975 15.634 18.326 14.917 18.326 14.873C18.326 14.829 18.0509 14.797 17.7159 14.797H17.106L16.343 16.322Z" fill="white"/>
<path d="M12.9099 16.322C12.4979 17.161 12.147 17.878 12.147 17.922C12.147 17.966 12.422 17.998 12.757 17.998H13.3669L14.13 16.473C14.542 15.634 14.8929 14.917 14.8929 14.873C14.8929 14.829 14.618 14.797 14.283 14.797H13.673L12.9099 16.322Z" fill="white"/>
<path d="M14.5969 16.322C14.1849 17.161 13.834 17.878 13.834 17.922C13.834 17.966 14.109 17.998 14.444 17.998H15.054L15.817 16.473C16.229 15.634 16.58 14.917 16.58 14.873C16.58 14.829 16.305 14.797 15.97 14.797H15.36L14.5969 16.322Z" fill="white"/>
<path d="M21.405 16.322C20.993 17.161 20.642 17.878 20.642 17.922C20.642 17.966 20.917 17.998 21.252 17.998H21.8621L22.625 16.473C23.037 15.634 23.3881 14.917 23.3881 14.873C23.3881 14.829 23.113 14.797 22.778 14.797H22.168L21.405 16.322Z" fill="white"/>
<path d="M17.9719 16.322C17.5599 17.161 17.209 17.878 17.209 17.922C17.209 17.966 17.484 17.998 17.819 17.998H18.429L19.192 16.473C19.604 15.634 19.955 14.917 19.955 14.873C19.955 14.829 19.68 14.797 19.345 14.797H18.735L17.9719 16.322Z" fill="white"/>
<path d="M19.6589 16.322C19.2469 17.161 18.896 17.878 18.896 17.922C18.896 17.966 19.171 17.998 19.506 17.998H20.116L20.879 16.473C21.291 15.634 21.642 14.917 21.642 14.873C21.642 14.829 21.367 14.797 21.032 14.797H20.422L19.6589 16.322Z" fill="white"/>
<path d="M1.39404 14.873C1.39404 14.92 1.04298 15.636 0.630981 16.473L0.358032 17.02V14.819H1.21509C1.32309 14.833 1.39404 14.853 1.39404 14.873Z" fill="white"/>
<path d="M24.9939 15.777V18.001H24.569C24.232 18.001 23.958 17.971 23.958 17.923C23.958 17.875 24.3089 17.16 24.7209 16.323L24.9939 15.777Z" fill="white"/>
<path d="M26.3081 14.573H28.373V15.057H27.6731V17.957H27.0061V15.057H26.306L26.3081 14.573Z" fill="white"/>
<path d="M29.335 15.998H30.252V16.482H29.335V17.474H30.4891V17.957H28.668V14.572H30.4891V15.056H29.335V15.998Z" fill="white"/>
<path d="M32.8391 16.696V17.146C32.8391 17.688 32.4991 17.997 31.8391 17.997C31.1791 17.997 30.8391 17.688 30.8391 17.146V15.386C30.8391 14.844 31.1791 14.535 31.8391 14.535C32.4991 14.535 32.8391 14.845 32.8391 15.386V15.715H32.2081V15.353C32.2081 15.111 32.0741 15.019 31.8621 15.019C31.6501 15.019 31.5151 15.111 31.5151 15.353V17.181C31.5151 17.423 31.6491 17.51 31.8621 17.51C32.0751 17.51 32.2081 17.423 32.2081 17.181V16.697L32.8391 16.696Z" fill="white"/>
<path d="M33.9151 17.958H33.2471V14.573H33.9151V16.024H34.6741V14.573H35.3541V17.958H34.6741V16.508H33.9151V17.958Z" fill="white"/>
<path d="M36.4351 15.506V17.957H35.8351V14.572H36.6732L37.3591 16.598V14.572H37.954V17.957H37.2681L36.4351 15.506Z" fill="white"/>
<path d="M38.4341 14.573H39.1021V17.958H38.4341V14.573Z" fill="white"/>
<path d="M40.4871 14.535C41.1371 14.535 41.4711 14.845 41.4711 15.386V15.492H40.84V15.352C40.84 15.2634 40.8049 15.1785 40.7422 15.1158C40.6796 15.0532 40.5946 15.018 40.506 15.018C40.4175 15.018 40.3326 15.0532 40.27 15.1158C40.2073 15.1785 40.1721 15.2634 40.1721 15.352C40.1721 16.052 41.4771 16.179 41.4771 17.146C41.4771 17.688 41.1371 17.997 40.4771 17.997C39.8171 17.997 39.4771 17.688 39.4771 17.146V16.938H40.1091V17.18C40.1091 17.422 40.2421 17.509 40.4551 17.509C40.6681 17.509 40.8011 17.422 40.8011 17.18C40.8011 16.48 39.496 16.353 39.496 15.386C39.503 14.845 39.8371 14.535 40.4871 14.535Z" fill="white"/>
<path d="M43.7971 16.696V17.146C43.7971 17.688 43.4571 17.997 42.7971 17.997C42.1371 17.997 41.7971 17.688 41.7971 17.146V15.386C41.7971 14.844 42.1371 14.535 42.7971 14.535C43.4571 14.535 43.7971 14.845 43.7971 15.386V15.715H43.1661V15.353C43.1661 15.111 43.0321 15.019 42.8201 15.019C42.6081 15.019 42.4741 15.111 42.4741 15.353V17.181C42.4741 17.423 42.6081 17.51 42.8201 17.51C43.0321 17.51 43.1661 17.423 43.1661 17.181V16.697L43.7971 16.696Z" fill="white"/>
<path d="M44.871 17.958H44.204V14.573H44.871V16.024H45.6301V14.573H46.3101V17.958H45.6301V16.508H44.871V17.958Z" fill="white"/>
<path d="M47.4651 15.998H48.3821V16.482H47.4651V17.474H48.619V17.957H46.7981V14.572H48.619V15.056H47.4651V15.998Z" fill="white"/>
<path d="M50.642 16.077H51.5041V16.561H50.642V17.961H49.975V14.576H51.742V15.06H50.642V16.077Z" fill="white"/>
<path d="M52.7321 15.998H53.649V16.482H52.7321V17.474H53.8861V17.957H52.0651V14.572H53.8861V15.056H52.7321V15.998Z" fill="white"/>
<path d="M54.2991 14.573H55.3561C56.0241 14.573 56.3561 14.868 56.3561 15.41V17.122C56.3561 17.663 56.0281 17.958 55.3561 17.958H54.2991V14.573ZM54.9672 15.057V17.475H55.3441C55.5571 17.475 55.6841 17.388 55.6841 17.146V15.386C55.6841 15.144 55.5561 15.057 55.3441 15.057H54.9672Z" fill="white"/>
<path d="M57.445 15.998H58.362V16.482H57.445V17.474H58.5991V17.957H56.778V14.572H58.5991V15.056H57.445V15.998Z" fill="white"/>
<path d="M60.411 17.958C60.3564 17.8266 60.3358 17.6835 60.3511 17.542V17.01C60.3511 16.695 60.2171 16.58 59.9141 16.58H59.6831V17.958H59.015V14.573H60.0231C60.7151 14.573 61.0131 14.83 61.0131 15.352V15.618C60.8813 15.6827 60.7704 15.7831 60.693 15.9078C60.6156 16.0326 60.5749 16.1766 60.5756 16.3234C60.5762 16.4702 60.6181 16.6138 60.6965 16.7379C60.775 16.862 60.8867 16.9614 61.019 17.025V17.547C61.0073 17.688 61.0324 17.8297 61.092 17.958H60.411ZM59.682 15.058V16.098H59.9431C60.1921 16.098 60.343 16.011 60.343 15.74V15.406C60.343 15.164 60.2431 15.058 60.0031 15.058H59.682Z" fill="white"/>
<path d="M62.0491 15.506V17.957H61.449V14.572H62.287L62.9731 16.598V14.572H63.5731V17.957H62.8871L62.0491 15.506Z" fill="white"/>
</svg>
