<svg width="95" height="16" viewBox="0 0 95 16" fill="none" xmlns="http://www.w3.org/2000/svg">
<path d="M3.7 0H0V3.7H3.7V0Z" fill="white"/>
<path fill-rule="evenodd" clip-rule="evenodd" d="M4.03802 3.70001H7.73798V1.98599C7.73863 1.72551 7.68794 1.46745 7.58875 1.22659C7.48955 0.985735 7.34382 0.766806 7.15991 0.582336C6.976 0.397867 6.75752 0.251476 6.51697 0.15155C6.27641 0.0516244 6.01848 0.000130662 5.758 0H4.03802V3.70001Z" fill="white"/>
<path fill-rule="evenodd" clip-rule="evenodd" d="M1.98602 7.73801H3.70001V4.03799H0V5.758C0.000130662 6.01848 0.0516244 6.27638 0.15155 6.51694C0.251476 6.75749 0.397867 6.976 0.582336 7.15991C0.766806 7.34382 0.985765 7.48955 1.22662 7.58875C1.46748 7.68794 1.72554 7.73866 1.98602 7.73801Z" fill="white"/>
<path d="M7.73802 4.03799H4.03802V7.73799H7.73802V4.03799Z" fill="white"/>
<path fill-rule="evenodd" clip-rule="evenodd" d="M81.823 6.48199V15.597H78.637V6.478H74.462V4.27798H94.562V6.478H90.381V15.597H87.2001V6.478L81.823 6.48199Z" fill="white"/>
<path d="M73.474 4.27899H70.288V15.601H73.474V4.27899Z" fill="white"/>
<path fill-rule="evenodd" clip-rule="evenodd" d="M15.376 8.45999C16.5581 8.55475 17.7314 8.73825 18.886 9.00897C19.6301 9.17105 20.338 9.46906 20.974 9.888C21.2189 10.079 21.4402 10.2985 21.633 10.542C21.8642 10.8839 21.9954 11.2836 22.012 11.696C22.0331 12.0702 22.0184 12.4456 21.968 12.817C21.8071 13.4964 21.4633 14.1189 20.974 14.617C20.0285 15.2775 18.9337 15.6926 17.788 15.825C16.4817 16.0439 15.1498 16.0624 13.838 15.88C12.563 15.7218 11.3707 15.1642 10.432 14.287C9.91467 13.6307 9.64076 12.8155 9.65699 11.98H13.178C13.1666 12.3726 13.2824 12.7585 13.508 13.08C13.8478 13.4607 14.3182 13.6998 14.826 13.75C15.4766 13.8715 16.1426 13.8864 16.798 13.794C17.3459 13.7409 17.8548 13.4866 18.226 13.08C18.3566 12.9182 18.434 12.7201 18.4478 12.5127C18.4615 12.3053 18.411 12.0986 18.303 11.921C18.1248 11.7229 17.8975 11.5752 17.644 11.493C17.2782 11.3566 16.9037 11.2447 16.523 11.158C15.6987 10.9705 14.8612 10.8458 14.018 10.785C13.2392 10.7019 12.4756 10.5115 11.749 10.219C11.2049 9.92967 10.7204 9.54017 10.321 9.07098C9.95245 8.54297 9.7938 7.89663 9.87599 7.25799C9.89792 6.82815 10.0112 6.40789 10.2083 6.02526C10.4054 5.64264 10.6818 5.30643 11.019 5.039C11.5404 4.6226 12.1429 4.31947 12.788 4.14898C13.6426 4.00004 14.5085 3.92476 15.376 3.92398C16.7766 3.91972 18.1678 4.15374 19.49 4.61599C20.1646 4.90228 20.725 5.4046 21.083 6.044C21.33 6.5246 21.4791 7.04936 21.522 7.58798H18.16C18.0684 7.13342 17.8208 6.72519 17.46 6.43399C16.5507 5.95582 15.5001 5.81957 14.499 6.04998C14.1332 6.15867 13.7957 6.34606 13.51 6.59899C13.4045 6.69382 13.3238 6.81302 13.275 6.94619C13.2262 7.07937 13.2108 7.22248 13.23 7.363C13.2512 7.50317 13.307 7.63584 13.3923 7.74899C13.4777 7.86214 13.59 7.95218 13.719 8.01098C14.2432 8.25321 14.8037 8.40728 15.378 8.46698L15.376 8.45999Z" fill="white"/>
<path fill-rule="evenodd" clip-rule="evenodd" d="M35.1471 14.057C35.7963 13.2821 36.1795 12.3191 36.2401 11.31H32.999C32.8546 11.8926 32.5441 12.4207 32.1052 12.8302C31.6664 13.2397 31.1182 13.5131 30.5271 13.617C29.8803 13.7708 29.2043 13.75 28.5683 13.5567C27.9322 13.3634 27.3589 13.0046 26.9071 12.517C26.3635 11.7669 26.0708 10.8643 26.0708 9.938C26.0708 9.01169 26.3635 8.10908 26.9071 7.35902C27.359 6.8715 27.9323 6.51274 28.5683 6.31947C29.2044 6.1262 29.8803 6.10534 30.5271 6.25901C31.1178 6.36403 31.6655 6.63772 32.1041 7.04707C32.5427 7.45642 32.8535 7.98396 32.999 8.56602H36.2401C36.1795 7.5569 35.7963 6.59393 35.1471 5.81901C34.7546 5.32935 34.2414 4.95026 33.658 4.71901C32.5953 4.26662 31.4607 4.00628 30.307 3.95002C28.6933 3.77015 27.0612 4.0361 25.588 4.71901C24.9692 5.04686 24.4255 5.50001 23.9915 6.04957C23.5574 6.59914 23.2426 7.23309 23.067 7.91102C22.7702 9.24808 22.7702 10.634 23.067 11.971C23.2426 12.649 23.5574 13.2829 23.9915 13.8325C24.4255 14.382 24.9692 14.8352 25.588 15.163C27.0612 15.8459 28.6933 16.1118 30.307 15.932C31.4607 15.8756 32.5952 15.6153 33.658 15.163C34.2413 14.9317 34.7545 14.5526 35.1471 14.063V14.057Z" fill="white"/>
<path fill-rule="evenodd" clip-rule="evenodd" d="M47.227 15.597V10.647H40.854V15.597H37.668V4.27899H40.854V8.45901H47.226V4.27899H50.407V15.597H47.227Z" fill="white"/>
<path fill-rule="evenodd" clip-rule="evenodd" d="M65.124 15.597H68.2V4.27899H63.7L60.42 12.003C60.4091 12.0273 60.3914 12.0479 60.3691 12.0625C60.3467 12.077 60.3207 12.0848 60.294 12.085C60.2671 12.0861 60.2405 12.0787 60.218 12.0641C60.1954 12.0494 60.178 12.0281 60.168 12.003L56.888 4.27899H52.388V15.597H55.459V7.51596C55.46 7.48428 55.4712 7.45382 55.4911 7.42911C55.5109 7.40439 55.5383 7.3868 55.569 7.379C55.6009 7.37363 55.6337 7.37944 55.6617 7.39548C55.6898 7.41152 55.7115 7.43682 55.723 7.46701L58.975 15.597H61.617L64.864 7.46701C64.8754 7.43731 64.8968 7.41254 64.9246 7.397C64.9523 7.38146 64.9847 7.3761 65.0159 7.38193C65.0472 7.38775 65.0754 7.40437 65.0957 7.42886C65.116 7.45335 65.1271 7.48415 65.127 7.51596L65.124 15.597Z" fill="white"/>
</svg>
