<svg width="83" height="24" viewBox="0 0 83 24" fill="none" xmlns="http://www.w3.org/2000/svg">
<path d="M35.213 10.665L32.082 9.503C31.827 9.41 31.691 9.279 31.691 9.055C31.6891 9.00224 31.6988 8.9497 31.7192 8.90103C31.7397 8.85235 31.7705 8.80871 31.8095 8.77313C31.8485 8.73755 31.8948 8.71088 31.9451 8.69497C31.9954 8.67906 32.0487 8.6743 32.101 8.681H36.89V5.839H32.251C30.071 5.839 28.561 7.185 28.561 9.148C28.5147 9.80878 28.689 10.4662 29.0566 11.0173C29.4241 11.5684 29.9642 11.9819 30.592 12.193L33.783 13.393C34.083 13.504 34.175 13.636 34.175 13.823C34.177 13.8807 34.1665 13.9382 34.1442 13.9915C34.1219 14.0448 34.0882 14.0926 34.0457 14.1317C34.0031 14.1707 33.9526 14.2001 33.8976 14.2178C33.8426 14.2354 33.7844 14.241 33.727 14.234H28.862V17.074H33.725C34.1809 17.1066 34.6386 17.0463 35.0705 16.8968C35.5024 16.7472 35.8994 16.5116 36.2375 16.2041C36.5756 15.8965 36.8478 15.5236 37.0375 15.1077C37.2271 14.6919 37.3304 14.2419 37.341 13.785C37.3828 13.1025 37.1964 12.4256 36.8111 11.8607C36.4258 11.2959 35.8636 10.8752 35.213 10.665Z" fill="white"/>
<path d="M37.934 12.366C37.934 15.449 39.704 17.23 42.816 17.23C43.8063 17.256 44.7908 17.0709 45.704 16.687V13.598C45.0184 14.1247 44.1675 14.3899 43.304 14.346C41.924 14.346 41.179 13.805 41.03 12.646H44.273V9.917H40.989V8.685H45.711V5.844H37.937L37.934 12.366Z" fill="white"/>
<path d="M10.857 9.923C10.616 9.923 10.463 10.054 10.463 10.252C10.4635 10.3307 10.4892 10.4071 10.5364 10.4701C10.5835 10.5331 10.6496 10.5793 10.725 10.602L12.389 11.283C12.7234 11.3927 13.0131 11.608 13.2146 11.8965C13.416 12.1851 13.5183 12.5313 13.506 12.883C13.506 13.935 12.74 14.594 11.536 14.594H9.15399L10.248 23.072H12.258C12.5501 20.9297 13.1394 18.8386 14.009 16.859C14.27 16.3536 14.6017 15.8879 14.994 15.476C15.5122 14.9925 16.1131 14.606 16.768 14.335C18.7616 13.5287 20.8291 12.9185 22.941 12.513V10.626L13.223 9.926L10.857 9.923Z" fill="white"/>
<path d="M11.952 12.846C11.9514 12.7728 11.9278 12.7017 11.8846 12.6426C11.8413 12.5836 11.7806 12.5396 11.711 12.517L10.054 11.836C9.71968 11.7262 9.43004 11.5109 9.22861 11.2223C9.02718 10.9338 8.92485 10.5877 8.937 10.236C8.937 9.184 9.703 8.523 10.907 8.523H13.207L12.258 0H10.245C9.567 3.336 9.2 4.984 8.516 6.279C8.25542 6.78469 7.92372 7.25042 7.531 7.662C7.01502 8.14839 6.41359 8.53522 5.757 8.803C3.89808 9.58176 1.97079 10.186 0 10.608V12.496L9.107 13.196H11.554C11.8 13.194 11.952 13.061 11.952 12.846Z" fill="white"/>
<path d="M80.754 13.674C80.7567 13.4264 80.8345 13.1854 80.977 12.983L82.431 10.423C82.7626 9.85626 82.9353 9.21062 82.931 8.554C82.931 6.835 81.758 5.844 79.689 5.844H74.155V17.076H77.21V8.685H79.353C79.4011 8.67915 79.45 8.68337 79.4964 8.69737C79.5428 8.71138 79.5857 8.73487 79.6226 8.76637C79.6594 8.79786 79.6893 8.83667 79.7104 8.88033C79.7315 8.92399 79.7432 8.97155 79.745 9.02C79.7422 9.1469 79.7034 9.27038 79.633 9.376L78.348 11.656C77.9237 12.2846 77.7012 13.0277 77.71 13.786C77.71 15.706 79.07 17.075 81.568 17.075H82.725V14.239H81.387C81.3073 14.2488 81.2264 14.2415 81.1497 14.2175C81.073 14.1936 81.0023 14.1535 80.9424 14.1C80.8825 14.0465 80.8346 13.9808 80.8022 13.9074C80.7697 13.8339 80.7533 13.7543 80.754 13.674Z" fill="white"/>
<path d="M46.04 11.449C45.9952 12.2127 46.1114 12.9773 46.381 13.6932C46.6506 14.4091 47.0676 15.0604 47.605 15.6048C48.1424 16.1493 48.7881 16.5748 49.5005 16.8537C50.2128 17.1326 50.9758 17.2588 51.74 17.224C52.5598 17.2438 53.3721 17.064 54.107 16.7V13.487C53.8245 13.7626 53.4888 13.9777 53.1203 14.119C52.7518 14.2604 52.3584 14.325 51.964 14.309C51.2081 14.309 50.4832 14.0087 49.9488 13.4743C49.4143 12.9398 49.114 12.2149 49.114 11.459C49.114 10.7031 49.4143 9.97822 49.9488 9.44375C50.4832 8.90927 51.2081 8.609 51.964 8.609C52.3585 8.59246 52.7522 8.65696 53.1208 8.79851C53.4893 8.94006 53.825 9.15566 54.107 9.432V6.217C53.372 5.85369 52.5597 5.67454 51.74 5.695C50.9775 5.65968 50.216 5.78476 49.5048 6.06216C48.7937 6.33956 48.1486 6.7631 47.6114 7.30541C47.0742 7.84772 46.6568 8.49673 46.3861 9.21048C46.1154 9.92423 45.9975 10.6868 46.04 11.449Z" fill="white"/>
<path d="M70.17 12.447C70.17 13.681 69.611 14.316 68.548 14.316C67.485 14.316 66.927 13.676 66.927 12.447V5.847H63.872V12.463C63.8592 13.0853 63.9706 13.704 64.1999 14.2827C64.4291 14.8614 64.7716 15.3885 65.2072 15.8332C65.6428 16.2779 66.1627 16.6311 66.7365 16.8723C67.3104 17.1135 67.9266 17.2377 68.549 17.2377C69.1715 17.2377 69.7877 17.1135 70.3615 16.8723C70.9354 16.6311 71.4553 16.2779 71.8909 15.8332C72.3265 15.3885 72.6689 14.8614 72.8982 14.2827C73.1274 13.704 73.2389 13.0853 73.226 12.463V5.844H70.171L70.17 12.447Z" fill="white"/>
<path d="M55.058 8.685H59.885V11.599C59.885 13.374 58.992 14.309 57.276 14.309C56.4617 14.3114 55.6741 14.0194 55.058 13.487V16.701C55.8978 17.067 56.8072 17.2458 57.723 17.225C61.003 17.225 62.94 15.001 62.94 11.506V5.844H55.058V8.685Z" fill="white"/>
</svg>
