<svg width="81" height="21" viewBox="0 0 81 21" fill="none" xmlns="http://www.w3.org/2000/svg">
<path fill-rule="evenodd" clip-rule="evenodd" d="M10.65 4.035V1.272H3.75C2.75544 1.272 1.80161 1.66709 1.09835 2.37035C0.395088 3.07361 0 4.02744 0 5.022C0 6.01656 0.395088 6.97039 1.09835 7.67365C1.80161 8.37691 2.75544 8.772 3.75 8.772H6.899C7.14775 8.79432 7.37914 8.90891 7.54767 9.09322C7.71619 9.27754 7.80965 9.51825 7.80965 9.768C7.80965 10.0177 7.71619 10.2585 7.54767 10.4428C7.37914 10.6271 7.14775 10.7417 6.899 10.764H0.05V13.527H6.95C7.94456 13.527 8.89839 13.1319 9.60165 12.4287C10.3049 11.7254 10.7 10.7716 10.7 9.777C10.7 8.78244 10.3049 7.82861 9.60165 7.12535C8.89839 6.42209 7.94456 6.027 6.95 6.027H3.803C3.55425 6.00468 3.32286 5.8901 3.15433 5.70578C2.98581 5.52146 2.89235 5.28075 2.89235 5.031C2.89235 4.78125 2.98581 4.54054 3.15433 4.35622C3.32286 4.1719 3.55425 4.05732 3.803 4.035H10.65Z" fill="white"/>
<path fill-rule="evenodd" clip-rule="evenodd" d="M66.603 2.629C65.6863 1.83065 64.5592 1.31294 63.3563 1.13768C62.1534 0.962417 60.9255 1.137 59.8191 1.6406C58.7127 2.14419 57.7746 2.95552 57.1168 3.97774C56.4589 4.99996 56.1091 6.18989 56.1091 7.4055C56.1091 8.62111 56.4589 9.81104 57.1168 10.8333C57.7746 11.8555 58.7127 12.6668 59.8191 13.1704C60.9255 13.674 62.1534 13.8486 63.3563 13.6733C64.5592 13.4981 65.6863 12.9804 66.603 12.182L64.764 9.555C64.332 10.0204 63.7698 10.3448 63.1507 10.4859C62.5316 10.6271 61.8843 10.5785 61.2933 10.3464C60.7022 10.1143 60.1948 9.70958 59.8371 9.18491C59.4795 8.66024 59.2882 8.03998 59.2882 7.405C59.2882 6.77002 59.4795 6.14977 59.8371 5.62509C60.1948 5.10042 60.7022 4.69567 61.2933 4.4636C61.8843 4.23153 62.5316 4.18291 63.1507 4.32408C63.7698 4.46524 64.332 4.78965 64.764 5.255L66.603 2.629Z" fill="white"/>
<path fill-rule="evenodd" clip-rule="evenodd" d="M22.731 5.351C22.7502 4.79441 22.6516 4.24006 22.4417 3.72421C22.2318 3.20837 21.9153 2.74267 21.5129 2.35761C21.1106 1.97254 20.6315 1.67679 20.1069 1.48971C19.5824 1.30263 19.0242 1.22844 18.469 1.272H12.333V13.526H15.493V9.411H18.469C19.0227 9.45498 19.5795 9.38173 20.1029 9.196C20.6264 9.01028 21.1049 8.71627 21.507 8.33316C21.9092 7.95004 22.2261 7.48643 22.437 6.97258C22.6479 6.45873 22.7481 5.90619 22.731 5.351ZM19.516 5.351C19.5157 5.53642 19.476 5.71967 19.3997 5.88865C19.3233 6.05764 19.2121 6.20852 19.0732 6.33136C18.9343 6.4542 18.7709 6.5462 18.5938 6.60129C18.4168 6.65639 18.2301 6.67333 18.046 6.651H15.493V4.028H18.047C18.2329 4.00592 18.4214 4.02379 18.5999 4.08042C18.7783 4.13705 18.9426 4.23114 19.0818 4.35639C19.221 4.48164 19.3318 4.63516 19.4068 4.80669C19.4819 4.97821 19.5184 5.16379 19.516 5.351Z" fill="white"/>
<path fill-rule="evenodd" clip-rule="evenodd" d="M44.001 13.526V10.77H39.08V1.27H35.92V13.526H44.004" fill="white"/>
<path fill-rule="evenodd" clip-rule="evenodd" d="M54.607 13.526V10.77H48.783V8.77H54.483V6.019H48.783V4.028H54.607V1.272H45.623V13.526H54.607Z" fill="white"/>
<path fill-rule="evenodd" clip-rule="evenodd" d="M70.603 7.399L74.893 1.272H70.893L66.603 7.399L70.893 13.526H74.893L70.603 7.399Z" fill="white"/>
<path fill-rule="evenodd" clip-rule="evenodd" d="M78.775 2.544C78.5234 2.544 78.2775 2.4694 78.0683 2.32963C77.8591 2.18986 77.6961 1.9912 77.5998 1.75877C77.5036 1.52635 77.4784 1.27059 77.5274 1.02385C77.5765 0.777102 77.6977 0.550453 77.8756 0.372561C78.0535 0.194668 78.2801 0.0735221 78.5268 0.0244417C78.7736 -0.0246387 79.0293 0.000551149 79.2618 0.0968258C79.4942 0.1931 79.6929 0.356136 79.8326 0.565315C79.9724 0.774495 80.047 1.02042 80.047 1.272C80.0467 1.60927 79.9126 1.93266 79.6741 2.17115C79.4357 2.40964 79.1123 2.54374 78.775 2.544ZM78.775 0.210001C78.565 0.210001 78.3596 0.272286 78.185 0.38898C78.0103 0.505674 77.8742 0.671536 77.7938 0.865591C77.7135 1.05965 77.6924 1.27318 77.7334 1.47919C77.7744 1.68519 77.8755 1.87442 78.0241 2.02295C78.1726 2.17147 78.3618 2.27262 78.5678 2.31359C78.7738 2.35457 78.9874 2.33354 79.1814 2.25316C79.3755 2.17278 79.5413 2.03666 79.658 1.86202C79.7747 1.68737 79.837 1.48204 79.837 1.272C79.8376 1.13235 79.8106 0.993955 79.7575 0.864809C79.7044 0.735662 79.6262 0.618325 79.5274 0.519577C79.4287 0.420829 79.3113 0.342628 79.1822 0.289492C79.053 0.236356 78.9147 0.209338 78.775 0.210001ZM79.117 2.004L78.739 1.428H78.505V2.004H78.283V0.546001H78.877C79.0011 0.539739 79.1226 0.582977 79.2149 0.666222C79.3071 0.749467 79.3625 0.865916 79.369 0.990001C79.3711 1.09519 79.3343 1.19745 79.2656 1.27717C79.197 1.3569 79.1013 1.40847 78.997 1.422L79.387 2.004H79.117ZM78.877 0.732001H78.505V1.232H78.877C78.9444 1.23339 79.0096 1.20847 79.0589 1.16254C79.1082 1.11661 79.1376 1.05329 79.141 0.986001C79.1406 0.951725 79.1335 0.917862 79.12 0.886346C79.1065 0.85483 79.0869 0.826277 79.0624 0.802319C79.0379 0.778361 79.0089 0.759467 78.9771 0.746715C78.9453 0.733964 78.9113 0.727604 78.877 0.728001V0.732001Z" fill="white"/>
<path fill-rule="evenodd" clip-rule="evenodd" d="M12.379 17.875V20.098H12.879V19.227H13.858V18.791H12.879V18.311H13.909V17.875H12.379ZM16.153 19.475C16.0937 19.5406 16.0214 19.593 15.9406 19.6289C15.8598 19.6648 15.7724 19.6834 15.684 19.6834C15.5956 19.6834 15.5082 19.6648 15.4274 19.6289C15.3466 19.593 15.2743 19.5406 15.215 19.475C15.0919 19.335 15.024 19.1549 15.024 18.9685C15.024 18.7821 15.0919 18.602 15.215 18.462C15.274 18.396 15.3463 18.3432 15.4271 18.307C15.5079 18.2708 15.5955 18.2521 15.684 18.2521C15.7725 18.2521 15.8601 18.2708 15.9409 18.307C16.0217 18.3432 16.094 18.396 16.153 18.462C16.2761 18.602 16.344 18.7821 16.344 18.9685C16.344 19.1549 16.2761 19.335 16.153 19.475ZM16.853 18.968C16.8567 18.8156 16.8286 18.6641 16.7706 18.5231C16.7126 18.3821 16.6259 18.2547 16.516 18.149C16.2914 17.9376 15.9945 17.8198 15.686 17.8198C15.3775 17.8198 15.0806 17.9376 14.856 18.149C14.6399 18.3668 14.5187 18.6612 14.5187 18.968C14.5187 19.2748 14.6399 19.5692 14.856 19.787C15.0806 19.9984 15.3775 20.1162 15.686 20.1162C15.9945 20.1162 16.2914 19.9984 16.516 19.787C16.6248 19.6815 16.7107 19.5546 16.7681 19.4144C16.8256 19.2741 16.8535 19.1235 16.85 18.972L16.853 18.968ZM19.173 18.046C18.9519 17.9097 18.6927 17.8484 18.434 17.871H17.587V20.094H18.087V19.385H18.43L18.923 20.094H19.534L18.971 19.299C19.1087 19.2482 19.2253 19.1524 19.3021 19.0273C19.3788 18.9021 19.4112 18.7548 19.394 18.609C19.4024 18.5048 19.3864 18.4 19.3473 18.303C19.3083 18.206 19.2472 18.1194 19.169 18.05L19.173 18.046ZM18.45 18.955H18.087V18.297H18.459C18.5744 18.2872 18.6903 18.3104 18.793 18.364C18.8287 18.3936 18.8564 18.4315 18.8739 18.4744C18.8913 18.5174 18.8979 18.5639 18.893 18.61C18.8973 18.6577 18.8913 18.7058 18.8754 18.751C18.8596 18.7962 18.8342 18.8374 18.801 18.872C18.6967 18.942 18.5709 18.9728 18.446 18.959L18.45 18.955ZM20.45 17.871H19.913L20.689 20.094H21.058L21.541 18.549L22.027 20.094H22.396L23.172 17.871H22.627L22.185 19.149L21.794 17.871H21.276L20.882 19.149L20.45 17.871ZM25.75 20.094L24.79 17.871H24.31L23.35 20.094H23.878L24.085 19.614H25.017L25.224 20.094H25.75ZM24.828 19.178H24.272L24.552 18.533L24.828 19.178ZM27.908 18.046C27.6869 17.9097 27.4277 17.8484 27.169 17.871H26.317V20.094H26.817V19.385H27.16L27.653 20.094H28.264L27.701 19.299C27.8387 19.2482 27.9553 19.1524 28.0321 19.0273C28.1088 18.9021 28.1412 18.7548 28.124 18.609C28.1321 18.5046 28.1158 18.3997 28.0764 18.3027C28.037 18.2057 27.9756 18.1192 27.897 18.05L27.908 18.046ZM27.185 18.955H26.823V18.297H27.195C27.3104 18.2872 27.4263 18.3105 27.529 18.364C27.5647 18.3936 27.5924 18.4315 27.6099 18.4744C27.6273 18.5174 27.6339 18.5639 27.629 18.61C27.6332 18.6577 27.6272 18.7058 27.6113 18.7509C27.5955 18.7961 27.5701 18.8374 27.537 18.872C27.4304 18.9438 27.3015 18.9747 27.174 18.959L27.185 18.955ZM29.741 17.871H28.956V20.094H29.716C30.0585 20.1222 30.3983 20.0144 30.662 19.794C30.7675 19.6862 30.8495 19.5576 30.9029 19.4165C30.9563 19.2753 30.9798 19.1247 30.972 18.974C30.9804 18.8242 30.9563 18.6744 30.9014 18.5348C30.8465 18.3951 30.7621 18.269 30.654 18.165C30.3945 17.9535 30.0638 17.8497 29.73 17.875L29.741 17.871ZM29.766 19.655H29.451V18.304H29.717C29.9198 18.2874 30.1211 18.3505 30.278 18.48C30.3412 18.5463 30.39 18.625 30.4215 18.711C30.453 18.797 30.4664 18.8886 30.461 18.98C30.4674 19.0715 30.4544 19.1634 30.4229 19.2495C30.3913 19.3357 30.342 19.4142 30.278 19.48C30.1338 19.6051 29.9466 19.6693 29.756 19.659L29.766 19.655ZM34.447 18.3V17.871H32.681V18.3H33.311V20.093H33.811V18.3H34.447ZM36.507 18.8H35.617V17.872H35.117V20.095H35.617V19.221H36.501V20.095H37.001V17.875H36.501L36.507 18.8ZM37.868 20.094H38.368V17.875H37.868V20.094ZM40.784 19.302L39.694 17.871H39.217V20.094H39.717V18.705L40.776 20.098H41.276V17.875H40.776L40.784 19.302ZM42.145 20.094H42.645V19.464L42.868 19.216L43.52 20.094H44.099L43.638 19.447C43.4327 19.1577 43.2917 18.96 43.215 18.854L44.099 17.872H43.485L42.645 18.785V17.872H42.145V20.094ZM44.721 20.094H45.221V17.875H44.721V20.094ZM47.637 19.302L46.547 17.871H46.083V20.094H46.583V18.705L47.642 20.098H48.142V17.875H47.642L47.637 19.302ZM50.437 19.572C50.3053 19.6424 50.1573 19.6769 50.008 19.672C49.9249 19.6729 49.8426 19.6566 49.7662 19.6241C49.6897 19.5916 49.6209 19.5435 49.564 19.483C49.4427 19.3421 49.3767 19.1619 49.3782 18.976C49.3796 18.7901 49.4485 18.611 49.572 18.472C49.6343 18.4093 49.7087 18.3599 49.7907 18.3269C49.8727 18.2939 49.9606 18.2779 50.049 18.28C50.1419 18.279 50.2342 18.2957 50.321 18.329C50.4221 18.3732 50.5151 18.434 50.596 18.509L50.854 18.137C50.6268 17.9301 50.3293 17.8174 50.022 17.822C49.8706 17.8195 49.7202 17.8475 49.5798 17.9044C49.4395 17.9613 49.312 18.0458 49.205 18.153C48.9892 18.3718 48.8677 18.6665 48.8666 18.9738C48.8655 19.2811 48.9848 19.5766 49.199 19.797C49.3073 19.9034 49.4358 19.9869 49.5771 20.0426C49.7183 20.0983 49.8693 20.1249 50.021 20.121C50.1914 20.1303 50.3617 20.102 50.52 20.0383C50.6783 19.9745 50.8206 19.8768 50.937 19.752V18.963H50.437V19.572ZM51.881 20.119C51.9449 20.118 52.0065 20.095 52.0554 20.0538C52.1042 20.0126 52.1373 19.9557 52.1491 19.8929C52.1608 19.8301 52.1505 19.7652 52.1198 19.7091C52.0891 19.653 52.04 19.6093 51.9808 19.5853C51.9215 19.5613 51.8558 19.5585 51.7948 19.5775C51.7337 19.5964 51.6811 19.6358 51.6458 19.6891C51.6105 19.7424 51.5948 19.8062 51.6012 19.8698C51.6076 19.9334 51.6358 19.9928 51.681 20.038C51.7058 20.0644 51.7357 20.0855 51.7689 20.1001C51.802 20.1147 51.8378 20.1225 51.874 20.123L51.881 20.119ZM54.803 18.256C55.0219 18.2599 55.2331 18.337 55.403 18.475L55.654 18.112C55.5393 18.0164 55.4077 17.9431 55.266 17.896C55.1229 17.8462 54.9725 17.8205 54.821 17.82C54.6178 17.8126 54.418 17.8732 54.253 17.992C54.1782 18.0487 54.1184 18.1227 54.0789 18.2078C54.0393 18.2929 54.0212 18.3863 54.026 18.48C54.0187 18.5659 54.0312 18.6524 54.0624 18.7328C54.0936 18.8132 54.1427 18.8854 54.206 18.944C54.3755 19.0646 54.5694 19.1465 54.774 19.184C54.8891 19.2057 54.9998 19.2459 55.102 19.303C55.1282 19.3203 55.1495 19.344 55.1641 19.3718C55.1786 19.3996 55.1858 19.4306 55.185 19.462C55.186 19.4929 55.1794 19.5235 55.1658 19.5512C55.1522 19.5789 55.132 19.6029 55.107 19.621C55.0437 19.6636 54.9682 19.6844 54.892 19.68C54.6396 19.6585 54.4035 19.5466 54.227 19.365L53.927 19.728C54.1809 19.9773 54.5222 20.1176 54.878 20.119C55.0905 20.1292 55.2997 20.0632 55.468 19.933C55.5403 19.875 55.5981 19.801 55.637 19.7168C55.6758 19.6327 55.6947 19.5406 55.692 19.448C55.6978 19.364 55.6851 19.2797 55.6549 19.2011C55.6247 19.1225 55.5776 19.0515 55.517 18.993C55.3747 18.8765 55.2062 18.7962 55.026 18.759C54.8873 18.7319 54.7528 18.6865 54.626 18.624C54.5992 18.6083 54.577 18.5858 54.5618 18.5587C54.5465 18.5317 54.5386 18.5011 54.539 18.47C54.5381 18.4402 54.5441 18.4106 54.5566 18.3835C54.5691 18.3564 54.5877 18.3326 54.611 18.314C54.6651 18.2761 54.7301 18.2572 54.796 18.26L54.803 18.256ZM56.434 20.094H56.934V17.875H56.434V20.094ZM59.35 19.302L58.259 17.871H57.795V20.094H58.295V18.705L59.354 20.098H59.854V17.875H59.354L59.35 19.302ZM61.277 19.467C61.2132 19.4009 61.1636 19.3224 61.1313 19.2365C61.0989 19.1505 61.0846 19.0588 61.089 18.967C61.0848 18.8753 61.1006 18.7837 61.1351 18.6986C61.1696 18.6135 61.2221 18.5369 61.289 18.474C61.4187 18.3529 61.5906 18.2873 61.768 18.291C61.8816 18.2903 61.9938 18.3164 62.0954 18.3671C62.197 18.4178 62.2853 18.4918 62.353 18.583L62.661 18.233C62.5487 18.1001 62.4082 17.9939 62.2498 17.9219C62.0914 17.85 61.919 17.8141 61.745 17.817C61.5918 17.8138 61.4396 17.8414 61.2973 17.8983C61.1551 17.9551 61.0257 18.0401 60.917 18.148C60.7012 18.3668 60.5797 18.6615 60.5786 18.9688C60.5775 19.2761 60.6968 19.5716 60.911 19.792C61.0297 19.9035 61.1699 19.9897 61.323 20.0453C61.4761 20.1009 61.6389 20.1247 61.8015 20.1153C61.9641 20.106 62.1231 20.0636 62.2688 19.9909C62.4145 19.9181 62.5439 19.8164 62.649 19.692L62.331 19.364C62.261 19.4562 62.1701 19.5305 62.0658 19.5807C61.9615 19.6309 61.8467 19.6557 61.731 19.653C61.6456 19.6562 61.5605 19.6417 61.4809 19.6104C61.4014 19.579 61.3293 19.5316 61.269 19.471L61.277 19.467ZM63.357 17.867V20.09H64.994V19.651H63.852V19.19H64.852V18.767H63.852V18.309H64.959V17.867H63.357ZM66.737 18.29H67.16V20.09H67.637V17.875H66.737V18.29ZM68.486 18.42C68.4859 18.5037 68.5037 18.5864 68.5382 18.6626C68.5727 18.7389 68.6231 18.8068 68.686 18.862C68.598 18.926 68.5268 19.0104 68.4786 19.1079C68.4303 19.2054 68.4065 19.3132 68.409 19.422C68.4082 19.5166 68.4289 19.6102 68.4696 19.6956C68.5103 19.781 68.57 19.8561 68.644 19.915C68.8221 20.0451 69.0369 20.1152 69.2575 20.1152C69.4781 20.1152 69.6929 20.0451 69.871 19.915C69.945 19.8561 70.0047 19.781 70.0454 19.6956C70.0861 19.6102 70.1068 19.5166 70.106 19.422C70.1085 19.3132 70.0847 19.2054 70.0364 19.1079C69.9882 19.0104 69.917 18.926 69.829 18.862C69.8919 18.8072 69.9422 18.7396 69.9767 18.6637C70.0112 18.5878 70.0291 18.5054 70.029 18.422C70.0291 18.338 70.0093 18.2551 69.9713 18.1802C69.9332 18.1053 69.8779 18.0404 69.81 17.991C69.649 17.8776 69.4569 17.8167 69.26 17.8167C69.0631 17.8167 68.871 17.8776 68.71 17.991C68.6386 18.0394 68.5802 18.1045 68.5398 18.1807C68.4993 18.2569 68.4781 18.3418 68.478 18.428L68.486 18.42ZM68.906 19.409C68.904 19.3663 68.9128 19.3239 68.9317 19.2855C68.9506 19.2472 68.9789 19.2144 69.014 19.19C69.086 19.1402 69.1715 19.1136 69.259 19.1136C69.3465 19.1136 69.432 19.1402 69.504 19.19C69.5391 19.2144 69.5674 19.2472 69.5863 19.2855C69.6052 19.3239 69.614 19.3663 69.612 19.409C69.6141 19.4519 69.605 19.4945 69.5855 19.5328C69.5661 19.571 69.5369 19.6035 69.501 19.627C69.4298 19.6755 69.3457 19.7014 69.2595 19.7014C69.1734 19.7014 69.0892 19.6755 69.018 19.627C68.9814 19.6054 68.951 19.5747 68.9298 19.5379C68.9086 19.5011 68.8973 19.4595 68.897 19.417L68.906 19.409ZM68.957 18.466C68.9566 18.4298 68.9644 18.394 68.9799 18.3613C68.9953 18.3286 69.0179 18.2998 69.046 18.277C69.1061 18.2278 69.1813 18.2009 69.259 18.2009C69.3367 18.2009 69.4119 18.2278 69.472 18.277C69.5 18.2999 69.5226 18.3287 69.5381 18.3614C69.5536 18.3941 69.5617 18.4298 69.5617 18.466C69.5617 18.5022 69.5536 18.5379 69.5381 18.5706C69.5226 18.6033 69.5 18.6321 69.472 18.655C69.4126 18.7044 69.3378 18.7314 69.2605 18.7314C69.1832 18.7314 69.1084 18.7044 69.049 18.655C69.0196 18.6344 68.9953 18.6074 68.9778 18.5761C68.9603 18.5447 68.9501 18.5098 68.948 18.474L68.957 18.466ZM71.933 18.293C71.9845 18.3148 72.0332 18.3426 72.078 18.376C72.1027 18.3973 72.1213 18.4143 72.134 18.427L72.369 18.077C72.3153 18.0336 72.2592 17.9932 72.201 17.956C72.1323 17.9163 72.0591 17.8847 71.983 17.862C71.8861 17.8308 71.7848 17.8153 71.683 17.816C71.5651 17.8134 71.448 17.8359 71.3394 17.8819C71.2308 17.9279 71.1332 17.9965 71.053 18.083C70.9576 18.187 70.8875 18.3115 70.848 18.447C70.7952 18.6207 70.7699 18.8015 70.773 18.983C70.7629 19.2586 70.829 19.5316 70.964 19.772C71.0277 19.8803 71.121 19.9681 71.233 20.025C71.3599 20.0882 71.5003 20.1195 71.642 20.116C71.8487 20.124 72.0505 20.0524 72.206 19.916C72.2803 19.8472 72.3388 19.7632 72.3775 19.6696C72.4162 19.576 72.4341 19.4752 72.43 19.374C72.4346 19.2742 72.4185 19.1745 72.3827 19.0812C72.3469 18.988 72.2922 18.9031 72.222 18.832C72.1532 18.7655 72.0716 18.7135 71.9823 18.6792C71.893 18.6448 71.7977 18.6288 71.702 18.632C71.5457 18.6325 71.393 18.6791 71.263 18.766C71.2712 18.6296 71.3192 18.4985 71.401 18.389C71.4399 18.3427 71.4891 18.3061 71.5447 18.2822C71.6002 18.2582 71.6606 18.2475 71.721 18.251C71.7915 18.253 71.8607 18.27 71.924 18.301L71.933 18.293ZM71.892 19.14C71.9496 19.2057 71.9803 19.2907 71.978 19.378C71.9791 19.4214 71.9707 19.4646 71.9534 19.5045C71.9361 19.5444 71.9104 19.58 71.878 19.609C71.8133 19.6686 71.7279 19.7005 71.64 19.698C71.5955 19.699 71.5513 19.6906 71.5103 19.6734C71.4693 19.6562 71.4324 19.6305 71.402 19.598C71.3702 19.5666 71.345 19.5293 71.3279 19.4881C71.3107 19.4469 71.3019 19.4026 71.302 19.358C71.3007 19.3151 71.309 19.2725 71.3263 19.2332C71.3436 19.1939 71.3695 19.159 71.402 19.131C71.471 19.0721 71.5594 19.0411 71.65 19.044C71.6941 19.0431 71.7378 19.052 71.7781 19.07C71.8184 19.088 71.8542 19.1146 71.883 19.148L71.892 19.14ZM73.592 19.64C73.542 19.618 73.4944 19.5908 73.45 19.559L73.391 19.51L73.143 19.86C73.2097 19.9087 73.2657 19.9483 73.311 19.979C73.3791 20.0182 73.4516 20.049 73.527 20.071C73.624 20.102 73.7252 20.1176 73.827 20.117C73.9453 20.1189 74.0626 20.0961 74.1716 20.0501C74.2806 20.0042 74.3788 19.936 74.46 19.85C74.5529 19.745 74.6212 19.6207 74.66 19.486C74.7127 19.3123 74.738 19.1315 74.735 18.95C74.7453 18.6749 74.6807 18.4022 74.548 18.161C74.4825 18.0531 74.3884 17.9655 74.276 17.908C74.1491 17.8448 74.0087 17.8136 73.867 17.817C73.6602 17.8082 73.458 17.8799 73.303 18.017C73.2287 18.0858 73.1702 18.1698 73.1315 18.2634C73.0928 18.357 73.0749 18.4578 73.079 18.559C73.0746 18.6588 73.0908 18.7584 73.1266 18.8517C73.1623 18.9449 73.217 19.0298 73.287 19.101C73.3553 19.1685 73.4366 19.2215 73.526 19.2567C73.6154 19.292 73.711 19.3087 73.807 19.306C73.9639 19.306 74.117 19.2582 74.246 19.169C74.2378 19.3054 74.1898 19.4365 74.108 19.546C74.0691 19.5923 74.0199 19.6289 73.9643 19.6528C73.9088 19.6768 73.8484 19.6875 73.788 19.684C73.719 19.6869 73.6502 19.6739 73.587 19.646L73.592 19.64ZM73.627 18.793C73.5711 18.7269 73.5416 18.6425 73.544 18.556C73.5426 18.5133 73.5499 18.4708 73.5655 18.4311C73.5812 18.3913 73.6048 18.3552 73.635 18.325C73.6995 18.2649 73.7851 18.2324 73.8732 18.2344C73.9614 18.2365 74.0453 18.2729 74.107 18.336C74.1388 18.3678 74.164 18.4055 74.1812 18.447C74.1983 18.4886 74.2071 18.5331 74.207 18.578C74.2084 18.6208 74.2001 18.6633 74.1828 18.7024C74.1655 18.7415 74.1396 18.7763 74.107 18.804C74.0386 18.8623 73.9509 18.893 73.861 18.89C73.8168 18.8943 73.7723 18.8884 73.7308 18.8726C73.6893 18.8568 73.6521 18.8316 73.622 18.799L73.627 18.793ZM75.691 20.117C75.7549 20.116 75.8165 20.093 75.8654 20.0518C75.9142 20.0106 75.9473 19.9537 75.9591 19.8909C75.9708 19.8281 75.9605 19.7632 75.9298 19.7071C75.8991 19.651 75.85 19.6073 75.7908 19.5833C75.7315 19.5593 75.6658 19.5565 75.6048 19.5755C75.5437 19.5944 75.4911 19.6338 75.4558 19.6871C75.4205 19.7404 75.4048 19.8042 75.4112 19.8678C75.4176 19.9314 75.4458 19.9908 75.491 20.036C75.517 20.0625 75.5482 20.0834 75.5826 20.0974C75.617 20.1113 75.6539 20.118 75.691 20.117Z" fill="white"/>
<path fill-rule="evenodd" clip-rule="evenodd" d="M34.716 13.526L30.086 1.272H27.03L30.246 10.772H25.959L27.585 6.016H24.304L21.504 13.527H34.713" fill="white"/>
</svg>
