<svg width="17" height="16" viewBox="0 0 17 16" fill="none" xmlns="http://www.w3.org/2000/svg">
<path d="M8.20023 3.02637e-05C6.61705 -0.0043235 5.06817 0.461166 3.74969 1.33757C2.4312 2.21397 1.4024 3.46187 0.793522 4.92329C0.184646 6.38471 0.0230786 7.99393 0.329271 9.54722C0.635464 11.1005 1.39565 12.528 2.51359 13.6491C3.63153 14.7701 5.05695 15.5342 6.60939 15.8447C8.16184 16.1551 9.7715 15.998 11.2346 15.3931C12.6977 14.7883 13.9484 13.7629 14.8284 12.4469C15.7085 11.1308 16.1782 9.58322 16.1782 8.00003C16.1782 5.8821 15.3384 3.8506 13.8429 2.35094C12.3473 0.85128 10.3181 0.00585456 8.20023 3.02637e-05ZM15.1772 8.05903C13.5216 7.61406 11.7853 7.55997 10.1052 7.90103C9.87989 7.33703 9.63656 6.78136 9.37523 6.23403C10.8834 5.52589 12.2635 4.57226 13.4592 3.41203C14.569 4.68244 15.1804 6.31217 15.1802 7.99903C15.1802 8.01903 15.1802 8.03803 15.1802 8.05903H15.1772ZM12.7542 2.70603C11.6394 3.79266 10.3514 4.6862 8.94323 5.35003C8.19571 3.91578 7.32581 2.5487 6.34323 1.26403C7.44824 0.951715 8.61379 0.920492 9.73394 1.1732C10.8541 1.4259 11.8933 1.95453 12.7572 2.71103L12.7542 2.70603ZM5.35423 1.61303C6.36233 2.89973 7.25196 4.27501 8.01223 5.72203C5.89802 6.53638 3.61781 6.82566 1.36723 6.56503C1.59498 5.484 2.07481 4.47203 2.76764 3.61151C3.46046 2.751 4.34671 2.06626 5.35423 1.61303ZM1.21923 8.00003C1.21923 7.85003 1.23223 7.70003 1.24223 7.55603C3.68791 7.868 6.17274 7.54887 8.46023 6.62903C8.69956 7.12903 8.92389 7.63603 9.13323 8.15003C6.63265 8.90288 4.47451 10.5073 3.03323 12.685C1.86943 11.4022 1.22459 9.73214 1.22423 8.00003H1.21923ZM3.75723 13.395C5.08167 11.3082 7.12012 9.77445 9.49223 9.08003C10.1257 10.829 10.5774 12.6385 10.8402 14.48C9.67297 14.9613 8.39653 15.1149 7.14841 14.9245C5.90029 14.734 4.72779 14.2066 3.75723 13.399V13.395ZM11.7762 13.995C11.5063 12.2406 11.071 10.5155 10.4762 8.84303C12.012 8.55668 13.5933 8.63131 15.0952 9.06103C14.9386 10.0763 14.5604 11.0447 13.9875 11.8974C13.4146 12.7501 12.661 13.4662 11.7802 13.995H11.7762Z" fill="white"/>
</svg>
