<svg width="25" height="24" viewBox="0 0 25 24" fill="none" xmlns="http://www.w3.org/2000/svg">
<path d="M11.15 19.8L9.425 18.225C7.65833 16.6084 6.06233 15.004 4.637 13.412C3.21167 11.82 2.49933 10.066 2.5 8.15003C2.5 6.58336 3.025 5.27503 4.075 4.22503C5.125 3.17503 6.43333 2.65003 8 2.65003C8.88333 2.65003 9.71667 2.83736 10.5 3.21203C11.2833 3.58669 11.95 4.09936 12.5 4.75003C13.05 4.10003 13.7167 3.58736 14.5 3.21203C15.2833 2.83669 16.1167 2.64936 17 2.65003C18.5667 2.65003 19.875 3.17503 20.925 4.22503C21.975 5.27503 22.5 6.58336 22.5 8.15003C22.5 10.0667 21.7917 11.825 20.375 13.425C18.9583 15.025 17.35 16.6334 15.55 18.25L13.85 19.8C13.4667 20.1667 13.0167 20.35 12.5 20.35C11.9833 20.35 11.5333 20.1667 11.15 19.8ZM11.55 6.75003C11.0667 6.06669 10.55 5.54569 10 5.18703C9.45 4.82836 8.78333 4.64936 8 4.65003C7 4.65003 6.16667 4.98336 5.5 5.65003C4.83333 6.31669 4.5 7.15003 4.5 8.15003C4.5 9.01669 4.80833 9.93769 5.425 10.913C6.04167 11.8884 6.77933 12.834 7.638 13.75C8.496 14.6667 9.37933 15.525 10.288 16.325C11.1967 17.125 11.934 17.7834 12.5 18.3C13.0667 17.7834 13.8043 17.125 14.713 16.325C15.6217 15.525 16.505 14.6667 17.363 13.75C18.221 12.8334 18.9583 11.8877 19.575 10.913C20.1917 9.93836 20.5 9.01736 20.5 8.15003C20.5 7.15003 20.1667 6.31669 19.5 5.65003C18.8333 4.98336 18 4.65003 17 4.65003C16.2167 4.65003 15.55 4.82903 15 5.18703C14.45 5.54503 13.9333 6.06603 13.45 6.75003C13.3333 6.91669 13.1917 7.04169 13.025 7.12503C12.8583 7.20836 12.6833 7.25003 12.5 7.25003C12.3167 7.25003 12.1417 7.20836 11.975 7.12503C11.8083 7.04169 11.6667 6.91669 11.55 6.75003Z" fill="white"/>
</svg>
