<svg width="24" height="24" viewBox="0 0 24 24" fill="none" xmlns="http://www.w3.org/2000/svg">
<g opacity="0.7">
<path d="M5.14286 20C4.81905 20 4.54743 19.8903 4.328 19.6709C4.10858 19.4514 3.99924 19.1802 4 18.8571V15.4286C4 15.1048 4.10972 14.8331 4.32915 14.6137C4.54858 14.3943 4.81981 14.285 5.14286 14.2857C5.46667 14.2857 5.73829 14.3954 5.95772 14.6149C6.17715 14.8343 6.28648 15.1055 6.28572 15.4286V17.7143H8.57143C8.89524 17.7143 9.16686 17.824 9.38629 18.0434C9.60572 18.2629 9.71505 18.5341 9.71429 18.8571C9.71429 19.1809 9.60457 19.4526 9.38514 19.672C9.16572 19.8914 8.89448 20.0008 8.57143 20H5.14286ZM5.14286 9.71429C4.81905 9.71429 4.54743 9.60457 4.328 9.38514C4.10858 9.16572 3.99924 8.89448 4 8.57143V5.14286C4 4.81905 4.10972 4.54743 4.32915 4.328C4.54858 4.10858 4.81981 3.99924 5.14286 4H8.57143C8.89524 4 9.16686 4.10972 9.38629 4.32915C9.60572 4.54858 9.71505 4.81981 9.71429 5.14286C9.71429 5.46667 9.60457 5.73829 9.38514 5.95772C9.16572 6.17715 8.89448 6.28648 8.57143 6.28572H6.28572V8.57143C6.28572 8.89524 6.176 9.16686 5.95657 9.38629C5.73715 9.60572 5.46591 9.71505 5.14286 9.71429ZM15.4286 20C15.1048 20 14.8331 19.8903 14.6137 19.6709C14.3943 19.4514 14.285 19.1802 14.2857 18.8571C14.2857 18.5333 14.3954 18.2617 14.6149 18.0423C14.8343 17.8229 15.1055 17.7135 15.4286 17.7143H17.7143V15.4286C17.7143 15.1048 17.824 14.8331 18.0434 14.6137C18.2629 14.3943 18.5341 14.285 18.8571 14.2857C19.1809 14.2857 19.4526 14.3954 19.672 14.6149C19.8914 14.8343 20.0008 15.1055 20 15.4286V18.8571C20 19.1809 19.8903 19.4526 19.6709 19.672C19.4514 19.8914 19.1802 20.0008 18.8571 20H15.4286ZM18.8571 9.71429C18.5333 9.71429 18.2617 9.60457 18.0423 9.38514C17.8229 9.16572 17.7135 8.89448 17.7143 8.57143V6.28572H15.4286C15.1048 6.28572 14.8331 6.176 14.6137 5.95657C14.3943 5.73715 14.285 5.46591 14.2857 5.14286C14.2857 4.81905 14.3954 4.54743 14.6149 4.328C14.8343 4.10858 15.1055 3.99924 15.4286 4H18.8571C19.1809 4 19.4526 4.10972 19.672 4.32915C19.8914 4.54858 20.0008 4.81981 20 5.14286V8.57143C20 8.89524 19.8903 9.16686 19.6709 9.38629C19.4514 9.60572 19.1802 9.71505 18.8571 9.71429Z" fill="white"/>
</g>
</svg>
