<svg width="24" height="24" viewBox="0 0 24 24" fill="none" xmlns="http://www.w3.org/2000/svg">
<g opacity="0.7">
<path d="M2 21C1.45 21 0.979002 20.804 0.587002 20.412C0.195002 20.02 -0.000664969 19.5493 1.69779e-06 19V5C1.69779e-06 4.45 0.196002 3.979 0.588002 3.587C0.980002 3.195 1.45067 2.99934 2 3H22C22.55 3 23.021 3.196 23.413 3.588C23.805 3.98 24.0007 4.45067 24 5V19C24 19.55 23.804 20.021 23.412 20.413C23.02 20.805 22.5493 21.0007 22 21H2ZM9 14C9.83333 14 10.5417 13.7083 11.125 13.125C11.7083 12.5417 12 11.8333 12 11C12 10.1667 11.7083 9.45834 11.125 8.875C10.5417 8.29167 9.83333 8 9 8C8.16667 8 7.45834 8.29167 6.875 8.875C6.29167 9.45834 6 10.1667 6 11C6 11.8333 6.29167 12.5417 6.875 13.125C7.45834 13.7083 8.16667 14 9 14ZM15 11H20C20.2833 11 20.521 10.904 20.713 10.712C20.905 10.52 21.0007 10.2827 21 10V7C21 6.71667 20.904 6.479 20.712 6.287C20.52 6.095 20.2827 5.99934 20 6H15C14.7167 6 14.479 6.096 14.287 6.288C14.095 6.48 13.9993 6.71734 14 7V10C14 10.2833 14.096 10.521 14.288 10.713C14.48 10.905 14.7173 11.0007 15 11ZM2.1 19H15.9C15.2 17.75 14.2333 16.7707 13 16.062C11.7667 15.3533 10.4333 14.9993 9 15C7.56667 15 6.23334 15.3543 5 16.063C3.76667 16.7717 2.8 17.7507 2.1 19ZM17.5 9.75L15 8V7L17.5 8.75L20 7V8L17.5 9.75Z" fill="white"/>
</g>
</svg>
