<svg width="16" height="16" viewBox="0 0 16 16" fill="none" xmlns="http://www.w3.org/2000/svg">
<path d="M10.644 7.83088C10.6439 7.22728 10.4345 6.64238 10.0516 6.17583C9.66858 5.70929 9.13568 5.38996 8.54366 5.27227C7.95165 5.15458 7.33714 5.24581 6.80484 5.5304C6.27254 5.81499 5.85539 6.27535 5.62446 6.83303C5.39353 7.39071 5.3631 8.01121 5.53838 8.5888C5.71365 9.16639 6.08378 9.66535 6.58568 10.0006C7.08759 10.3359 7.69023 10.4868 8.29092 10.4276C8.89161 10.3684 9.45319 10.1027 9.87996 9.67588C10.122 9.44175 10.3144 9.16126 10.4457 8.85114C10.5769 8.54102 10.6444 8.20764 10.644 7.87088C10.644 7.85688 10.644 7.84388 10.644 7.82988V7.83088ZM12.053 7.83088C12.0497 8.75566 11.7261 9.65075 11.1372 10.3638C10.5484 11.0769 9.7306 11.5639 8.82311 11.7419C7.91563 11.92 6.97448 11.7781 6.15983 11.3404C5.34518 10.9027 4.70735 10.1963 4.35489 9.34127C4.00243 8.48628 3.95711 7.53558 4.22665 6.65094C4.49618 5.7663 5.06392 5.00239 5.83324 4.48919C6.60257 3.97599 7.52595 3.74522 8.44625 3.83614C9.36656 3.92706 10.2269 4.33406 10.881 4.98788C11.2526 5.34835 11.5479 5.77986 11.7494 6.25674C11.9509 6.73363 12.0545 7.24617 12.054 7.76388C12.054 7.78688 12.054 7.81188 12.054 7.83488L12.053 7.83088ZM13.153 3.65288C13.153 3.87039 13.0777 4.0812 12.9398 4.24937C12.8018 4.41755 12.6098 4.53268 12.3965 4.57515C12.1832 4.61762 11.9617 4.5848 11.7699 4.48228C11.5781 4.37975 11.4277 4.21388 11.3445 4.01292C11.2613 3.81197 11.2503 3.58837 11.3135 3.38023C11.3767 3.1721 11.51 2.99232 11.6909 2.87152C11.8718 2.75073 12.089 2.6964 12.3054 2.7178C12.5219 2.7392 12.7242 2.83501 12.878 2.98888C12.9638 3.07274 13.032 3.17292 13.0785 3.28351C13.125 3.39411 13.149 3.51289 13.149 3.63288V3.65188L13.153 3.65288ZM8.03996 1.40488H7.26096C6.78896 1.40155 6.43029 1.40155 6.18496 1.40488C5.93963 1.40822 5.61163 1.41855 5.20096 1.43588C4.83222 1.44812 4.46472 1.4852 4.10096 1.54688L4.14896 1.53988C3.89012 1.582 3.63594 1.64897 3.38996 1.73988L3.41796 1.73088C3.08531 1.86456 2.78279 2.0635 2.52826 2.31597C2.27373 2.56844 2.07234 2.86933 1.93596 3.20088L1.92896 3.21888C1.84536 3.44792 1.78342 3.68428 1.74396 3.92488V3.94888C1.68721 4.29155 1.6538 4.63768 1.64396 4.98488V4.99888C1.62729 5.41022 1.61696 5.73822 1.61296 5.98288C1.60896 6.22755 1.60896 6.58622 1.61296 7.05888C1.61629 7.53155 1.61796 7.79122 1.61796 7.83788C1.61796 7.88455 1.61529 8.14322 1.60996 8.61388C1.60663 9.08655 1.60663 9.44522 1.60996 9.68988C1.61329 9.93455 1.62363 10.2625 1.64096 10.6739C1.6532 11.0426 1.69028 11.4101 1.75196 11.7739L1.74496 11.7259C1.78707 11.9847 1.85405 12.2389 1.94496 12.4849L1.93596 12.4569C2.06964 12.7895 2.26858 13.0921 2.52105 13.3466C2.77352 13.6011 3.07441 13.8025 3.40596 13.9389L3.42396 13.9459C3.65299 14.0295 3.88936 14.0914 4.12996 14.1309H4.15396C4.49663 14.1876 4.84276 14.221 5.18996 14.2309H5.19996C5.61129 14.2475 5.93929 14.2579 6.18396 14.2619C6.42863 14.2659 6.78729 14.2659 7.25996 14.2619L8.03496 14.2459L8.81396 14.2509C9.28596 14.2542 9.64463 14.2542 9.88996 14.2509C10.1353 14.2476 10.4633 14.2372 10.874 14.2199C11.2427 14.2076 11.6102 14.1706 11.974 14.1089L11.926 14.1159C12.1848 14.0738 12.439 14.0068 12.685 13.9159L12.657 13.9249C12.9896 13.7912 13.2921 13.5923 13.5467 13.3398C13.8012 13.0873 14.0026 12.7864 14.139 12.4549L14.146 12.4369C14.2296 12.2078 14.2915 11.9715 14.331 11.7309V11.7069C14.3877 11.3642 14.4211 11.0181 14.431 10.6709V10.6569C14.4476 10.2456 14.458 9.91755 14.462 9.67288C14.466 9.42822 14.466 9.06955 14.462 8.59688C14.4586 8.12422 14.457 7.86455 14.457 7.81788C14.457 7.77122 14.4586 7.51155 14.462 7.03888C14.4653 6.56622 14.4653 6.20755 14.462 5.96288C14.4586 5.71822 14.4483 5.39022 14.431 4.97888C14.4187 4.61014 14.3816 4.24264 14.32 3.87888L14.327 3.92688C14.2848 3.66804 14.2179 3.41387 14.127 3.16788L14.136 3.19588C14.0023 2.86323 13.8033 2.56071 13.5509 2.30618C13.2984 2.05165 12.9975 1.85026 12.666 1.71388L12.648 1.70688C12.4189 1.62328 12.1826 1.56135 11.942 1.52188H11.918C11.5753 1.46513 11.2292 1.43172 10.882 1.42188H10.868C10.4566 1.40522 10.1286 1.39488 9.88396 1.39088C9.63929 1.38688 9.28063 1.38688 8.80796 1.39088L8.03996 1.40488ZM15.862 7.82688C15.862 9.38288 15.8446 10.4599 15.81 11.0579C15.81 11.1239 15.816 11.2009 15.816 11.2779C15.816 12.4265 15.3597 13.5281 14.5474 14.3404C13.7352 15.1526 12.6336 15.6089 11.485 15.6089C11.4076 15.6089 11.3306 15.6069 11.254 15.6029H11.264C10.664 15.6375 9.58696 15.6549 8.03296 15.6549C6.47896 15.6549 5.40263 15.6382 4.80396 15.6049C4.73796 15.6049 4.66096 15.6109 4.58396 15.6109C3.43565 15.6109 2.33435 15.1549 1.52219 14.3431C0.710026 13.5313 0.253491 12.4302 0.252961 11.2819C0.252961 11.2045 0.254961 11.1275 0.258961 11.0509V11.0609C0.226294 10.4635 0.209961 9.38688 0.209961 7.83088C0.209961 6.27488 0.225961 5.19955 0.257961 4.60488C0.257961 4.53888 0.251961 4.46188 0.251961 4.38488C0.251435 3.81579 0.363072 3.25218 0.58049 2.72625C0.797908 2.20033 1.11684 1.72241 1.51907 1.31982C1.92129 0.917223 2.39891 0.597846 2.92463 0.379943C3.45036 0.16204 4.01387 0.0498826 4.58296 0.0498828C4.66029 0.0498828 4.73729 0.0518828 4.81396 0.0558828H4.80396C5.40129 0.0218828 6.47796 0.00488281 8.03396 0.00488281C9.58996 0.00488281 10.667 0.0215495 11.265 0.0548828C11.331 0.0548828 11.408 0.0488828 11.485 0.0488828C12.6336 0.0488828 13.7352 0.505183 14.5474 1.3174C15.3597 2.12962 15.816 3.23123 15.816 4.37988C15.816 4.45722 15.814 4.53422 15.81 4.61088V4.60488C15.8446 5.20488 15.862 6.28188 15.862 7.83588V7.82688Z" fill="white"/>
</svg>
