<svg width="17" height="16" viewBox="0 0 17 16" fill="none" xmlns="http://www.w3.org/2000/svg">
<path d="M3.72101 5.0899V15.6579H0.200006V5.0899H3.72101ZM3.94501 1.8269C3.94501 1.8459 3.94501 1.8679 3.94501 1.8909C3.94529 2.12296 3.89755 2.35257 3.80478 2.56528C3.71202 2.77799 3.57625 2.96921 3.40601 3.1269C3.0365 3.46477 2.5537 3.65175 2.05301 3.6509H1.95301H1.93901H1.85001C1.35902 3.65179 0.886322 3.46465 0.529006 3.1279C0.361061 2.96497 0.227664 2.76986 0.136776 2.55424C0.0458883 2.33862 -0.000627073 2.1069 6.38385e-06 1.8729C6.38385e-06 1.8569 6.38385e-06 1.8419 6.38385e-06 1.8249C6.38385e-06 1.8109 6.38385e-06 1.7959 6.38385e-06 1.7799C-7.31506e-05 1.54443 0.0483677 1.31146 0.142308 1.09554C0.236247 0.879616 0.373671 0.685365 0.546006 0.524902C0.916375 0.188254 1.39951 0.00270855 1.90001 0.00490204H1.98901H2.08201C2.5708 0.00591245 3.04132 0.190835 3.40001 0.522902C3.57247 0.688844 3.70958 0.887968 3.80307 1.10829C3.89656 1.32861 3.9445 1.56557 3.94401 1.8049V1.8319L3.94501 1.8269ZM16.377 9.6049V15.6599H12.87V10.0049C12.87 9.9529 12.87 9.8929 12.87 9.8329C12.8716 9.26879 12.7177 8.71516 12.425 8.2329L12.433 8.2469C12.2926 8.05103 12.1074 7.89144 11.893 7.78136C11.6786 7.67128 11.441 7.61387 11.2 7.6139C11.161 7.6139 11.122 7.6139 11.083 7.6139H11.03C10.6415 7.61336 10.2644 7.7445 9.96001 7.9859C9.66406 8.22502 9.4327 8.53443 9.28701 8.8859L9.28201 8.9009C9.20223 9.15112 9.16208 9.41228 9.16301 9.6749C9.16301 9.70623 9.16301 9.73757 9.16301 9.7689V15.6619H5.66101C5.67567 12.8252 5.68301 10.5252 5.68301 8.7619C5.68301 6.99857 5.67934 5.94624 5.67201 5.6049L5.66201 5.0929H9.16901V6.6269H9.14801C9.27895 6.41533 9.42677 6.21468 9.59001 6.0269L9.58501 6.0329C9.76575 5.83339 9.96386 5.65034 10.177 5.4859L10.187 5.4779C10.4585 5.2697 10.7664 5.11403 11.095 5.0189H11.115C11.4957 4.90772 11.8904 4.85181 12.287 4.8529H12.336C12.382 4.8529 12.436 4.8529 12.491 4.8529C13.0122 4.85235 13.5279 4.95965 14.0057 5.16806C14.4834 5.37647 14.9129 5.68148 15.267 6.0639C16.0715 7.0615 16.4687 8.3265 16.379 9.6049H16.377Z" fill="white"/>
</svg>
