<svg width="110" height="16" viewBox="0 0 110 16" fill="none" xmlns="http://www.w3.org/2000/svg">
<path d="M0 15.8689V0H12.8545V1.98361H1.97762V15.8689H0Z" fill="#00ACDF"/>
<path d="M3.51578 15.8688V3.52637H12.8545V5.50998H5.49339V15.8688H3.51578Z" fill="#00ACDF"/>
<path d="M7.03159 15.8688V7.05273H12.8546V9.03634H9.0092V15.8688H7.03159Z" fill="#00ACDF"/>
<path d="M21.6088 15.7818H18.8511V2.44758H21.6088V4.3794C22.3779 3.04817 23.7138 2.22498 25.6003 2.22498V5.08137H24.8993C22.8668 5.08137 21.6088 5.92882 21.6088 8.76097V15.7818Z" fill="white"/>
<path d="M33.8743 16C30.052 16 27.2207 13.2891 27.2207 9.10039C27.2207 4.91167 29.9312 2.22498 33.8743 2.22498C37.6724 2.22498 40.3565 4.86979 40.3565 8.78521C40.3606 9.23813 40.3286 9.69066 40.2609 10.1385H30.0762C30.2696 12.3425 31.8418 13.6726 33.8743 13.6726C35.5674 13.6726 36.5111 12.8494 37.0187 11.8091H39.9917C39.2446 14.1355 37.1407 16 33.8743 16ZM30.1037 7.91463H37.4824C37.434 5.85608 35.8124 4.54911 33.7568 4.54911C31.8901 4.54911 30.3904 5.8076 30.1037 7.91463Z" fill="white"/>
<path d="M48.4373 2.22498C50.6873 2.22498 52.2365 3.29062 53.0583 4.3794V2.44317H55.8401V15.7774H53.0583V13.7938C52.2123 14.9311 50.6148 15.9978 48.3889 15.9978C44.9303 15.9978 42.1473 13.1657 42.1473 9.05521C42.1473 4.94472 44.9358 2.22498 48.4373 2.22498ZM49.0185 4.62184C46.9617 4.62184 44.9786 6.17126 44.9786 9.0519C44.9786 11.9325 46.9617 13.6032 49.0185 13.6032C51.0993 13.6032 53.0583 11.981 53.0583 9.10039C53.0583 6.24399 51.0993 4.62184 49.0185 4.62184Z" fill="white"/>
<path d="M67.3905 8.3258C67.3905 5.88045 66.06 4.62196 64.0528 4.62196C62.0202 4.62196 60.6897 5.88045 60.6897 8.3258V15.782H57.932V2.44771H60.6897V3.96737C61.5851 2.87749 63.0607 2.224 64.657 2.224C67.7784 2.224 70.124 4.18447 70.124 7.91365V15.7809H67.3905V8.3258Z" fill="white"/>
<path d="M91.0989 8.3258C91.0989 5.88045 89.7684 4.62196 87.76 4.62196C85.7275 4.62196 84.397 5.88045 84.397 8.3258V15.782H81.6635V8.3258C81.6635 5.88045 80.333 4.62196 78.3246 4.62196C76.2931 4.62196 74.9626 5.88045 74.9626 8.3258V15.782H72.2039V2.44771H74.9626V3.96737C75.857 2.87749 77.3083 2.224 78.9058 2.224C81.0097 2.224 82.7764 3.11993 83.696 4.86881C84.5178 3.24666 86.4053 2.22951 88.3401 2.22951C91.4614 2.22951 93.8335 4.18998 93.8335 7.91916V15.7864H91.0989V8.3258Z" fill="white"/>
<path d="M102.463 16C98.6644 16 95.7859 13.2891 95.7859 9.10039C95.7859 4.91167 98.7853 2.22498 102.583 2.22498C106.382 2.22498 109.382 4.91277 109.382 9.10039C109.382 13.288 106.285 16 102.463 16ZM102.463 13.6032C104.519 13.6032 106.552 12.1265 106.552 9.10039C106.552 6.07428 104.594 4.62184 102.535 4.62184C100.455 4.62184 98.5919 6.07428 98.5919 9.10039C98.5919 12.1265 100.383 13.6032 102.463 13.6032Z" fill="white"/>
</svg>
