<svg width="119" height="32" viewBox="0 0 119 32" fill="none" xmlns="http://www.w3.org/2000/svg">
<path d="M24.5459 6.07098C24.5138 6.41621 24.5568 6.7643 24.672 7.09132C24.7872 7.41833 24.9719 7.7165 25.2134 7.9653C25.4549 8.2141 25.7474 8.40762 26.0708 8.53255C26.3943 8.65748 26.7409 8.71085 27.0869 8.68898C27.4395 8.71111 27.7927 8.65711 28.1225 8.53065C28.4523 8.4042 28.7511 8.20825 28.9985 7.95611C29.2459 7.70397 29.4361 7.40154 29.5563 7.06937C29.6765 6.73719 29.7238 6.38305 29.6949 6.03098C29.7252 5.68333 29.6795 5.33325 29.5611 5.00501C29.4426 4.67677 29.2542 4.37821 29.0088 4.13003C28.7635 3.88185 28.4672 3.68998 28.1403 3.56772C27.8135 3.44546 27.4639 3.39573 27.1159 3.42198C26.766 3.40046 26.4156 3.45489 26.0886 3.58152C25.7617 3.70816 25.4661 3.90401 25.2219 4.15564C24.9778 4.40727 24.791 4.70872 24.6743 5.03933C24.5576 5.36993 24.5138 5.72186 24.5459 6.07098ZM27.1149 4.39698C28.0799 4.39698 28.2079 5.31298 28.2079 5.97198C28.2079 7.29098 27.7739 7.67198 27.1349 7.67198C26.4159 7.67198 26.0419 7.18998 26.0419 6.07198C26.0419 5.62798 26.0559 4.39698 27.1149 4.39698Z" fill="white"/>
<path d="M28.4749 1.45398H27.4709V2.61498H28.4749V1.45398Z" fill="white"/>
<path d="M26.781 1.45398H25.777V2.61498H26.781V1.45398Z" fill="white"/>
<path d="M32.1169 4.47605L32.0869 3.52105H30.7189C30.7489 3.80605 30.7879 4.52105 30.7879 4.76105V8.51205H32.2449V6.06105C32.2449 5.44105 32.3349 4.68305 33.8109 4.82105V3.51205C33.46 3.44463 33.0966 3.50469 32.786 3.68142C32.4755 3.85815 32.2382 4.13994 32.1169 4.47605Z" fill="white"/>
<path d="M37.71 1.40405V4.15005C37.5541 3.92668 37.3435 3.74699 37.0985 3.62813C36.8534 3.50926 36.5819 3.45518 36.31 3.47105C35.01 3.47105 34.11 4.49505 34.11 6.13805C34.11 7.69405 34.898 8.61005 36.227 8.61005C36.5667 8.62058 36.9021 8.5316 37.192 8.35405C37.4087 8.21857 37.5822 8.02392 37.692 7.79305L37.732 8.51205H39.216C39.197 8.32505 39.177 8.00005 39.177 7.70505V1.40505L37.71 1.40405ZM37.524 7.10405C37.4351 7.27263 37.3021 7.41389 37.1392 7.51271C36.9763 7.61153 36.7895 7.66418 36.599 7.66505C35.871 7.66505 35.599 6.92605 35.599 6.10005C35.599 5.60005 35.707 4.42605 36.682 4.42605C37.341 4.42605 37.765 4.95705 37.765 5.93205C37.7751 6.33599 37.6926 6.73688 37.524 7.10405Z" fill="white"/>
<path d="M42.642 3.37301C42.1445 3.36864 41.657 3.51279 41.242 3.78701C40.8895 4.064 40.6109 4.42366 40.4307 4.8341C40.2505 5.24454 40.1743 5.6931 40.2089 6.14001C40.1609 6.84512 40.3906 7.54106 40.849 8.07901C41.3298 8.50624 41.9584 8.72904 42.601 8.70001C43.2354 8.74295 43.8613 8.53421 44.343 8.11901C44.6275 7.82784 44.7957 7.44264 44.816 7.03601H43.489C43.458 7.23913 43.3515 7.42308 43.1907 7.55102C43.03 7.67896 42.8268 7.74146 42.622 7.72601C41.608 7.72601 41.608 6.72601 41.608 6.39701H44.9449C45.0004 5.77442 44.8972 5.14793 44.645 4.57601C44.4641 4.20253 44.1784 3.88985 43.8226 3.6762C43.4669 3.46254 43.0566 3.35719 42.642 3.37301ZM41.657 5.48201C41.687 4.90101 41.957 4.36901 42.592 4.36901C43.439 4.36901 43.458 5.25501 43.458 5.48201H41.657Z" fill="white"/>
<path d="M47.3669 8.51305V6.06105C47.3669 5.44105 47.4559 4.68305 48.9319 4.82105V3.51205C48.5811 3.44495 48.2178 3.50528 47.9074 3.68218C47.597 3.85909 47.36 4.14095 47.2389 4.47705L47.2089 3.52205H45.8409C45.8709 3.80705 45.9099 4.52205 45.9099 4.76205V8.51405L47.3669 8.51305Z" fill="white"/>
<path d="M52.7919 4.22104C52.6473 3.9875 52.4415 3.79799 52.1968 3.67302C51.9521 3.54805 51.678 3.49238 51.4039 3.51204C51.098 3.52084 50.7972 3.59312 50.5207 3.72431C50.2441 3.85549 49.9978 4.04272 49.7975 4.27411C49.5971 4.5055 49.447 4.77601 49.3567 5.06847C49.2664 5.36093 49.2379 5.66897 49.2729 5.97304C49.2396 6.27329 49.2685 6.57718 49.3578 6.86579C49.447 7.15439 49.5947 7.42152 49.7918 7.65052C49.9888 7.87953 50.2308 8.06551 50.5029 8.19687C50.7749 8.32823 51.0711 8.40215 51.3729 8.41404C51.635 8.42227 51.895 8.36438 52.1288 8.24572C52.3626 8.12705 52.5628 7.95143 52.711 7.73504C52.7318 8.13005 52.7087 8.52615 52.642 8.91604C52.5946 9.11538 52.4769 9.29093 52.3104 9.41036C52.144 9.52979 51.9399 9.58508 51.7359 9.56604C50.9589 9.56604 50.8889 9.02404 50.8699 8.87704H49.4729C49.5619 10.383 50.95 10.472 51.658 10.472C52.613 10.472 54.1389 10.295 54.1389 8.46404V4.79204C54.1388 4.38107 54.1618 3.97042 54.2079 3.56204H52.84L52.7919 4.22104ZM51.7089 7.42104C50.7349 7.42104 50.7349 6.22104 50.7349 5.97404C50.7349 4.91004 51.1879 4.48704 51.7349 4.48704C52.6209 4.48704 52.7349 5.44204 52.7349 6.00304C52.7339 6.21904 52.7339 7.42104 51.7089 7.42104Z" fill="white"/>
<path d="M57.519 3.37304C57.0215 3.36868 56.534 3.51282 56.119 3.78704C55.7665 4.06403 55.4879 4.42369 55.3077 4.83413C55.1275 5.24457 55.0513 5.69313 55.086 6.14004C55.0379 6.84516 55.2676 7.54109 55.726 8.07904C56.2068 8.50628 56.8354 8.72907 57.478 8.70004C58.1124 8.74298 58.7383 8.53425 59.22 8.11904C59.5048 7.82802 59.673 7.44274 59.693 7.03604H58.365C58.334 7.23916 58.2275 7.42311 58.0668 7.55105C57.906 7.67899 57.7028 7.74149 57.498 7.72604C56.484 7.72604 56.484 6.72604 56.484 6.39704H59.821C59.8786 5.77485 59.7771 5.14821 59.526 4.57604C59.3449 4.20192 59.0585 3.8888 58.702 3.67511C58.3454 3.46141 57.9343 3.35643 57.519 3.37304ZM56.534 5.48204C56.564 4.90104 56.834 4.36904 57.469 4.36904C58.316 4.36904 58.335 5.25504 58.335 5.48204H56.534Z" fill="white"/>
<path d="M62.629 7.754C62.5292 7.7691 62.4274 7.76306 62.3301 7.73629C62.2329 7.70951 62.1423 7.6626 62.0643 7.59858C61.9864 7.53456 61.9227 7.45486 61.8775 7.36467C61.8323 7.27447 61.8066 7.17578 61.802 7.075H60.434C60.4281 7.43396 60.5581 7.78187 60.798 8.049C61.0236 8.2629 61.2912 8.42758 61.5839 8.53258C61.8765 8.63759 62.1878 8.68064 62.498 8.659C64.044 8.659 64.782 7.803 64.782 6.947C64.782 6.267 64.359 5.805 63.454 5.559L62.554 5.313C62.12 5.195 61.875 5.126 61.875 4.791C61.875 4.485 62.17 4.299 62.564 4.299C62.6501 4.28562 62.7381 4.29074 62.8222 4.31402C62.9062 4.33731 62.9843 4.37822 63.0513 4.43404C63.1183 4.48985 63.1726 4.5593 63.2106 4.63774C63.2487 4.71619 63.2696 4.80184 63.272 4.889H64.606C64.566 3.895 63.74 3.422 62.716 3.422C61.426 3.422 60.541 4.013 60.541 4.978C60.5519 5.32046 60.685 5.6477 60.9163 5.90047C61.1476 6.15324 61.4618 6.31483 61.802 6.356L62.707 6.602C63.279 6.76 63.396 6.936 63.396 7.163C63.396 7.459 63.15 7.754 62.629 7.754Z" fill="white"/>
<path d="M67.9139 3.37302C67.4164 3.36828 66.9289 3.51246 66.5139 3.78702C66.1613 4.0639 65.8825 4.42351 65.7021 4.83396C65.5217 5.24441 65.4454 5.69302 65.4799 6.14002C65.4319 6.84513 65.6616 7.54106 66.1199 8.07902C66.6012 8.50631 67.2301 8.72909 67.8729 8.70002C68.5074 8.74296 69.1333 8.53422 69.6149 8.11902C69.8994 7.82779 70.0676 7.44263 70.0879 7.03602H68.7589C68.7282 7.23906 68.6219 7.42299 68.4613 7.55095C68.3007 7.67891 68.0977 7.74144 67.8929 7.72602C66.8789 7.72602 66.8789 6.72602 66.8789 6.39702H70.216C70.2736 5.77483 70.1721 5.14819 69.9209 4.57602C69.7397 4.20198 69.4533 3.88893 69.0968 3.67525C68.7403 3.46157 68.3292 3.35653 67.9139 3.37302ZM66.9299 5.48202C66.9599 4.90102 67.2299 4.36902 67.8649 4.36902C68.7119 4.36902 68.7309 5.25502 68.7309 5.48202H66.9299Z" fill="white"/>
<path d="M72.64 1.39502H71.183V8.51302H72.64V1.39502Z" fill="white"/>
<path d="M75.3759 1.39502H73.9189V8.51302H75.3759V1.39502Z" fill="white"/>
<path d="M78.496 7.754C78.3962 7.7691 78.2944 7.76306 78.1971 7.73629C78.0999 7.70951 78.0093 7.6626 77.9313 7.59858C77.8534 7.53456 77.7897 7.45486 77.7445 7.36467C77.6993 7.27447 77.6736 7.17578 77.669 7.075H76.301C76.2943 7.4341 76.4244 7.78229 76.665 8.049C76.8906 8.26295 77.1582 8.42766 77.4509 8.53267C77.7435 8.63768 78.0548 8.6807 78.365 8.659C79.911 8.659 80.649 7.803 80.649 6.947C80.649 6.267 80.226 5.805 79.32 5.559L78.42 5.313C77.986 5.195 77.74 5.126 77.74 4.791C77.74 4.485 78.04 4.299 78.429 4.299C78.5151 4.28562 78.6031 4.29074 78.6872 4.31402C78.7712 4.33731 78.8493 4.37822 78.9163 4.43404C78.9833 4.48985 79.0376 4.5593 79.0756 4.63774C79.1137 4.71619 79.1346 4.80184 79.137 4.889H80.466C80.426 3.895 79.599 3.422 78.576 3.422C77.285 3.422 76.401 4.013 76.401 4.978C76.4117 5.32052 76.5448 5.64787 76.7761 5.90068C77.0075 6.1535 77.3217 6.31503 77.662 6.356L78.567 6.602C79.138 6.76 79.256 6.936 79.256 7.163C79.264 7.459 79.018 7.754 78.496 7.754Z" fill="white"/>
<path d="M83.5649 4.38699C84.1269 4.38699 84.186 5.12599 84.206 5.30299H85.6329C85.6335 5.04407 85.5802 4.78786 85.4762 4.55071C85.3723 4.31357 85.22 4.1007 85.0292 3.92569C84.8384 3.75068 84.6132 3.61736 84.3679 3.53425C84.1227 3.45114 83.8628 3.42006 83.6049 3.44299C83.2752 3.43441 82.9475 3.4974 82.6444 3.62761C82.3413 3.75783 82.07 3.95218 81.8492 4.19728C81.6285 4.44239 81.4635 4.73243 81.3655 5.04743C81.2676 5.36243 81.2391 5.69491 81.2819 6.02199C81.2451 6.72992 81.4689 7.42682 81.9109 7.98099C82.1258 8.21058 82.3895 8.38898 82.6825 8.50304C82.9755 8.6171 83.2904 8.6639 83.6039 8.63999C84.116 8.66916 84.6202 8.50499 85.0169 8.17999C85.2248 7.99744 85.3899 7.77137 85.5005 7.51783C85.6111 7.26429 85.6645 6.98951 85.6569 6.71299H84.2189C84.1599 7.59899 83.7069 7.66799 83.5489 7.66799C83.4752 7.6709 83.4017 7.65743 83.3337 7.62855C83.2658 7.59968 83.2051 7.55612 83.156 7.50099C82.8883 7.03876 82.7617 6.50828 82.792 5.97499C82.797 5.43099 82.8769 4.38699 83.5649 4.38699Z" fill="white"/>
<path d="M86.3439 1.40405V8.51205H87.8109L87.8009 5.47005C87.7852 5.33985 87.7979 5.20778 87.8382 5.08298C87.8785 4.95817 87.9454 4.84361 88.0343 4.74719C88.1232 4.65077 88.232 4.57481 88.3531 4.52454C88.4743 4.47428 88.6049 4.45091 88.7359 4.45605C89.5529 4.45605 89.5529 5.25605 89.5529 5.53905V8.51205H90.9999V5.48905C91.0287 5.01702 90.9155 4.54718 90.6749 4.14005C90.5019 3.9242 90.2812 3.75138 90.0301 3.63513C89.7791 3.51889 89.5045 3.46238 89.2279 3.47005C88.9434 3.45601 88.6603 3.51788 88.4076 3.64933C88.1549 3.78077 87.9418 3.97705 87.7899 4.21805V1.40405H86.3439Z" fill="white"/>
<path d="M92.0919 7.14306C92.0864 7.55015 92.2424 7.94285 92.5259 8.23506C92.7299 8.39149 92.9631 8.50541 93.2118 8.57009C93.4605 8.63476 93.7197 8.64886 93.974 8.61157C94.2283 8.57427 94.4725 8.48632 94.6922 8.35294C94.9119 8.21956 95.1025 8.04346 95.2529 7.83506C95.2499 8.06271 95.2663 8.2902 95.3019 8.51506H96.6209C96.5372 8.10006 96.4977 7.67738 96.5029 7.25406L96.4929 5.25406C96.5162 4.8201 96.3949 4.39068 96.1479 4.03306C95.9114 3.81179 95.6323 3.64094 95.3277 3.53092C95.0231 3.42089 94.6993 3.37399 94.3759 3.39306C93.8448 3.36929 93.3192 3.50889 92.8699 3.79306C92.6887 3.92853 92.5429 4.10592 92.4452 4.31003C92.3475 4.51415 92.3008 4.73891 92.3089 4.96506H93.7359C93.7251 4.80963 93.7632 4.65469 93.8449 4.52206C93.9076 4.43488 93.9904 4.36422 94.0864 4.31615C94.1824 4.26807 94.2886 4.24402 94.3959 4.24606C94.5335 4.24027 94.6695 4.27675 94.7857 4.35058C94.9019 4.42442 94.9927 4.53207 95.0459 4.65906C95.1063 4.87319 95.1296 5.09606 95.1149 5.31806C94.4469 5.282 93.7783 5.37573 93.1459 5.59406C92.8341 5.71516 92.5663 5.92809 92.3781 6.20469C92.1899 6.48129 92.0901 6.80851 92.0919 7.14306ZM95.1149 6.16906C95.1724 6.59884 95.0745 7.03503 94.8389 7.39906C94.7619 7.48799 94.6667 7.55942 94.5597 7.60857C94.4528 7.65773 94.3366 7.68346 94.2189 7.68406C94.1249 7.68741 94.0312 7.67137 93.9437 7.63693C93.8562 7.60249 93.7767 7.55038 93.7101 7.48386C93.6436 7.41735 93.5915 7.33784 93.5571 7.2503C93.5226 7.16276 93.5066 7.06907 93.5099 6.97506C93.5109 6.38606 94.1799 6.09006 95.1149 6.16906Z" fill="white"/>
<path d="M100.086 2.31098C100.189 2.31243 100.291 2.32247 100.392 2.34098V1.32598C100.131 1.29354 99.868 1.27717 99.6049 1.27698C98.1869 1.27698 97.8919 1.98598 97.8919 2.86198V3.54098H97.1539V4.57498H97.8919V8.51398H99.3389V4.57498H100.265V4.53498H100.197V3.56998H100.265V3.53998H99.3389V2.95798C99.3379 2.70498 99.3379 2.31098 100.086 2.31098Z" fill="white"/>
<path d="M100.195 4.53494H101.15V7.26194C101.15 7.67494 101.15 8.60094 102.617 8.60094C102.999 8.5966 103.38 8.54351 103.749 8.44294V7.48794C103.586 7.50906 103.421 7.51908 103.257 7.51794C102.607 7.51794 102.607 7.23194 102.598 6.77894V4.53594H103.78V3.57094H102.598V2.06494L101.151 2.59594V3.56994H100.196V4.53494H100.195Z" fill="white"/>
<path d="M21.68 17.005L20.58 11.679H19.002L20.734 18.787H22.467L23.855 13.352L25.145 18.787H26.838L28.65 11.679H27.19L26.04 17.005L24.79 11.679H23.068L21.68 17.005Z" fill="white"/>
<path d="M28.72 16.394C28.6712 17.0992 28.901 17.7954 29.36 18.333C29.841 18.7599 30.4694 18.9826 31.112 18.954C31.7464 18.9967 32.3722 18.788 32.854 18.373C33.1388 18.0821 33.3071 17.6967 33.327 17.29H31.9969C31.966 17.4929 31.8596 17.6766 31.699 17.8043C31.5385 17.9321 31.3356 17.9945 31.131 17.979C30.117 17.979 30.117 16.979 30.117 16.65H33.4539C33.5094 16.0274 33.4062 15.4009 33.154 14.829C32.9724 14.4552 32.6857 14.1425 32.329 13.9294C31.9723 13.7162 31.5611 13.6118 31.146 13.629C30.6485 13.6247 30.161 13.7688 29.7459 14.043C29.3951 14.3206 29.118 14.6802 28.939 15.0903C28.7601 15.5003 28.6848 15.948 28.72 16.394ZM31.1019 14.622C31.9489 14.622 31.968 15.508 31.968 15.734H30.168C30.196 15.154 30.4619 14.622 31.1019 14.622Z" fill="white"/>
<path d="M36.26 18.0091C36.1601 18.0242 36.0582 18.0181 35.9609 17.9913C35.8636 17.9644 35.773 17.9174 35.695 17.8533C35.617 17.7892 35.5533 17.7094 35.5082 17.619C35.4631 17.5287 35.4374 17.4299 35.433 17.3291H34.065C34.059 17.688 34.189 18.036 34.429 18.3031C34.6546 18.5171 34.9221 18.6819 35.2148 18.7871C35.5074 18.8923 35.8187 18.9355 36.129 18.9141C37.675 18.9141 38.413 18.0571 38.413 17.1991C38.413 16.5201 37.99 16.058 37.084 15.812L36.184 15.5661C35.75 15.4481 35.504 15.3791 35.504 15.0441C35.504 14.7381 35.804 14.5511 36.193 14.5511C36.2792 14.5377 36.3674 14.5428 36.4515 14.5662C36.5357 14.5895 36.6139 14.6305 36.681 14.6864C36.748 14.7423 36.8024 14.8118 36.8405 14.8904C36.8786 14.969 36.8996 15.0548 36.902 15.1421H38.231C38.192 14.1481 37.365 13.675 36.341 13.675C35.051 13.675 34.166 14.2661 34.166 15.2311C34.1766 15.5734 34.3096 15.9006 34.5407 16.1534C34.7719 16.4062 35.0859 16.5679 35.426 16.6091L36.331 16.855C36.903 17.013 37.021 17.189 37.021 17.416C37.029 17.713 36.783 18.0091 36.26 18.0091Z" fill="white"/>
<path d="M39.6659 13.826H38.7109V14.79H39.6659V17.517C39.6659 17.93 39.6659 18.856 41.1329 18.856C41.5155 18.8516 41.8959 18.7985 42.2649 18.698V17.743C42.1018 17.7641 41.9374 17.7741 41.7729 17.773C41.1229 17.773 41.1229 17.488 41.1129 17.035V14.79H42.2939V13.826H41.1129V12.319L39.6659 12.85V13.826Z" fill="white"/>
<path d="M44.6079 14.434L44.5589 13.794H43.1509C43.1809 14.109 43.1999 14.414 43.1999 14.729V18.765H44.6669V15.842C44.6669 15.508 44.6669 14.72 45.5819 14.72C46.3889 14.72 46.3989 15.429 46.3989 15.813V18.766H47.8659V16.275C47.8659 15.537 47.8859 14.72 48.7659 14.72C49.5239 14.72 49.6029 15.311 49.6029 15.842V18.766H51.0689V15.96C51.1176 15.4582 51.0328 14.9525 50.8229 14.494C50.6693 14.2332 50.4462 14.0203 50.1784 13.879C49.9107 13.7377 49.609 13.6737 49.3069 13.694C48.9792 13.6721 48.6524 13.7484 48.3683 13.9131C48.0842 14.0779 47.8556 14.3237 47.7119 14.619C47.5876 14.3145 47.3676 14.0586 47.0852 13.8899C46.8027 13.7213 46.4731 13.649 46.1459 13.684C45.8463 13.663 45.5464 13.7212 45.2764 13.8528C45.0064 13.9845 44.7758 14.185 44.6079 14.434Z" fill="white"/>
<path d="M56.1649 11.708H55.1609V12.87H56.1649V11.708Z" fill="white"/>
<path d="M53.8909 16.758V13.791H52.4139V16.882C52.3821 17.3508 52.4956 17.818 52.7389 18.22C52.9226 18.4372 53.1528 18.6102 53.4125 18.7262C53.6722 18.8422 53.9546 18.8982 54.2389 18.89C54.5315 18.9026 54.822 18.8361 55.0799 18.6977C55.3379 18.5592 55.5538 18.3538 55.7049 18.103L55.7539 18.762H57.1709C57.1519 18.625 57.1409 18.536 57.1309 18.398C57.1209 18.26 57.1209 18.143 57.1009 17.069V13.791H55.6009V16.302C55.6009 17.149 55.6009 17.848 54.6659 17.848C53.8909 17.85 53.8909 17.191 53.8909 16.758Z" fill="white"/>
<path d="M54.472 11.708H53.468V12.87H54.472V11.708Z" fill="white"/>
<path d="M59.9049 14.524L59.8659 13.776H58.4659C58.4959 14.121 58.4959 14.662 58.4959 14.682V18.767H59.9629V15.853C59.9467 15.5884 60.0082 15.3249 60.1399 15.095C60.2252 14.9738 60.3389 14.8754 60.4711 14.8085C60.6032 14.7415 60.7498 14.708 60.8979 14.711C61.0442 14.7055 61.1889 14.7425 61.3146 14.8176C61.4403 14.8927 61.5415 15.0026 61.6059 15.134C61.6746 15.3059 61.7016 15.4916 61.6849 15.676V18.767H63.1709V16.079C63.2164 15.5791 63.1699 15.0751 63.0339 14.592C62.9127 14.2957 62.7007 14.0456 62.4282 13.8775C62.1558 13.7095 61.8371 13.6323 61.5179 13.657C61.1947 13.6351 60.872 13.7049 60.5866 13.8583C60.3013 14.0116 60.065 14.2424 59.9049 14.524Z" fill="white"/>
<path d="M64.247 15.232C64.2577 15.5745 64.3908 15.9018 64.6221 16.1546C64.8535 16.4074 65.1678 16.569 65.508 16.61L66.414 16.856C66.986 17.014 67.103 17.19 67.103 17.417C67.103 17.717 66.857 18.008 66.335 18.008C66.2352 18.0231 66.1333 18.017 66.0359 17.9902C65.9386 17.9633 65.848 17.9163 65.77 17.8522C65.692 17.7881 65.6284 17.7083 65.5832 17.6179C65.5381 17.5276 65.5125 17.4288 65.508 17.328H64.139C64.1331 17.6869 64.2631 18.0348 64.503 18.302C64.7286 18.5159 64.9962 18.6807 65.2888 18.7859C65.5815 18.8911 65.8928 18.9343 66.203 18.913C67.748 18.913 68.487 18.056 68.487 17.198C68.487 16.519 68.064 16.057 67.158 15.811L66.258 15.565C65.824 15.447 65.578 15.378 65.578 15.043C65.578 14.737 65.878 14.55 66.267 14.55C66.3533 14.5364 66.4415 14.5414 66.5257 14.5647C66.6099 14.588 66.6882 14.629 66.7553 14.6849C66.8224 14.7408 66.8768 14.8105 66.9149 14.8891C66.9529 14.9677 66.9738 15.0536 66.976 15.141H68.305C68.265 14.147 67.439 13.674 66.415 13.674C65.133 13.676 64.247 14.265 64.247 15.232Z" fill="white"/>
<path d="M69.74 13.826H68.785V14.79H69.74V17.517C69.74 17.93 69.74 18.856 71.207 18.856C71.5895 18.8516 71.9699 18.7985 72.339 18.698V17.743C72.1758 17.7641 72.0115 17.7741 71.847 17.773C71.197 17.773 71.197 17.488 71.188 17.035V14.79H72.369V13.826H71.188V12.319L69.74 12.85V13.826Z" fill="white"/>
<path d="M72.822 16.394C72.7732 17.0992 73.003 17.7954 73.462 18.333C73.9434 18.7599 74.5721 18.9827 75.215 18.954C75.8494 18.9967 76.4752 18.788 76.957 18.373C77.2414 18.0818 77.4097 17.6966 77.43 17.29H76.101C76.0703 17.493 75.9639 17.6768 75.8033 17.8046C75.6427 17.9324 75.4396 17.9947 75.235 17.979C74.221 17.979 74.221 16.979 74.221 16.65H77.558C77.6155 16.0278 77.514 15.4012 77.263 14.829C77.0812 14.4552 76.7943 14.1426 76.4374 13.9294C76.0806 13.7163 75.6693 13.6119 75.254 13.629C74.7565 13.6246 74.2691 13.7688 73.854 14.043C73.502 14.3199 73.2237 14.6793 73.0437 15.0894C72.8637 15.4994 72.7876 15.9475 72.822 16.394ZM75.205 14.622C76.052 14.622 76.071 15.508 76.071 15.734H74.271C74.299 15.154 74.565 14.622 75.205 14.622Z" fill="white"/>
<path d="M79.851 14.73L79.821 13.775H78.452C78.482 14.06 78.521 14.775 78.521 15.015V18.765H79.978V16.315C79.978 15.695 80.066 14.937 81.543 15.075V13.766C81.1924 13.6991 80.8294 13.7594 80.5193 13.9361C80.2091 14.1128 79.9722 14.3943 79.851 14.73Z" fill="white"/>
<path d="M83.417 11.649H81.96V18.766H83.417V11.649Z" fill="white"/>
<path d="M84.687 15.222H86.114C86.1031 15.0667 86.1408 14.9119 86.222 14.779C86.2846 14.6919 86.3675 14.6212 86.4634 14.5731C86.5594 14.5251 86.6656 14.501 86.773 14.503C86.9105 14.4973 87.0465 14.5337 87.1628 14.6076C87.279 14.6814 87.3698 14.789 87.423 14.916C87.4838 15.1301 87.5072 15.353 87.492 15.575C86.824 15.5393 86.1554 15.6331 85.523 15.851C85.2118 15.9721 84.9446 16.1847 84.7566 16.4606C84.5686 16.7366 84.4687 17.0631 84.47 17.397C84.467 17.5988 84.5038 17.7992 84.5782 17.9867C84.6527 18.1743 84.7634 18.3453 84.904 18.49C85.1078 18.6464 85.3409 18.7604 85.5896 18.825C85.8382 18.8897 86.0973 18.9038 86.3515 18.8665C86.6057 18.8292 86.8499 18.7412 87.0695 18.6079C87.2891 18.4745 87.4797 18.2984 87.63 18.09C87.6269 18.3174 87.6433 18.5445 87.679 18.769H88.998C88.9145 18.3544 88.8749 17.932 88.88 17.509L88.87 15.509C88.8933 15.0752 88.7723 14.6459 88.526 14.288C88.2894 14.0668 88.0103 13.896 87.7057 13.786C87.4011 13.676 87.0773 13.629 86.754 13.648C86.2229 13.6243 85.6973 13.7639 85.248 14.048C85.0659 14.1832 84.9196 14.3608 84.8219 14.5655C84.7241 14.7701 84.6778 14.9955 84.687 15.222ZM87.217 17.653C87.1399 17.7421 87.0448 17.8137 86.9379 17.863C86.8309 17.9123 86.7147 17.9383 86.597 17.939C86.5031 17.9421 86.4096 17.9259 86.3222 17.8913C86.2349 17.8567 86.1555 17.8046 86.0891 17.7381C86.0228 17.6717 85.9707 17.5923 85.9363 17.5049C85.9019 17.4175 85.8858 17.3239 85.889 17.23C85.889 16.64 86.559 16.344 87.494 16.423C87.55 16.853 87.4515 17.289 87.216 17.653H87.217Z" fill="white"/>
<path d="M91.592 14.524L91.552 13.776H90.152C90.182 14.121 90.182 14.662 90.182 14.682V18.767H91.649V15.853C91.633 15.5885 91.6945 15.3251 91.826 15.095C91.9109 14.9735 92.0246 14.8749 92.1568 14.8079C92.289 14.7409 92.4358 14.7077 92.584 14.711C92.7302 14.7058 92.8748 14.7429 93.0004 14.818C93.1261 14.893 93.2273 15.0028 93.292 15.134C93.3602 15.3061 93.3873 15.4917 93.371 15.676V18.767H94.857V16.079C94.9023 15.5791 94.8555 15.0751 94.719 14.592C94.5979 14.2957 94.3859 14.0454 94.1134 13.8774C93.8409 13.7094 93.5221 13.6322 93.203 13.657C92.8801 13.6353 92.5576 13.7052 92.2726 13.8586C91.9877 14.0119 91.7517 14.2426 91.592 14.524Z" fill="white"/>
<path d="M95.879 16.394C95.879 17.95 96.666 18.865 97.996 18.865C98.3356 18.8759 98.671 18.7873 98.961 18.61C99.1777 18.4745 99.3511 18.2798 99.461 18.049L99.501 18.767H100.978C100.958 18.581 100.938 18.255 100.938 17.96V11.66H99.471V14.407C99.3152 14.1835 99.1047 14.0036 98.8596 13.8845C98.6145 13.7655 98.343 13.7113 98.071 13.727C96.774 13.727 95.879 14.75 95.879 16.394ZM98.438 14.681C99.098 14.681 99.521 15.212 99.521 16.187C99.5324 16.5907 99.4514 16.9916 99.284 17.359C99.1951 17.5276 99.0621 17.6689 98.8992 17.7677C98.7363 17.8665 98.5495 17.9192 98.359 17.92C97.631 17.92 97.359 17.182 97.359 16.355C97.355 15.852 97.464 14.681 98.438 14.681Z" fill="white"/>
<path d="M21.6189 29.021V24.28H21.0809V26.04H21.0609C20.9844 25.916 20.877 25.8139 20.7493 25.7438C20.6215 25.6736 20.4777 25.6379 20.3319 25.64C19.2619 25.64 19.2319 26.592 19.2319 27.419C19.2319 28.876 19.7699 29.086 20.3019 29.086C20.4595 29.0909 20.6151 29.0501 20.7501 28.9687C20.8851 28.8873 20.9937 28.7687 21.0629 28.627H21.0799V29.02H21.6179L21.6189 29.021ZM20.4769 28.647C19.8009 28.647 19.8009 27.925 19.8009 27.426C19.8009 26.539 19.8799 26.08 20.4579 26.08C21.0579 26.08 21.0819 26.789 21.0819 27.229C21.0809 27.898 21.0809 28.647 20.4769 28.647Z" fill="white"/>
<path d="M24.999 27.255C24.999 26.155 24.762 25.64 23.817 25.64C22.668 25.64 22.556 26.44 22.556 27.412C22.556 28.876 23.114 29.087 23.817 29.087C23.9671 29.11 24.1204 29.0988 24.2656 29.0543C24.4108 29.0098 24.5441 28.9332 24.6556 28.8301C24.767 28.727 24.8538 28.6 24.9095 28.4588C24.9651 28.3175 24.9882 28.1655 24.977 28.014H24.377C24.3811 28.0936 24.3694 28.1731 24.3425 28.2481C24.3156 28.3231 24.274 28.3919 24.2202 28.4507C24.1664 28.5094 24.1015 28.5568 24.0291 28.5902C23.9568 28.6236 23.8786 28.6422 23.799 28.645C23.379 28.645 23.129 28.461 23.129 27.536H24.993V27.254L24.999 27.255ZM23.134 27.13C23.14 26.211 23.423 26.047 23.764 26.047C24.158 26.047 24.428 26.165 24.428 27.13H23.134Z" fill="white"/>
<path d="M25.9089 25.705V29.021H26.4469V27.064C26.4469 26.618 26.5979 26.164 27.1949 26.164C27.2435 26.1649 27.292 26.1692 27.3399 26.177L27.4839 26.196V25.639C26.9589 25.639 26.6839 25.698 26.4599 26.203H26.4469V25.703H25.9089V25.705Z" fill="white"/>
<path d="M32.497 29.021V24.28H31.897V26.329H30.234V24.28H29.634V29.021H30.234V26.854H31.897V29.021H32.497Z" fill="white"/>
<path d="M33.45 27.414C33.45 28.878 34.0079 29.088 34.7109 29.088C35.4139 29.088 35.972 28.878 35.972 27.414C35.972 26.442 35.8599 25.642 34.7109 25.642C33.5619 25.642 33.45 26.441 33.45 27.414ZM34.7109 26.081C35.1249 26.081 35.4109 26.281 35.4109 27.181C35.4109 28.258 35.2739 28.645 34.7109 28.645C34.1479 28.645 34.0109 28.258 34.0109 27.181C34.0149 26.277 34.2939 26.079 34.7109 26.079V26.081Z" fill="white"/>
<path d="M38.0959 26.079C38.2959 26.079 38.5689 26.224 38.5559 26.768H39.1139C39.1425 26.6234 39.137 26.474 39.0978 26.3318C39.0586 26.1896 38.9867 26.0586 38.888 25.949C38.7893 25.8394 38.6664 25.7543 38.5291 25.7005C38.3918 25.6467 38.2438 25.6257 38.0969 25.639C36.9489 25.639 36.8359 26.439 36.8359 27.411C36.8359 28.875 37.3939 29.085 38.0969 29.085C38.2454 29.0862 38.3923 29.0556 38.528 28.9954C38.6637 28.9351 38.7849 28.8466 38.8837 28.7358C38.9824 28.6249 39.0563 28.4943 39.1005 28.3526C39.1447 28.2109 39.1582 28.0614 39.1399 27.914H38.5759C38.5959 28.514 38.2219 28.644 38.0969 28.644C37.5389 28.644 37.3969 28.257 37.3969 27.18C37.4009 26.277 37.6829 26.079 38.0959 26.079Z" fill="white"/>
<path d="M42.441 29.021V26.671C42.441 25.923 42.126 25.641 41.562 25.641C41.3792 25.6176 41.1938 25.6525 41.0321 25.7409C40.8704 25.8293 40.7409 25.9665 40.662 26.133H40.641V24.281H40.103V29.021H40.641V27.071C40.641 26.513 40.778 26.08 41.317 26.08C41.777 26.08 41.908 26.369 41.908 26.78V29.026L42.441 29.021Z" fill="white"/>
<path d="M44.384 28.647C43.838 28.647 43.832 28.201 43.832 28.01H43.221C43.201 28.772 43.647 29.087 44.364 29.087C45.021 29.087 45.52 28.805 45.52 28.076C45.52 27.065 43.866 27.076 43.866 26.493C43.8666 26.4289 43.8808 26.3656 43.9076 26.3073C43.9345 26.249 43.9734 26.1971 44.0218 26.155C44.0701 26.1128 44.1269 26.0814 44.1883 26.0628C44.2497 26.0442 44.3144 26.0388 44.378 26.047C44.4494 26.0382 44.5218 26.046 44.5897 26.0699C44.6575 26.0937 44.7189 26.1329 44.7691 26.1844C44.8192 26.2359 44.8568 26.2984 44.8788 26.3668C44.9008 26.4353 44.9067 26.5079 44.896 26.579H45.496C45.542 25.922 45.036 25.639 44.445 25.639C43.513 25.639 43.302 26.197 43.302 26.545C43.302 27.536 44.956 27.545 44.956 28.14C44.9578 28.2128 44.9436 28.2851 44.9146 28.3518C44.8855 28.4186 44.8423 28.4782 44.7878 28.5265C44.7333 28.5747 44.669 28.6105 44.5992 28.6314C44.5295 28.6522 44.456 28.6575 44.384 28.647Z" fill="white"/>
<path d="M47.5729 26.079C47.7729 26.079 48.046 26.224 48.032 26.768H48.59C48.6185 26.6234 48.613 26.474 48.5738 26.3318C48.5346 26.1896 48.4628 26.0586 48.364 25.949C48.2653 25.8394 48.1424 25.7543 48.0051 25.7005C47.8678 25.6467 47.7198 25.6257 47.5729 25.639C46.4249 25.639 46.312 26.439 46.312 27.411C46.312 28.875 46.8699 29.085 47.5729 29.085C47.7213 29.086 47.8682 29.0553 48.0038 28.995C48.1394 28.9347 48.2606 28.8463 48.3593 28.7354C48.458 28.6246 48.5319 28.4941 48.5762 28.3524C48.6205 28.2108 48.634 28.0613 48.616 27.914H48.0519C48.0719 28.514 47.6979 28.644 47.5729 28.644C47.0149 28.644 46.8729 28.257 46.8729 27.18C46.8769 26.277 47.1599 26.079 47.5729 26.079Z" fill="white"/>
<path d="M51.918 29.021V26.671C51.918 25.923 51.603 25.641 51.039 25.641C50.8562 25.6176 50.6707 25.6525 50.5091 25.7409C50.3474 25.8293 50.2179 25.9665 50.139 26.133H50.113V24.281H49.575V29.021H50.113V27.071C50.113 26.513 50.25 26.08 50.789 26.08C51.249 26.08 51.38 26.369 51.38 26.78V29.026L51.918 29.021Z" fill="white"/>
<path d="M55.206 29.017C55.186 28.787 55.173 28.558 55.173 28.328V25.705H54.635V27.905C54.6471 27.9989 54.6396 28.0943 54.6128 28.1851C54.586 28.2759 54.5406 28.3601 54.4794 28.4324C54.4182 28.5047 54.3427 28.5634 54.2576 28.6048C54.1724 28.6463 54.0796 28.6695 53.985 28.673C53.604 28.673 53.42 28.404 53.42 28.003V25.703H52.883V28.231C52.8706 28.3496 52.8856 28.4694 52.9268 28.5813C52.9679 28.6931 53.0341 28.7941 53.1203 28.8764C53.2065 28.9588 53.3104 29.0203 53.4241 29.0563C53.5377 29.0923 53.6581 29.1017 53.776 29.084C53.9447 29.0878 54.1114 29.0466 54.259 28.9647C54.4067 28.8828 54.5298 28.7632 54.616 28.618H54.636V29.018L55.206 29.017Z" fill="white"/>
<path d="M56.6679 24.28H56.1299V29.02H56.6679V24.28Z" fill="white"/>
<path d="M59.9899 27.255C59.9899 26.155 59.7529 25.64 58.8079 25.64C57.6589 25.64 57.5469 26.44 57.5469 27.412C57.5469 28.876 58.1049 29.087 58.8079 29.087C58.9576 29.1093 59.1103 29.0976 59.2548 29.053C59.3993 29.0083 59.532 28.9317 59.6429 28.8289C59.7539 28.7261 59.8404 28.5997 59.8959 28.459C59.9515 28.3183 59.9747 28.1669 59.9639 28.016H59.3739C59.3781 28.0956 59.3664 28.1753 59.3394 28.2503C59.3124 28.3254 59.2708 28.3943 59.2169 28.453C59.1629 28.5118 59.0979 28.5592 59.0254 28.5925C58.953 28.6258 58.8746 28.6443 58.7949 28.647C58.3749 28.647 58.1249 28.463 58.1249 27.538H59.9899V27.255ZM58.1249 27.13C58.1319 26.211 58.4139 26.047 58.7559 26.047C59.1499 26.047 59.4189 26.165 59.4189 27.13H58.1249Z" fill="white"/>
<path d="M62.8959 24.28H62.2919V24.858H62.8959V24.28Z" fill="white"/>
<path d="M62.863 25.705H62.325V29.021H62.863V25.705Z" fill="white"/>
<path d="M66.132 29.021V26.721C66.132 26.064 65.955 25.638 65.245 25.638C65.0645 25.6176 64.8821 25.654 64.7233 25.7422C64.5645 25.8304 64.4371 25.966 64.359 26.13H64.332V25.704H63.761C63.78 25.933 63.793 26.163 63.793 26.393V29.019H64.331V27.059C64.331 26.605 64.417 26.081 65.007 26.081C65.467 26.081 65.591 26.37 65.591 26.725V29.025H66.129L66.132 29.021Z" fill="white"/>
<path d="M71.442 25.396C71.4349 25.1731 71.369 24.9561 71.251 24.767C71.1404 24.5926 70.9818 24.4539 70.7943 24.3675C70.6068 24.2811 70.3984 24.2507 70.194 24.28H68.652V29.02H70.175C70.713 29.02 71.601 28.902 71.601 27.687C71.6191 27.5471 71.6076 27.4051 71.5674 27.2699C71.5271 27.1348 71.4588 27.0097 71.3671 26.9026C71.2754 26.7955 71.1622 26.7088 71.0349 26.6483C70.9076 26.5877 70.7689 26.5545 70.628 26.551V26.519C70.8842 26.4767 71.1134 26.335 71.2658 26.1248C71.4182 25.9145 71.4815 25.6526 71.442 25.396ZM70.982 27.688C70.9836 27.8001 70.9616 27.9114 70.9174 28.0145C70.8732 28.1176 70.8078 28.2102 70.7255 28.2864C70.6431 28.3626 70.5457 28.4207 70.4395 28.4567C70.3333 28.4928 70.2207 28.5062 70.109 28.496H69.255V26.802H69.898C70.517 26.801 70.982 26.933 70.982 27.688ZM70.135 26.277H69.255V24.808H70.109C70.3 24.8108 70.4825 24.8878 70.6178 25.0227C70.7531 25.1576 70.8307 25.3398 70.8341 25.5309C70.8374 25.7219 70.7664 25.9068 70.6359 26.0464C70.5055 26.186 70.3258 26.2694 70.135 26.279V26.277Z" fill="white"/>
<path d="M72.4509 27.414C72.4509 28.878 73.0089 29.088 73.7119 29.088C74.4149 29.088 74.9729 28.878 74.9729 27.414C74.9729 26.442 74.8609 25.642 73.7119 25.642C72.5629 25.642 72.4509 26.441 72.4509 27.414ZM73.7119 26.081C74.1249 26.081 74.4119 26.281 74.4119 27.181C74.4119 28.258 74.2739 28.645 73.7119 28.645C73.1499 28.645 73.0119 28.258 73.0119 27.181C73.0159 26.277 73.2979 26.079 73.7119 26.079V26.081Z" fill="white"/>
<path d="M77.0979 26.079C77.2979 26.079 77.571 26.224 77.558 26.768H78.116C78.1445 26.6234 78.139 26.474 78.0998 26.3318C78.0606 26.1896 77.9888 26.0586 77.89 25.949C77.7913 25.8394 77.6684 25.7543 77.5311 25.7005C77.3938 25.6467 77.2458 25.6257 77.099 25.639C75.951 25.639 75.838 26.439 75.838 27.411C75.838 28.875 76.396 29.085 77.099 29.085C77.2472 29.0861 77.394 29.0556 77.5296 28.9955C77.6652 28.9354 77.7864 28.8471 77.8851 28.7365C77.9839 28.6259 78.058 28.4955 78.1024 28.354C78.1469 28.2126 78.1607 28.0633 78.1429 27.916H77.5779C77.5979 28.516 77.224 28.646 77.099 28.646C76.541 28.646 76.3989 28.259 76.3989 27.182C76.4049 26.277 76.6839 26.079 77.0979 26.079Z" fill="white"/>
<path d="M81.4429 29.021V26.671C81.4429 25.923 81.1279 25.641 80.5629 25.641C80.3802 25.6174 80.1946 25.6523 80.0329 25.7407C79.8713 25.8291 79.7417 25.9664 79.6629 26.133H79.6369V24.281H79.0989V29.021H79.6369V27.071C79.6369 26.513 79.7749 26.08 80.3129 26.08C80.7719 26.08 80.9039 26.369 80.9039 26.78V29.026L81.4429 29.021Z" fill="white"/>
<path d="M83.5549 29.086C84.2549 29.086 84.8159 28.876 84.8159 27.412C84.8159 26.44 84.7029 25.64 83.5549 25.64C82.4069 25.64 82.2939 26.44 82.2939 27.412C82.2949 28.876 82.8529 29.086 83.5549 29.086ZM83.5549 26.079C83.9679 26.079 84.2549 26.279 84.2549 27.179C84.2549 28.256 84.1179 28.643 83.5549 28.643C82.9919 28.643 82.8549 28.256 82.8549 27.179C82.8579 26.277 83.1419 26.079 83.5549 26.079Z" fill="white"/>
<path d="M86.193 24.28H85.655V29.02H86.193V24.28Z" fill="white"/>
<path d="M87.925 29.059C88.101 29.059 88.279 29.019 88.456 29.007V28.594C88.338 28.607 88.256 28.62 88.214 28.62C87.722 28.62 87.722 28.351 87.722 28.141V26.108H88.443V25.708H87.722V24.828L87.183 25.072V25.708H86.637V26.108H87.183V28.465C87.183 28.849 87.413 29.059 87.925 29.059Z" fill="white"/>
<path d="M89.4139 29.651L90.9579 24.28H90.5169L88.9739 29.651H89.4139Z" fill="white"/>
<path d="M92.559 24.28L91.059 29.02H91.669L92.024 27.891H93.855L94.196 29.02H94.872L93.329 24.28H92.559ZM92.171 27.366L92.913 24.838H92.926L93.688 27.366H92.171Z" fill="white"/>
<path d="M97.778 29.021V26.671C97.778 25.923 97.4629 25.641 96.8979 25.641C96.7152 25.6174 96.5297 25.6523 96.368 25.7407C96.2063 25.8291 96.0767 25.9664 95.998 26.133H95.972V24.281H95.434V29.021H95.972V27.071C95.972 26.513 96.1099 26.08 96.6479 26.08C97.1069 26.08 97.239 26.369 97.239 26.78V29.026L97.778 29.021Z" fill="white"/>
<path d="M101.018 29.021C100.976 28.7608 100.954 28.4977 100.952 28.234V26.634C100.952 26.076 100.729 25.634 99.875 25.634C99.175 25.634 98.775 25.889 98.752 26.634H99.336C99.3202 26.5594 99.322 26.482 99.3413 26.4082C99.3607 26.3344 99.397 26.2661 99.4474 26.2088C99.4978 26.1515 99.5609 26.1067 99.6317 26.0781C99.7024 26.0495 99.7789 26.0379 99.855 26.044C100.433 26.044 100.426 26.523 100.413 26.963C99.658 26.944 98.673 26.99 98.673 27.994C98.673 28.631 98.873 29.084 99.579 29.084C99.759 29.0986 99.9388 29.0528 100.09 28.9539C100.241 28.8551 100.355 28.7088 100.414 28.538H100.427V29.017L101.018 29.021ZM99.731 28.647C99.371 28.647 99.213 28.358 99.213 28.036C99.213 27.336 99.902 27.379 100.413 27.373C100.467 28.442 100.06 28.647 99.731 28.647Z" fill="white"/>
<path d="M103.775 25.704V27.904C103.787 27.9979 103.779 28.0932 103.752 28.184C103.726 28.2747 103.68 28.3589 103.619 28.4311C103.558 28.5034 103.482 28.5621 103.397 28.6036C103.312 28.645 103.22 28.6684 103.125 28.672C102.744 28.672 102.56 28.403 102.56 28.002V25.702H102.021V28.23C102.009 28.3486 102.024 28.4684 102.065 28.5803C102.106 28.6922 102.172 28.7931 102.258 28.8755C102.345 28.9578 102.448 29.0193 102.562 29.0553C102.676 29.0913 102.796 29.1008 102.914 29.083C103.083 29.0869 103.25 29.0458 103.397 28.9639C103.545 28.882 103.668 28.7623 103.754 28.617H103.774V29.017H104.346C104.326 28.787 104.314 28.558 104.314 28.328V25.704H103.775Z" fill="white"/>
<path d="M106.281 28.647C105.735 28.647 105.73 28.201 105.73 28.01H105.119C105.099 28.772 105.545 29.087 106.261 29.087C106.917 29.087 107.417 28.805 107.417 28.076C107.417 27.065 105.763 27.076 105.763 26.493C105.764 26.4289 105.778 26.3656 105.805 26.3073C105.831 26.249 105.87 26.1971 105.919 26.155C105.967 26.1128 106.024 26.0814 106.085 26.0628C106.147 26.0442 106.211 26.0388 106.275 26.047C106.346 26.0383 106.419 26.0461 106.487 26.0699C106.555 26.0937 106.616 26.1329 106.666 26.1844C106.717 26.2359 106.754 26.2983 106.776 26.3668C106.798 26.4352 106.804 26.5079 106.794 26.579H107.394C107.439 25.922 106.934 25.639 106.343 25.639C105.411 25.639 105.201 26.197 105.201 26.545C105.201 27.536 106.855 27.545 106.855 28.14C106.857 28.213 106.843 28.2855 106.813 28.3524C106.784 28.4193 106.741 28.479 106.686 28.5273C106.631 28.5756 106.567 28.6114 106.497 28.6321C106.427 28.6528 106.353 28.6579 106.281 28.647Z" fill="white"/>
<path d="M112.044 27.255C112.044 26.155 111.807 25.64 110.862 25.64C109.713 25.64 109.601 26.44 109.601 27.412C109.601 28.876 110.159 29.087 110.862 29.087C111.012 29.1093 111.164 29.0976 111.309 29.053C111.453 29.0083 111.586 28.9317 111.697 28.8289C111.808 28.7261 111.894 28.5997 111.95 28.459C112.005 28.3183 112.029 28.1669 112.018 28.016H111.427C111.431 28.0956 111.419 28.1751 111.392 28.2501C111.366 28.3251 111.324 28.3939 111.27 28.4527C111.216 28.5114 111.151 28.5588 111.079 28.5922C111.007 28.6256 110.929 28.6442 110.849 28.647C110.429 28.647 110.179 28.463 110.179 27.538H112.043V27.256L112.044 27.255ZM110.18 27.13C110.187 26.211 110.469 26.047 110.811 26.047C111.204 26.047 111.473 26.165 111.473 27.13H110.18Z" fill="white"/>
<path d="M113.501 28.338H112.883V29.02H113.501V28.338Z" fill="white"/>
<path d="M117.484 24.28H116.867L115.758 28.449H115.745L114.662 24.28H114.007L115.379 29.021H116.101L117.484 24.28Z" fill="white"/>
<path d="M118.12 28.338H117.503V29.02H118.12V28.338Z" fill="white"/>
<path d="M0.230957 32H4.06996L10.695 11.629H6.85496L0.230957 32Z" fill="white"/>
<path d="M14.532 0H10.692L7.85297 8.579H11.692L14.532 0Z" fill="white"/>
</svg>
