<svg xmlns="http://www.w3.org/2000/svg" width="164.568" height="24" viewBox="0 0 164.568 24">
    <g id="Logo_reanmo"  transform="translate(0 0)">
        <path id="Pfad_446" d="M72,135.8V112H91.34v2.975H74.975V135.8Z" transform="translate(-72 -112)" fill="#00acdf"/>
        <path id="Pfad_447" d="M104,162.513V144h14.05v2.975H106.975v15.538Z" transform="translate(-98.711 -138.711)" fill="#00acdf"/>
        <path id="Pfad_448" d="M136,189.224V176h8.761v2.975h-5.785v10.248Z" transform="translate(-125.42 -165.421)" fill="#00acdf"/>
        <g id="Gruppe_296" transform="translate(28.363 3.338)">
            <path id="Pfad_449" d="M247.728,152.525h-4.149V132.517h4.149v2.905a6.537,6.537,0,0,1,6.006-3.232v4.285h-1.056c-3.057,0-4.95,1.271-4.95,5.52Z" transform="translate(-243.579 -132.19)" fill="#fff"/>
            <path id="Pfad_450" d="M329.774,152.852c-5.751,0-10.01-4.067-10.01-10.349s4.077-10.313,10.01-10.313c5.715,0,9.755,3.958,9.755,9.841a12.747,12.747,0,0,1-.146,2.033H324.059a5.512,5.512,0,0,0,5.715,5.3,4.856,4.856,0,0,0,4.732-2.8h4.477C337.854,150.056,334.687,152.852,329.774,152.852ZM324.1,140.724h11.1c-.073-3.087-2.512-5.048-5.605-5.048A5.457,5.457,0,0,0,324.1,140.724Z" transform="translate(-307.171 -132.19)" fill="#fff"/>
            <path id="Pfad_451" d="M465.087,132.19a8.543,8.543,0,0,1,6.952,3.232v-2.905h4.186v20.009h-4.186v-2.978a8.639,8.639,0,0,1-7.025,3.3c-5.2,0-9.391-4.248-9.391-10.422S459.809,132.19,465.087,132.19Zm.873,3.6c-3.094,0-6.078,2.324-6.078,6.645s2.984,6.827,6.078,6.827c3.13,0,6.078-2.433,6.078-6.754C472.038,138.218,469.09,135.785,465.96,135.785Z" transform="translate(-420.573 -132.19)" fill="#fff"/>
            <path id="Pfad_452" d="M613.517,141.341c0-3.668-2-5.556-5.023-5.556-3.057,0-5.059,1.888-5.059,5.556v11.184h-4.15V132.517h4.15V134.8a7.722,7.722,0,0,1,5.969-2.615c4.7,0,8.226,2.941,8.226,8.534v11.8h-4.113Z" transform="translate(-540.488 -132.19)" fill="#fff"/>
            <path id="Pfad_453" d="M757.62,141.341c0-3.668-2-5.556-5.023-5.556-3.057,0-5.059,1.888-5.059,5.556v11.184h-4.113V141.341c0-3.668-2-5.556-5.023-5.556-3.057,0-5.059,1.888-5.059,5.556v11.184h-4.149V132.517h4.149V134.8a7.645,7.645,0,0,1,5.933-2.615,7.74,7.74,0,0,1,7.207,3.958,7.856,7.856,0,0,1,6.988-3.958c4.7,0,8.262,2.941,8.262,8.534v11.8H757.62Z" transform="translate(-648.922 -132.19)" fill="#fff"/>
            <path id="Pfad_454" d="M953.875,152.852c-5.715,0-10.046-4.067-10.046-10.349a10.228,10.228,0,1,1,20.456,0A10.034,10.034,0,0,1,953.875,152.852Zm0-3.595c3.094,0,6.151-2.215,6.151-6.754s-2.948-6.718-6.042-6.718c-3.13,0-5.933,2.179-5.933,6.718S950.745,149.257,953.875,149.257Z" transform="translate(-828.08 -132.19)" fill="#fff"/>
        </g>
    </g>
</svg>
