<svg width="30" height="33" viewBox="0 0 30 33" fill="none" xmlns="http://www.w3.org/2000/svg">
<path d="M28.5478 0.478027H1.11884V7.86803C1.11884 13.755 1.76584 17.235 3.25084 20.661C4.29474 23.0497 5.77852 25.2208 7.62484 27.061C8.48949 27.9276 9.41848 28.7276 10.4038 29.454C11.8168 30.493 13.3015 31.4307 14.8468 32.26C16.3959 31.4345 17.8816 30.4952 19.2918 29.45C20.2744 28.7201 21.2031 27.9204 22.0708 27.057C23.9158 25.2156 25.3994 23.0448 26.4448 20.657C27.9168 17.246 28.5768 13.752 28.5768 7.86403L28.5478 0.478027ZM25.4808 21.253C24.6713 22.881 23.649 24.3943 22.4408 25.753V9.14803H25.4808V21.253ZM1.71184 8.55703V5.94303H27.9588V8.55703H1.71184ZM7.21184 25.751C6.00377 24.3922 4.9815 22.879 4.17184 21.251V9.14803H7.21184V25.751ZM27.9578 1.06003V5.35203H1.71184V1.06003H27.9578ZM10.2688 28.585V9.14903H13.3088V30.678C12.2518 30.0468 11.2364 29.3484 10.2688 28.587V28.585ZM16.3488 30.685V9.14903H19.3918V28.599C18.421 29.3559 17.4059 30.0541 16.3518 30.69L16.3488 30.685Z" fill="white"/>
<path d="M2.71385 2.33501H3.04385V4.53501H3.51185V1.88501H2.71185L2.71385 2.33501Z" fill="white"/>
<path d="M4.47484 4.05798H3.99384V4.53898H4.47484V4.05798Z" fill="white"/>
<path d="M7.03387 3.45301V2.97101H6.22287V2.36601H7.07587V1.88501H5.72687V4.54001H6.22687V3.45301H7.03387Z" fill="white"/>
<path d="M8.68487 4.59499C8.94294 4.59704 9.19604 4.52403 9.41335 4.38483C9.63067 4.24564 9.80283 4.04627 9.90888 3.81099H9.34488C9.26253 3.90506 9.16106 3.98047 9.04725 4.03221C8.93344 4.08394 8.80989 4.1108 8.68487 4.11099C8.45339 4.10128 8.23445 4.00315 8.07315 3.83683C7.91185 3.67051 7.82049 3.44867 7.81788 3.21699C7.81038 3.03317 7.86122 2.85169 7.96311 2.69851C8.065 2.54533 8.21273 2.4283 8.38516 2.36416C8.55759 2.30003 8.7459 2.29207 8.92313 2.34144C9.10035 2.3908 9.25743 2.49495 9.37188 2.63899H9.93587C9.83192 2.41662 9.67021 2.22621 9.4676 2.08762C9.265 1.94903 9.02893 1.86733 8.784 1.85105C8.53907 1.83476 8.29426 1.88449 8.07509 1.99504C7.85592 2.10559 7.67043 2.27291 7.53795 2.47957C7.40547 2.68622 7.33086 2.92463 7.3219 3.16994C7.31294 3.41525 7.36995 3.65847 7.487 3.87423C7.60405 4.09 7.77684 4.27042 7.98736 4.39666C8.19788 4.52291 8.43841 4.59036 8.68388 4.59199L8.68487 4.59499Z" fill="white"/>
<path d="M12.6318 4.36104C12.7321 4.28924 12.8133 4.19405 12.8683 4.08373C12.9234 3.97341 12.9507 3.85131 12.9478 3.72804C12.9533 3.5854 12.9118 3.4449 12.8298 3.32805C12.7478 3.2112 12.6298 3.12444 12.4938 3.08104C12.5846 3.03146 12.6597 2.95756 12.7107 2.86765C12.7618 2.77773 12.7868 2.67536 12.7828 2.57204C12.7807 2.44908 12.745 2.32904 12.6796 2.22488C12.6142 2.12072 12.5216 2.03641 12.4118 1.98104C12.1895 1.89343 11.9498 1.85918 11.7118 1.88104H11.2308V4.53904H11.8908C12.1505 4.55196 12.4085 4.48982 12.6338 4.36004L12.6318 4.36104ZM11.7218 2.36604H11.8218C11.928 2.3536 12.0355 2.36313 12.1378 2.39404C12.1858 2.41181 12.2272 2.44368 12.2566 2.48545C12.2861 2.52722 12.3022 2.57693 12.3028 2.62804C12.3034 2.67937 12.2896 2.72984 12.2629 2.77369C12.2362 2.81753 12.1977 2.853 12.1518 2.87604C12.0453 2.90988 11.9334 2.92378 11.8218 2.91704H11.7218V2.36604ZM11.7218 3.38404H11.9418C12.0593 3.37418 12.1773 3.39306 12.2858 3.43904C12.3392 3.46254 12.3845 3.50106 12.4163 3.5499C12.448 3.59874 12.4649 3.65577 12.4648 3.71404C12.4661 3.76422 12.4555 3.81399 12.434 3.85933C12.4124 3.90467 12.3805 3.94431 12.3408 3.97504C12.2209 4.04848 12.0813 4.08338 11.9408 4.07504H11.7348V3.38704L11.7218 3.38404Z" fill="white"/>
<path d="M14.4749 4.59504C14.7487 4.59623 15.0167 4.51603 15.2449 4.36464C15.4731 4.21324 15.6512 3.99746 15.7565 3.74469C15.8619 3.49192 15.8897 3.21355 15.8366 2.94491C15.7835 2.67627 15.6517 2.42947 15.4581 2.23583C15.2645 2.0422 15.0177 1.91045 14.749 1.85732C14.4804 1.80419 14.202 1.83206 13.9492 1.9374C13.6965 2.04275 13.4807 2.22081 13.3293 2.44899C13.1779 2.67718 13.0977 2.9452 13.0989 3.21904C13.0982 3.39993 13.1334 3.57915 13.2023 3.74639C13.2712 3.91364 13.3725 4.06559 13.5004 4.19349C13.6283 4.3214 13.7803 4.42273 13.9475 4.49165C14.1148 4.56056 14.294 4.5957 14.4749 4.59504ZM14.4749 2.31204C14.5916 2.31216 14.7071 2.33547 14.8148 2.38062C14.9224 2.42576 15.02 2.49184 15.1018 2.57502C15.1837 2.65819 15.2482 2.75681 15.2917 2.86514C15.3351 2.97346 15.3566 3.08934 15.3549 3.20604C15.3521 3.37947 15.2982 3.54821 15.1998 3.69107C15.1015 3.83393 14.9631 3.94454 14.8021 4.00901C14.641 4.07347 14.4646 4.08891 14.2948 4.05339C14.125 4.01787 13.9695 3.93298 13.8479 3.80937C13.7262 3.68576 13.6437 3.52895 13.6109 3.35864C13.5781 3.18833 13.5963 3.01211 13.6633 2.85213C13.7303 2.69214 13.8431 2.55552 13.9875 2.45943C14.1319 2.36334 14.3014 2.31206 14.4749 2.31204Z" fill="white"/>
<path d="M17.4069 4.59499C17.6649 4.59704 17.918 4.52403 18.1353 4.38483C18.3527 4.24564 18.5248 4.04627 18.6309 3.81099H18.0669C17.9845 3.90506 17.8831 3.98047 17.7692 4.03221C17.6554 4.08394 17.5319 4.1108 17.4069 4.11099C17.1754 4.10128 16.9564 4.00315 16.7951 3.83683C16.6339 3.67051 16.5425 3.44867 16.5399 3.21699C16.5324 3.03317 16.5832 2.85169 16.6851 2.69851C16.787 2.54533 16.9347 2.4283 17.1072 2.36416C17.2796 2.30003 17.4679 2.29207 17.6451 2.34144C17.8223 2.3908 17.9794 2.49495 18.0939 2.63899H18.6579C18.5539 2.41662 18.3922 2.22621 18.1896 2.08762C17.987 1.94903 17.7509 1.86733 17.506 1.85105C17.2611 1.83476 17.0162 1.88449 16.7971 1.99504C16.5779 2.10559 16.3924 2.27291 16.2599 2.47957C16.1275 2.68622 16.0528 2.92463 16.0439 3.16994C16.0349 3.41525 16.092 3.65847 16.209 3.87423C16.326 4.09 16.4988 4.27042 16.7093 4.39666C16.9199 4.52291 17.1604 4.59036 17.4059 4.59199L17.4069 4.59499Z" fill="white"/>
<path d="M19.4548 4.54001V3.42601H20.3908V4.54001H20.8908V1.88501H20.3908V2.94401H19.4548V1.88501H18.9548V4.54001H19.4548Z" fill="white"/>
<path d="M22.5639 4.59504C22.8377 4.59623 23.1057 4.51603 23.3339 4.36464C23.5621 4.21324 23.7402 3.99746 23.8455 3.74469C23.9509 3.49192 23.9787 3.21355 23.9256 2.94491C23.8725 2.67627 23.7407 2.42947 23.5471 2.23583C23.3534 2.0422 23.1066 1.91045 22.838 1.85732C22.5694 1.80419 22.291 1.83206 22.0382 1.9374C21.7855 2.04275 21.5697 2.22081 21.4183 2.44899C21.2669 2.67718 21.1867 2.9452 21.1879 3.21904C21.1872 3.39993 21.2224 3.57915 21.2913 3.74639C21.3602 3.91364 21.4615 4.06559 21.5894 4.19349C21.7173 4.3214 21.8693 4.42273 22.0365 4.49165C22.2038 4.56056 22.383 4.5957 22.5639 4.59504ZM22.5639 2.31204C22.6806 2.31216 22.7961 2.33547 22.9037 2.38062C23.0114 2.42576 23.109 2.49184 23.1908 2.57502C23.2727 2.65819 23.3372 2.75681 23.3807 2.86514C23.4241 2.97346 23.4456 3.08934 23.4439 3.20604C23.4479 3.32417 23.428 3.44189 23.3856 3.55219C23.3431 3.66249 23.2789 3.76313 23.1967 3.8481C23.1146 3.93307 23.0162 4.00064 22.9074 4.04679C22.7986 4.09294 22.6816 4.11672 22.5634 4.11672C22.4452 4.11672 22.3282 4.09294 22.2194 4.04679C22.1106 4.00064 22.0122 3.93307 21.93 3.8481C21.8479 3.76313 21.7836 3.66249 21.7412 3.55219C21.6987 3.44189 21.6789 3.32417 21.6829 3.20604C21.6815 2.97095 21.7734 2.7449 21.9383 2.57736C22.1032 2.40982 22.3278 2.31442 22.5629 2.31204H22.5639Z" fill="white"/>
<path d="M25.5488 4.54001V4.05801H24.7488V1.88501H24.2488V4.54001H25.5488Z" fill="white"/>
<path d="M26.9099 2.36701V1.88501H25.4529V2.36601H25.9339V4.53901H26.4339V2.36701H26.9099Z" fill="white"/>
<path d="M12.3429 6.34204V6.64204H12.5629V8.16904H12.8929V6.34204H12.3429Z" fill="white"/>
<path d="M13.7869 6.29995C13.7013 6.2993 13.6164 6.31614 13.5375 6.34943C13.4587 6.38271 13.3874 6.43175 13.3282 6.49354C13.2689 6.55533 13.2229 6.62857 13.1929 6.70877C13.1629 6.78897 13.1497 6.87444 13.1539 6.95995C13.149 7.03653 13.1601 7.11329 13.1864 7.18539C13.2127 7.25749 13.2536 7.32337 13.3065 7.37888C13.3595 7.43439 13.4234 7.47834 13.4942 7.50795C13.565 7.53757 13.6412 7.55221 13.7179 7.55095H13.7869L13.3869 8.16995H13.7719L14.2529 7.44095C14.3559 7.30133 14.4135 7.13341 14.4179 6.95995C14.4215 6.78658 14.3573 6.61864 14.2389 6.49195C14.119 6.37018 13.9558 6.3008 13.7849 6.29895L13.7869 6.29995ZM13.7869 7.24895C13.7461 7.24901 13.7057 7.24075 13.6683 7.22468C13.6308 7.20861 13.597 7.18508 13.5689 7.1555C13.5408 7.12593 13.5191 7.09094 13.505 7.05267C13.4909 7.01441 13.4847 6.97367 13.4869 6.93295C13.4861 6.89426 13.4929 6.85579 13.507 6.81975C13.5211 6.78371 13.5422 6.75081 13.5691 6.72293C13.5959 6.69506 13.628 6.67277 13.6635 6.65733C13.699 6.64188 13.7372 6.6336 13.7759 6.63295C13.8178 6.62981 13.86 6.63524 13.8998 6.64891C13.9396 6.66258 13.9761 6.68421 14.0073 6.71247C14.0385 6.74074 14.0635 6.77505 14.081 6.81332C14.0985 6.85159 14.108 6.89302 14.1089 6.93507C14.1099 6.97713 14.1023 7.01894 14.0865 7.05796C14.0708 7.09698 14.0473 7.1324 14.0175 7.16204C13.9876 7.19169 13.952 7.21494 13.9129 7.2304C13.8738 7.24586 13.8319 7.25319 13.7899 7.25195L13.7869 7.24895Z" fill="white"/>
<path d="M15.2179 6.30003C15.1295 6.29778 15.0417 6.31507 14.9608 6.35068C14.8799 6.38629 14.8079 6.43934 14.7499 6.50603C14.6514 6.63077 14.6022 6.78739 14.6118 6.94603V7.55103C14.6022 7.63655 14.6112 7.72314 14.6383 7.80482C14.6654 7.88649 14.71 7.96131 14.7688 8.02408C14.8277 8.08685 14.8995 8.13608 14.9793 8.16836C15.0591 8.20064 15.1449 8.2152 15.2309 8.21103C15.317 8.21205 15.4023 8.19413 15.4808 8.15853C15.5592 8.12293 15.6289 8.07053 15.6848 8.00503C15.7852 7.88127 15.8345 7.72392 15.8228 7.56503V6.94603C15.8307 6.86269 15.8207 6.77863 15.7936 6.69942C15.7666 6.62021 15.723 6.54763 15.6658 6.48649C15.6087 6.42535 15.5392 6.37702 15.4619 6.34471C15.3847 6.3124 15.3015 6.29783 15.2179 6.30003ZM15.5038 7.55203C15.5088 7.63568 15.4844 7.71844 15.4348 7.78603C15.4083 7.81841 15.3746 7.84426 15.3365 7.8616C15.2983 7.87893 15.2567 7.88729 15.2148 7.88603C15.1314 7.88221 15.0526 7.8464 14.9948 7.78603C14.9451 7.71323 14.9209 7.62604 14.9258 7.53803V6.94703C14.9211 6.86772 14.9456 6.78942 14.9948 6.72703C15.0214 6.69465 15.0551 6.66881 15.0932 6.65147C15.1314 6.63413 15.173 6.62577 15.2148 6.62703C15.2555 6.62572 15.296 6.63323 15.3335 6.64903C15.3709 6.66483 15.4046 6.68855 15.432 6.71857C15.4595 6.74859 15.4801 6.78419 15.4925 6.82294C15.5049 6.86168 15.5088 6.90265 15.5038 6.94303V7.55203Z" fill="white"/>
<path d="M16.6619 6.29995C16.5735 6.29769 16.4857 6.31499 16.4048 6.3506C16.3239 6.38621 16.2519 6.43926 16.1939 6.50595C16.0954 6.63069 16.0463 6.78731 16.0559 6.94595V7.55095C16.0462 7.63646 16.0552 7.72306 16.0824 7.80473C16.1095 7.88641 16.154 7.96122 16.2129 8.02399C16.2717 8.08676 16.3435 8.13599 16.4233 8.16827C16.5031 8.20055 16.5889 8.21512 16.6749 8.21095C16.761 8.21197 16.8463 8.19404 16.9248 8.15845C17.0032 8.12285 17.0729 8.07045 17.1289 8.00495C17.2292 7.88118 17.2785 7.72383 17.2669 7.56495V6.94595C17.2724 6.86084 17.2606 6.77551 17.2322 6.69508C17.2039 6.61465 17.1595 6.54079 17.1019 6.47795C16.9824 6.3659 16.8256 6.30313 16.6619 6.29995ZM16.9369 7.55195C16.9418 7.6356 16.9174 7.71836 16.8679 7.78595C16.8413 7.81833 16.8076 7.84418 16.7695 7.86152C16.7314 7.87885 16.6898 7.88721 16.6479 7.88595C16.5644 7.88213 16.4856 7.84632 16.4279 7.78595C16.3782 7.71314 16.3539 7.62596 16.3589 7.53795V6.94695C16.3556 6.86985 16.3747 6.79344 16.4139 6.72695C16.4405 6.69457 16.4741 6.66872 16.5123 6.65139C16.5504 6.63405 16.592 6.62569 16.6339 6.62695C16.6745 6.62564 16.715 6.63314 16.7525 6.64894C16.79 6.66475 16.8236 6.68847 16.851 6.71849C16.8785 6.74851 16.8991 6.78411 16.9115 6.82285C16.9239 6.8616 16.9278 6.90257 16.9229 6.94295V7.54795L16.9369 7.55195Z" fill="white"/>
</svg>
