<svg width="27" height="34" viewBox="0 0 27 34" fill="none" xmlns="http://www.w3.org/2000/svg">
<path d="M1.12012 1V22.123C1.12012 22.123 2.51511 33 13.3651 33C24.2151 33 25.6101 23.379 25.6101 22.123V1H1.12012Z" stroke="white"/>
<path d="M24.7731 1.46204L13.8351 6.84604V7.84604L24.7731 2.29303V1.46204ZM2.02811 1.75003V21.1501H13.0521V1.75003H2.02811ZM24.7901 8.65005L14.0001 14.235V15.1801L24.7851 9.49203L24.7901 8.65005ZM24.9421 15.57L14.1571 20.2791V21.0891H14.8491L24.9421 16.38V15.57ZM2.02811 22.125C2.02811 22.125 3.9811 32.1721 13.3661 32.1721H13.4561C13.8428 32.1721 14.2168 32.1527 14.5781 32.114H14.5941H14.6371C23.5551 31.283 24.7811 22.7981 24.8601 22.1711C24.8601 22.1491 24.8601 22.137 24.8601 22.134H2.0271L2.02811 22.125Z" fill="white"/>
<path d="M18.9391 29.365C18.9739 29.3649 19.0082 29.3728 19.0394 29.3881C19.0706 29.4033 19.0979 29.4255 19.1191 29.453C19.1686 29.512 19.1949 29.587 19.1931 29.664C19.1952 29.7407 19.1689 29.8155 19.1191 29.874C19.0978 29.901 19.0706 29.9229 19.0396 29.9379C19.0086 29.953 18.9746 29.9608 18.9401 29.9608C18.9057 29.9608 18.8717 29.953 18.8407 29.9379C18.8097 29.9229 18.7825 29.901 18.7611 29.874C18.7116 29.8154 18.6852 29.7407 18.6871 29.664C18.6854 29.587 18.7116 29.512 18.7611 29.453C18.7821 29.4258 18.8091 29.4037 18.84 29.3884C18.8708 29.3732 18.9047 29.3651 18.9391 29.365ZM18.9221 27.49V27.556C18.8398 27.5755 18.7682 27.626 18.7221 27.697C18.645 27.8303 18.5814 27.971 18.5321 28.117L17.8221 29.97H17.7721L17.0651 28.042C17.0197 27.9008 16.9625 27.7636 16.8941 27.632C16.8736 27.6088 16.8486 27.5899 16.8206 27.5767C16.7925 27.5635 16.7621 27.5561 16.7311 27.555V27.489H17.7191V27.555H17.6861C17.6229 27.5484 17.5591 27.562 17.5041 27.594C17.4923 27.6034 17.483 27.6154 17.4769 27.6292C17.4708 27.6429 17.4681 27.658 17.4691 27.673C17.4697 27.6988 17.4737 27.7243 17.4811 27.749C17.4891 27.7783 17.5165 27.8567 17.5631 27.984L18.0021 29.191L18.4091 28.116C18.4578 27.9827 18.4878 27.8957 18.4991 27.855C18.5094 27.8182 18.5151 27.7802 18.5161 27.742C18.5169 27.7088 18.5086 27.6759 18.4921 27.647C18.4752 27.6194 18.45 27.5977 18.4201 27.585C18.3653 27.5628 18.3063 27.5525 18.2471 27.555V27.489L18.9221 27.49ZM16.3221 29.365C16.3569 29.3649 16.3912 29.3728 16.4224 29.3881C16.4536 29.4033 16.4809 29.4255 16.5021 29.453C16.5516 29.512 16.5779 29.587 16.5761 29.664C16.5779 29.7409 16.5512 29.8157 16.5011 29.874C16.4798 29.901 16.4526 29.9229 16.4216 29.9379C16.3906 29.953 16.3566 29.9608 16.3221 29.9608C16.2877 29.9608 16.2537 29.953 16.2227 29.9379C16.1917 29.9229 16.1645 29.901 16.1431 29.874C16.0936 29.8154 16.0672 29.7407 16.0691 29.664C16.0673 29.587 16.0937 29.512 16.1431 29.453C16.1639 29.426 16.1905 29.404 16.221 29.3887C16.2515 29.3735 16.285 29.3654 16.3191 29.365H16.3221ZM15.8621 29.02H15.0821C15.0807 29.2062 15.1331 29.3889 15.2331 29.546C15.259 29.5901 15.2958 29.6269 15.3399 29.6528C15.384 29.6787 15.434 29.6929 15.4851 29.694C15.5458 29.6941 15.6046 29.6729 15.6511 29.634C15.7172 29.5728 15.7715 29.4999 15.8111 29.419L15.8631 29.458C15.8102 29.6073 15.7229 29.7419 15.6081 29.851C15.5174 29.9269 15.4024 29.9677 15.2841 29.966C15.1854 29.9688 15.0879 29.9433 15.003 29.8927C14.9182 29.842 14.8496 29.7683 14.8051 29.68C14.7126 29.5039 14.6675 29.3068 14.6741 29.108C14.6615 28.8707 14.7292 28.6361 14.8661 28.442C14.9161 28.3677 14.983 28.3064 15.0615 28.2632C15.14 28.2201 15.2276 28.1964 15.3171 28.194C15.3918 28.1959 15.4649 28.2157 15.5302 28.252C15.5955 28.2882 15.651 28.3397 15.6921 28.402C15.8103 28.5858 15.869 28.8016 15.8601 29.02H15.8621ZM15.4881 28.9C15.493 28.7661 15.484 28.632 15.4611 28.5C15.449 28.4391 15.4203 28.3827 15.3781 28.337C15.3669 28.3261 15.3536 28.3177 15.339 28.3122C15.3243 28.3067 15.3087 28.3042 15.2931 28.305C15.2652 28.3064 15.2383 28.3158 15.2155 28.3319C15.1927 28.348 15.1748 28.3702 15.1641 28.396C15.0978 28.5314 15.0668 28.6814 15.0741 28.832V28.895L15.4881 28.9ZM13.6671 28.7C13.6687 28.9289 13.6395 29.1569 13.5801 29.378C13.5528 29.491 13.5058 29.5984 13.4411 29.695C13.388 29.7739 13.3201 29.8418 13.2411 29.895C13.1695 29.9429 13.0853 29.9683 12.9991 29.968C12.9021 29.9689 12.8075 29.9376 12.7301 29.879C12.6418 29.8097 12.5692 29.7225 12.5171 29.623C12.4646 29.5204 12.4253 29.4115 12.4001 29.299C12.3564 29.1139 12.3346 28.9242 12.3351 28.734C12.3326 28.4888 12.3643 28.2445 12.4291 28.008C12.4675 27.8492 12.5492 27.7041 12.6651 27.589C12.7081 27.5432 12.7599 27.5066 12.8176 27.4816C12.8752 27.4567 12.9373 27.4438 13.0001 27.4438C13.0629 27.4438 13.1251 27.4567 13.1827 27.4816C13.2403 27.5066 13.2922 27.5432 13.3351 27.589C13.4451 27.6949 13.5242 27.8287 13.5641 27.976C13.6331 28.2124 13.6668 28.4577 13.6641 28.704L13.6671 28.7ZM13.1991 28.7C13.1991 28.2754 13.1971 28.028 13.1931 27.958C13.195 27.8419 13.17 27.7269 13.1201 27.622C13.1063 27.6027 13.0877 27.5872 13.0662 27.5772C13.0446 27.5672 13.0208 27.563 12.9971 27.565C12.9784 27.5646 12.9597 27.5682 12.9424 27.5756C12.9252 27.583 12.9097 27.5941 12.8971 27.608C12.851 27.6728 12.8246 27.7496 12.8211 27.829C12.8078 27.9343 12.8011 28.301 12.8011 28.929C12.7951 29.1594 12.8051 29.39 12.8311 29.619C12.8366 29.6806 12.8591 29.7395 12.8961 29.789C12.9109 29.8034 12.9284 29.8147 12.9477 29.8221C12.9669 29.8295 12.9875 29.8329 13.0081 29.832C13.0305 29.8333 13.0527 29.8287 13.0727 29.8187C13.0927 29.8087 13.1098 29.7936 13.1221 29.775C13.172 29.6798 13.1971 29.5735 13.1951 29.466L13.1991 28.7ZM12.1331 27.441V27.491C11.974 27.5339 11.8242 27.6058 11.6911 27.703C11.5816 27.7877 11.4919 27.8952 11.4281 28.018C11.3565 28.1631 11.3059 28.3176 11.2781 28.477C11.3113 28.4481 11.3488 28.4245 11.3891 28.407C11.4532 28.3834 11.5209 28.3712 11.5891 28.371C11.6646 28.371 11.739 28.3892 11.806 28.424C11.873 28.4589 11.9307 28.5092 11.9741 28.571C12.0846 28.7282 12.1388 28.9181 12.1281 29.11C12.1297 29.2608 12.1012 29.4104 12.0441 29.55C11.9959 29.6733 11.9138 29.7805 11.8071 29.859C11.7121 29.9292 11.5973 29.9674 11.4791 29.968C11.3516 29.9675 11.228 29.9242 11.1281 29.845C11.012 29.7514 10.9247 29.627 10.8761 29.486C10.8148 29.322 10.7843 29.1481 10.7861 28.973C10.7839 28.7108 10.8407 28.4514 10.9521 28.214C11.0561 27.9879 11.2196 27.7943 11.4251 27.654C11.6336 27.5135 11.8797 27.4393 12.1311 27.441H12.1331ZM11.2591 28.621C11.2511 28.7857 11.2471 28.906 11.2471 28.982C11.2466 29.1422 11.26 29.3021 11.2871 29.46C11.2997 29.5747 11.3373 29.6853 11.3971 29.784C11.4101 29.8038 11.4277 29.8202 11.4485 29.8317C11.4692 29.8432 11.4924 29.8495 11.5161 29.85C11.5628 29.85 11.6045 29.8167 11.6411 29.75C11.6879 29.626 11.7067 29.4931 11.6961 29.361C11.7135 29.1291 11.6794 28.8962 11.5961 28.679C11.5814 28.6441 11.557 28.6141 11.5258 28.5925C11.4947 28.5709 11.458 28.5586 11.4201 28.557C11.3607 28.5632 11.304 28.5853 11.2561 28.621H11.2591ZM9.21013 29.966V29.916C9.36431 29.8774 9.50962 29.8095 9.63812 29.716C9.754 29.6291 9.84898 29.5174 9.91612 29.389C9.98822 29.2482 10.0369 29.0965 10.0601 28.94C10.0098 28.9723 9.95618 28.9991 9.90013 29.02C9.85533 29.0349 9.80835 29.0424 9.76112 29.042C9.68486 29.0423 9.60965 29.0242 9.54179 28.9894C9.47394 28.9546 9.41541 28.9041 9.37112 28.842C9.25917 28.6835 9.20419 28.4918 9.21513 28.298C9.21324 28.1475 9.24182 27.9982 9.29913 27.859C9.34841 27.7352 9.43202 27.6279 9.54013 27.55C9.63652 27.4768 9.75471 27.4382 9.8757 27.4404C9.99669 27.4426 10.1134 27.4854 10.2071 27.562C10.3228 27.6542 10.4116 27.7757 10.4641 27.914C10.532 28.081 10.566 28.2598 10.5641 28.44C10.5646 28.6926 10.5114 28.9425 10.4081 29.173C10.3095 29.4006 10.1487 29.5957 9.94412 29.736C9.72661 29.8815 9.4718 29.9614 9.21013 29.966ZM10.0831 28.789C10.0931 28.6557 10.0981 28.5384 10.0981 28.437C10.0995 28.2333 10.078 28.03 10.0341 27.831C10.0192 27.7464 9.9819 27.6673 9.92613 27.602C9.91088 27.5868 9.8922 27.5754 9.87166 27.5689C9.85112 27.5624 9.82932 27.5609 9.80807 27.5645C9.78683 27.5681 9.76677 27.5768 9.74956 27.5897C9.73234 27.6027 9.71847 27.6196 9.70912 27.639C9.66004 27.7663 9.63989 27.9029 9.65013 28.039C9.63337 28.2712 9.66749 28.5043 9.75012 28.722C9.76488 28.7569 9.78926 28.7869 9.82042 28.8085C9.85158 28.8301 9.88825 28.8424 9.92613 28.844C9.98223 28.839 10.0362 28.8201 10.0831 28.789ZM8.57513 27.44V29.424C8.57134 29.5193 8.57703 29.6148 8.59213 29.709C8.60326 29.7494 8.62798 29.7847 8.66212 29.809C8.71345 29.8391 8.7728 29.8528 8.83212 29.848H8.87914V29.914H7.79413V29.848H7.84914C7.91422 29.853 7.97945 29.8406 8.03813 29.812C8.0749 29.7892 8.10196 29.7536 8.11414 29.712C8.13201 29.6158 8.13871 29.5178 8.13412 29.42V28.172C8.13742 28.1017 8.13273 28.0313 8.12013 27.962C8.11079 27.9334 8.093 27.9083 8.06912 27.89C8.0448 27.8703 8.0144 27.8597 7.98312 27.86C7.91656 27.8641 7.85187 27.8836 7.79413 27.917L7.76714 27.853L8.52612 27.445L8.57513 27.44ZM18.1751 23.24V23.852H18.5121V24.029H18.1751V25.061C18.1724 25.1236 18.1761 25.1862 18.1861 25.248C18.1925 25.2741 18.2064 25.2978 18.2261 25.316C18.2401 25.3308 18.2589 25.34 18.2791 25.342C18.3458 25.342 18.4081 25.283 18.4661 25.165L18.5121 25.204C18.4301 25.4327 18.2968 25.547 18.1121 25.547C18.07 25.5479 18.0281 25.5405 17.9888 25.5253C17.9495 25.51 17.9136 25.4872 17.8831 25.458C17.8245 25.4046 17.7831 25.335 17.7641 25.258C17.75 25.1489 17.745 25.0389 17.7491 24.929V24.029H17.5641V23.966C17.6848 23.8671 17.7942 23.7551 17.8901 23.632C17.9827 23.5104 18.0615 23.3789 18.1251 23.24H18.1751ZM17.3051 23.099V25.172C17.2975 25.2491 17.3096 25.3268 17.3401 25.398C17.3574 25.4168 17.3787 25.4316 17.4024 25.4413C17.4261 25.451 17.4516 25.4553 17.4771 25.454V25.518H16.7101V25.454C16.7368 25.4549 16.7634 25.4495 16.7876 25.4384C16.8119 25.4273 16.8333 25.4107 16.8501 25.39C16.8776 25.3208 16.8879 25.246 16.8801 25.172V23.442C16.8876 23.3656 16.8756 23.2885 16.8451 23.218C16.8281 23.1994 16.8072 23.1847 16.7838 23.1751C16.7605 23.1654 16.7354 23.1609 16.7101 23.162V23.096L17.3051 23.099ZM15.8651 23.799C15.9892 23.7993 16.11 23.8388 16.2101 23.912C16.3205 23.9925 16.4047 24.1038 16.4521 24.232C16.5086 24.3766 16.5367 24.5308 16.5351 24.686C16.5433 24.8967 16.4898 25.1053 16.3811 25.286C16.3296 25.3758 16.2549 25.45 16.1648 25.501C16.0747 25.5521 15.9726 25.5779 15.8691 25.576C15.7707 25.5795 15.6731 25.5569 15.5863 25.5103C15.4995 25.4638 15.4266 25.395 15.3751 25.311C15.2581 25.1279 15.1979 24.9143 15.2021 24.697C15.197 24.475 15.2586 24.2566 15.3791 24.07C15.4285 23.9863 15.499 23.9171 15.5836 23.8694C15.6683 23.8216 15.764 23.797 15.8611 23.798L15.8651 23.799ZM15.8711 23.926C15.8451 23.9263 15.8195 23.9327 15.7964 23.9446C15.7733 23.9566 15.7533 23.9739 15.7381 23.995C15.6901 24.0776 15.6649 24.1715 15.6651 24.267C15.6538 24.4003 15.6481 24.5883 15.6481 24.831C15.6475 24.9507 15.6545 25.0702 15.6691 25.189C15.6745 25.2587 15.699 25.3255 15.7401 25.382C15.7545 25.4018 15.7733 25.4181 15.795 25.4295C15.8166 25.441 15.8406 25.4473 15.8651 25.448C15.8862 25.4486 15.9071 25.4449 15.9267 25.4372C15.9463 25.4294 15.9641 25.4178 15.9791 25.403C16.0219 25.3555 16.0494 25.2963 16.0581 25.233C16.0844 25.005 16.0944 24.7754 16.0881 24.546C16.0932 24.406 16.0835 24.2659 16.0591 24.128C16.0471 24.066 16.0176 24.0088 15.9741 23.963C15.9599 23.9499 15.9432 23.9397 15.925 23.9332C15.9068 23.9267 15.8874 23.9239 15.8681 23.925L15.8711 23.926ZM14.0471 23.096V24.064C14.1072 23.9862 14.1795 23.9187 14.2611 23.864C14.3209 23.8257 14.3902 23.8049 14.4611 23.804C14.5462 23.8022 14.6286 23.8342 14.6901 23.893C14.7515 23.9494 14.7952 24.0223 14.8161 24.103C14.8416 24.2371 14.8519 24.3736 14.8471 24.51V25.163C14.8395 25.2439 14.8498 25.3255 14.8771 25.402C14.8921 25.4203 14.9108 25.4351 14.9321 25.4454C14.9533 25.4558 14.9765 25.4615 15.0001 25.462V25.526H14.2791V25.462C14.3022 25.4591 14.3244 25.4511 14.3441 25.4387C14.3638 25.4263 14.3806 25.4096 14.3931 25.39C14.4176 25.317 14.4268 25.2397 14.4201 25.163V24.417C14.4234 24.3301 14.4187 24.243 14.4061 24.157C14.3992 24.1257 14.3832 24.0972 14.3601 24.075C14.3403 24.0558 14.3137 24.0451 14.2861 24.045C14.2418 24.0463 14.1995 24.0637 14.1671 24.094C14.1159 24.1437 14.0736 24.2019 14.0421 24.266V25.166C14.0366 25.2414 14.0443 25.3173 14.0651 25.39C14.077 25.4116 14.0941 25.4298 14.1149 25.4429C14.1357 25.456 14.1596 25.4636 14.1841 25.465V25.529H13.4631V25.465C13.4882 25.464 13.5127 25.4574 13.5349 25.4456C13.5571 25.4339 13.5763 25.4172 13.5911 25.397C13.6154 25.3226 13.6242 25.244 13.6171 25.166V23.466C13.6243 23.3861 13.614 23.3056 13.5871 23.23C13.5719 23.2117 13.553 23.1968 13.5316 23.1863C13.5103 23.1757 13.4869 23.1699 13.4631 23.169V23.103L14.0471 23.096ZM13.2471 25.09L13.2941 25.133C13.2412 25.263 13.155 25.3768 13.0441 25.463C12.9522 25.5325 12.8403 25.5703 12.7251 25.571C12.6339 25.5722 12.544 25.5496 12.4642 25.5054C12.3844 25.4612 12.3175 25.397 12.2701 25.319C12.1533 25.1389 12.094 24.9276 12.1001 24.713C12.0958 24.5026 12.1494 24.295 12.2551 24.113C12.3036 24.0183 12.3774 23.9389 12.4683 23.8836C12.5593 23.8284 12.6637 23.7994 12.7701 23.8C12.8343 23.7969 12.8985 23.8069 12.9586 23.8294C13.0188 23.8519 13.0738 23.8865 13.1201 23.931C13.1607 23.9681 13.1932 24.0132 13.2156 24.0635C13.2379 24.1137 13.2497 24.168 13.2501 24.223C13.2533 24.2819 13.2348 24.3398 13.1981 24.386C13.1812 24.4059 13.16 24.4218 13.1361 24.4323C13.1122 24.4429 13.0863 24.4479 13.0601 24.447C13.0317 24.4475 13.0036 24.4414 12.978 24.4293C12.9523 24.4171 12.9298 24.3992 12.9121 24.377C12.8643 24.3028 12.8393 24.2162 12.8401 24.128C12.84 24.0726 12.8248 24.0184 12.7961 23.971C12.7872 23.9574 12.775 23.9462 12.7607 23.9383C12.7464 23.9305 12.7304 23.9262 12.7141 23.926C12.6869 23.9281 12.6608 23.9377 12.6387 23.9537C12.6166 23.9698 12.5995 23.9917 12.5891 24.017C12.5281 24.1489 12.501 24.294 12.5101 24.439C12.5095 24.592 12.5311 24.7442 12.5741 24.891C12.6037 25.0113 12.664 25.122 12.7491 25.212C12.8031 25.263 12.8749 25.2907 12.9491 25.289C12.999 25.2888 13.0479 25.2746 13.0901 25.248C13.1496 25.204 13.2016 25.1506 13.2441 25.09H13.2471ZM11.2041 23.799C11.3282 23.7993 11.449 23.8388 11.5491 23.912C11.6597 23.9926 11.7441 24.1039 11.7921 24.232C11.8486 24.3766 11.8767 24.5308 11.8751 24.686C11.8833 24.8967 11.8298 25.1053 11.7211 25.286C11.6696 25.3758 11.5949 25.45 11.5048 25.501C11.4147 25.5521 11.3126 25.5779 11.2091 25.576C11.1107 25.5794 11.0131 25.5567 10.9264 25.5102C10.8396 25.4636 10.7667 25.3949 10.7151 25.311C10.5981 25.1279 10.5379 24.9143 10.5421 24.697C10.537 24.475 10.5987 24.2566 10.7191 24.07C10.7686 23.9864 10.8391 23.9173 10.9237 23.8695C11.0083 23.8218 11.104 23.7971 11.2011 23.798L11.2041 23.799ZM11.2101 23.926C11.1841 23.9263 11.1585 23.9327 11.1354 23.9446C11.1123 23.9566 11.0923 23.9739 11.0771 23.995C11.0291 24.0776 11.0039 24.1715 11.0041 24.267C10.9921 24.4003 10.9861 24.5883 10.9861 24.831C10.9855 24.9507 10.9925 25.0702 11.0071 25.189C11.0124 25.2587 11.037 25.3255 11.0781 25.382C11.0925 25.4018 11.1113 25.4181 11.1329 25.4295C11.1546 25.441 11.1786 25.4473 11.2031 25.448C11.2242 25.4486 11.2451 25.4449 11.2647 25.4372C11.2843 25.4294 11.3021 25.4178 11.3171 25.403C11.3599 25.3555 11.3875 25.2963 11.3961 25.233C11.4224 25.005 11.4324 24.7754 11.4261 24.546C11.4312 24.406 11.4215 24.2659 11.3971 24.128C11.3851 24.066 11.3556 24.0088 11.3121 23.963C11.2844 23.9375 11.2478 23.9238 11.2101 23.925V23.926ZM9.74013 24.235C9.89095 24.2665 10.0322 24.3333 10.1521 24.43C10.2085 24.4845 10.2528 24.5502 10.2821 24.6229C10.3114 24.6956 10.325 24.7737 10.3221 24.852C10.3246 24.9364 10.3092 25.0204 10.277 25.0985C10.2448 25.1765 10.1964 25.2469 10.1351 25.305C9.94913 25.4606 9.71003 25.538 9.46812 25.521H8.42014V25.455C8.48636 25.4606 8.55295 25.45 8.61414 25.424C8.64591 25.4054 8.67081 25.3769 8.68513 25.343C8.70393 25.2621 8.711 25.1789 8.70613 25.096V23.522C8.71096 23.4388 8.70389 23.3552 8.68513 23.274C8.67094 23.2397 8.64556 23.2111 8.61313 23.193C8.55206 23.1679 8.48593 23.1577 8.42014 23.163V23.097H9.40813C9.57815 23.0861 9.74854 23.1113 9.90813 23.171C10.0062 23.2201 10.0873 23.2974 10.1411 23.393C10.1969 23.4882 10.2263 23.5966 10.2261 23.707C10.2273 23.8204 10.1891 23.9306 10.1181 24.019C10.0156 24.128 9.8824 24.2033 9.73613 24.235H9.74013ZM9.18713 24.187C9.29651 24.1941 9.40597 24.1745 9.50613 24.13C9.57321 24.093 9.62784 24.037 9.66313 23.969C9.69904 23.8854 9.71754 23.7955 9.71754 23.7045C9.71754 23.6136 9.69904 23.5236 9.66313 23.44C9.62894 23.3735 9.57519 23.319 9.50912 23.284C9.40728 23.2419 9.29705 23.2241 9.18713 23.232V24.187ZM9.18713 24.327V25.105V25.194C9.18326 25.2461 9.19815 25.2979 9.22913 25.34C9.24476 25.357 9.26403 25.3702 9.28551 25.3787C9.30698 25.3872 9.33011 25.3907 9.35313 25.389C9.43225 25.3896 9.50991 25.3677 9.57713 25.326C9.64682 25.2819 9.70155 25.2178 9.73413 25.142C9.77159 25.0573 9.79034 24.9656 9.78912 24.873C9.79009 24.7692 9.76716 24.6665 9.72212 24.573C9.68496 24.4903 9.61981 24.4234 9.53813 24.384C9.42521 24.3399 9.30423 24.3201 9.18314 24.326L9.18713 24.327ZM11.6421 12.168C11.6661 12.3532 11.6162 12.5404 11.5031 12.689C11.4764 12.7168 11.4437 12.7382 11.4075 12.7515C11.3713 12.7649 11.3325 12.7698 11.2941 12.766C11.2089 12.7583 11.1295 12.7195 11.0711 12.657C10.9807 12.5658 10.9288 12.4434 10.9261 12.315C10.9395 12.0698 10.9876 11.8277 11.0691 11.596L10.9501 11.477C10.8966 11.4176 10.8358 11.3651 10.7691 11.321C10.7357 11.3058 10.6984 11.3009 10.6621 11.307C10.624 11.3131 10.589 11.3313 10.5621 11.359C10.5191 11.3989 10.4915 11.4527 10.4841 11.511C10.4821 11.5255 10.4833 11.5403 10.4876 11.5543C10.4919 11.5683 10.4993 11.5812 10.5091 11.592C10.5376 11.6146 10.5728 11.6272 10.6091 11.628C10.6635 11.6328 10.7148 11.6552 10.7551 11.692C10.7949 11.7301 10.8185 11.782 10.8211 11.837C10.8226 11.8642 10.818 11.8913 10.8078 11.9165C10.7977 11.9418 10.782 11.9645 10.7621 11.983C10.7414 12.0045 10.7163 12.0215 10.6886 12.0327C10.6608 12.0439 10.631 12.0491 10.6011 12.048C10.5717 12.0478 10.5426 12.0417 10.5155 12.0302C10.4883 12.0188 10.4638 12.002 10.4431 11.981C10.3808 11.9171 10.3411 11.8346 10.3301 11.746C10.3162 11.6439 10.3314 11.5398 10.3741 11.446C10.4173 11.3443 10.4798 11.2519 10.5581 11.174C10.6358 11.0873 10.7425 11.0322 10.8581 11.019C10.9485 11.0087 11.0399 11.0251 11.1211 11.066C11.2151 11.1332 11.3019 11.2099 11.3801 11.295L11.8391 11.754C11.8717 11.7905 11.9075 11.824 11.9461 11.854C11.9601 11.8633 11.9764 11.8685 11.9931 11.869C11.9997 11.869 12.0061 11.8676 12.0121 11.865C12.0182 11.8625 12.0236 11.8587 12.0281 11.854C12.0468 11.8353 12.0501 11.802 12.0381 11.754H12.1011C12.1262 11.8338 12.1347 11.9178 12.1261 12.001C12.1168 12.0668 12.0858 12.1277 12.0381 12.174C12.0151 12.1999 11.9872 12.2209 11.9559 12.2359C11.9247 12.2508 11.8907 12.2593 11.8561 12.261C11.7742 12.2583 11.6963 12.2247 11.6381 12.167L11.6421 12.168ZM11.5501 12.076L11.1501 11.676C11.1236 11.8033 11.1236 11.9347 11.1501 12.062C11.1657 12.1303 11.2004 12.1927 11.2501 12.242C11.2869 12.2798 11.3357 12.3035 11.3881 12.309C11.4082 12.3113 11.4286 12.3087 11.4476 12.3016C11.4665 12.2945 11.4835 12.283 11.4971 12.268C11.5405 12.2109 11.5599 12.1392 11.5511 12.068L11.5501 12.076ZM9.13913 11.51C9.16184 11.4871 9.18952 11.4696 9.22003 11.459C9.25055 11.4484 9.28308 11.445 9.31512 11.449C9.38633 11.4553 9.45282 11.4873 9.50214 11.539C9.55389 11.5882 9.58558 11.6548 9.59113 11.726C9.59481 11.7577 9.59126 11.7899 9.58075 11.8201C9.57024 11.8503 9.55304 11.8777 9.53044 11.9003C9.50784 11.9229 9.48043 11.9401 9.45024 11.9506C9.42005 11.9611 9.38788 11.9647 9.35612 11.961C9.28534 11.955 9.21919 11.9234 9.17014 11.872C9.11884 11.8224 9.08692 11.7561 9.08012 11.685C9.07602 11.6532 9.0793 11.6208 9.08971 11.5905C9.10011 11.5601 9.11637 11.5326 9.13913 11.51ZM9.86212 11.932L10.7991 12.869C10.8483 12.929 10.912 12.9754 10.9841 13.004C11.0098 13.0052 11.0353 13.0007 11.059 12.9909C11.0827 12.981 11.1039 12.966 11.1211 12.947L11.1671 12.993L10.6241 13.536L10.5781 13.49C10.5975 13.4717 10.6124 13.4492 10.6216 13.4242C10.6308 13.3992 10.634 13.3725 10.6311 13.346C10.6017 13.2774 10.556 13.217 10.4981 13.17L9.80814 12.479C9.75887 12.4191 9.69521 12.3726 9.62312 12.344C9.59789 12.3428 9.57271 12.3473 9.54938 12.3569C9.52605 12.3666 9.50514 12.3813 9.48813 12.4L9.44113 12.353L9.86212 11.932ZM9.21812 12.51L9.63812 12.897L9.60114 12.934C9.48359 12.8704 9.35354 12.8332 9.22012 12.825C9.14449 12.8223 9.07071 12.8487 9.01413 12.899C8.99981 12.9133 8.9888 12.9306 8.98189 12.9496C8.97498 12.9686 8.97233 12.9889 8.97414 13.009C8.97578 13.0509 8.99329 13.0906 9.02313 13.12C9.04696 13.1432 9.07731 13.1586 9.11012 13.164C9.23361 13.174 9.35786 13.169 9.48013 13.149C9.62005 13.126 9.76292 13.1281 9.90213 13.155C9.99602 13.1813 10.0812 13.232 10.1491 13.302C10.2157 13.3688 10.2675 13.4489 10.3011 13.537C10.3356 13.6205 10.345 13.7122 10.3281 13.801C10.3116 13.8842 10.2705 13.9605 10.2101 14.02C10.138 14.082 10.0544 14.1293 9.96413 14.159C9.94328 14.1658 9.92369 14.1759 9.90613 14.189C9.88213 14.213 9.88213 14.2537 9.90613 14.311L9.87112 14.346L9.42912 13.938L9.46613 13.902C9.58171 13.9732 9.71353 14.0138 9.84914 14.02C9.93697 14.0275 10.0242 14.0002 10.0921 13.944C10.1086 13.9284 10.1213 13.9094 10.1294 13.8883C10.1375 13.8672 10.1409 13.8445 10.1391 13.822C10.1359 13.7752 10.1152 13.7313 10.0811 13.699C10.0445 13.6605 9.99647 13.6349 9.94412 13.626C9.85137 13.619 9.75813 13.6224 9.66612 13.636C9.52765 13.6558 9.38725 13.6585 9.24812 13.644C9.13422 13.6235 9.02945 13.5683 8.94814 13.486C8.85864 13.3979 8.80005 13.2832 8.78113 13.159C8.77109 13.0964 8.77691 13.0323 8.79805 12.9726C8.81919 12.9128 8.85498 12.8593 8.90213 12.817C8.95731 12.7623 9.02651 12.7239 9.10213 12.706C9.12628 12.7029 9.1491 12.6932 9.16812 12.678C9.18005 12.6674 9.18784 12.6528 9.19012 12.637C9.18913 12.6061 9.18375 12.5754 9.17413 12.546L9.21812 12.51ZM8.36414 13.364L8.78413 13.751L8.74713 13.787C8.62953 13.7235 8.49953 13.6863 8.36613 13.678C8.29047 13.6761 8.21687 13.7029 8.16013 13.753C8.1458 13.7673 8.1348 13.7846 8.12788 13.8036C8.12097 13.8226 8.11833 13.8429 8.12013 13.863C8.12152 13.9052 8.13906 13.9453 8.16913 13.975C8.19296 13.9982 8.22332 14.0135 8.25613 14.019C8.37962 14.029 8.50386 14.0239 8.62613 14.004C8.76606 13.9812 8.9089 13.9832 9.04813 14.01C9.14198 14.0364 9.2272 14.0871 9.29514 14.157C9.36176 14.2238 9.41354 14.3039 9.44713 14.392C9.48164 14.4755 9.49103 14.5673 9.47414 14.656C9.45764 14.7392 9.41652 14.8155 9.35612 14.875C9.284 14.937 9.20042 14.9842 9.11012 15.014C9.08928 15.0208 9.06968 15.0309 9.05212 15.044C9.02879 15.068 9.02879 15.1087 9.05212 15.166L9.01714 15.202L8.57513 14.794L8.61212 14.757C8.7278 14.828 8.85956 14.8686 8.99513 14.875C9.08297 14.8825 9.17024 14.8552 9.23813 14.799C9.25455 14.7835 9.26729 14.7644 9.27542 14.7433C9.28355 14.7222 9.28686 14.6996 9.28513 14.677C9.28191 14.6302 9.26121 14.5863 9.22713 14.554C9.19054 14.5155 9.14248 14.4899 9.09013 14.481C8.99738 14.474 8.90414 14.4773 8.81213 14.491C8.67367 14.511 8.53326 14.5137 8.39413 14.499C8.28023 14.4785 8.17544 14.4234 8.09413 14.341C8.00464 14.2529 7.94605 14.1382 7.92712 14.014C7.91709 13.9514 7.92291 13.8873 7.94405 13.8276C7.96518 13.7678 8.00097 13.7143 8.04813 13.672C8.10333 13.6173 8.17253 13.5789 8.24812 13.561C8.27226 13.5578 8.29508 13.5482 8.31413 13.533C8.32599 13.5223 8.33377 13.5078 8.33614 13.492C8.33507 13.4611 8.32968 13.4304 8.32013 13.401L8.36414 13.364ZM7.51013 14.283L8.43613 15.209C8.48799 15.2712 8.55284 15.3214 8.62613 15.356C8.6496 15.3582 8.67328 15.3553 8.69554 15.3476C8.7178 15.3398 8.73812 15.3273 8.75513 15.311L8.80113 15.357L8.39113 15.767L8.23312 15.609C8.25138 15.7052 8.25138 15.8039 8.23312 15.9C8.21582 15.9787 8.17585 16.0507 8.11813 16.107C8.06188 16.1635 7.98582 16.1958 7.90613 16.197C7.82514 16.2011 7.74468 16.182 7.67413 16.142C7.56086 16.066 7.45683 15.9771 7.36414 15.877L6.89513 15.408C6.84378 15.3463 6.77963 15.2965 6.70712 15.262C6.68335 15.2598 6.65939 15.2627 6.63681 15.2705C6.61423 15.2782 6.59354 15.2907 6.57613 15.307L6.52913 15.26L6.93913 14.85L7.74713 15.658C7.79936 15.7148 7.85734 15.7661 7.92014 15.811C7.94653 15.8272 7.97717 15.8352 8.00813 15.834C8.03463 15.8324 8.05957 15.821 8.07812 15.802C8.10369 15.7768 8.11992 15.7437 8.12413 15.708C8.12767 15.6282 8.11752 15.5484 8.09413 15.472L7.46213 14.84C7.41069 14.7784 7.34656 14.7286 7.27412 14.694C7.25035 14.6918 7.22639 14.6947 7.20381 14.7025C7.18123 14.7102 7.16055 14.7227 7.14313 14.739L7.09613 14.692L7.51013 14.283ZM5.98112 15.812L6.24913 16.08C6.20154 15.9455 6.17849 15.8036 6.18112 15.661C6.18518 15.585 6.21519 15.5126 6.26613 15.456C6.28378 15.4369 6.3056 15.4223 6.3299 15.4131C6.35419 15.4039 6.38028 15.4004 6.40613 15.403C6.46765 15.4126 6.52389 15.4433 6.56512 15.49C6.6158 15.5332 6.65093 15.5919 6.66513 15.657C6.67003 15.6803 6.66912 15.7044 6.66249 15.7272C6.65586 15.7501 6.64373 15.771 6.62714 15.788C6.60866 15.8067 6.58648 15.8213 6.56203 15.831C6.53758 15.8406 6.51138 15.8451 6.48512 15.844C6.45182 15.8421 6.41844 15.8421 6.38513 15.844C6.37295 15.8462 6.36175 15.8521 6.35313 15.861C6.34238 15.8727 6.33409 15.8864 6.32877 15.9013C6.32344 15.9163 6.32118 15.9322 6.32213 15.948C6.32399 16.0148 6.34329 16.08 6.37813 16.137C6.44254 16.2489 6.52195 16.3515 6.61414 16.442L6.88612 16.714L6.95813 16.784C6.98746 16.8167 7.02111 16.8453 7.05814 16.869C7.0853 16.8827 7.11628 16.887 7.14613 16.881C7.18572 16.8673 7.22163 16.8447 7.25113 16.815L7.29713 16.861L6.75414 17.404L6.70813 17.358C6.72533 17.3412 6.73842 17.3206 6.7464 17.2979C6.75438 17.2751 6.75702 17.2509 6.75414 17.227C6.71419 17.145 6.65725 17.0724 6.58713 17.014L5.93314 16.36C5.89183 16.3149 5.84553 16.2746 5.79514 16.24C5.77019 16.2249 5.74127 16.2175 5.71213 16.219C5.67676 16.2269 5.64404 16.2438 5.61713 16.268L5.57013 16.221L5.98112 15.812ZM4.90413 16.818C4.99208 16.7305 5.10551 16.673 5.22813 16.654C5.36398 16.6326 5.50309 16.6518 5.62813 16.709C5.77047 16.7715 5.89947 16.8608 6.00813 16.972C6.16158 17.1146 6.2703 17.2987 6.32112 17.502C6.34811 17.6019 6.34779 17.7072 6.32018 17.807C6.29256 17.9067 6.23866 17.9972 6.16412 18.069C6.09694 18.1411 6.01185 18.1941 5.91751 18.2225C5.82317 18.251 5.72298 18.2539 5.62714 18.231C5.41503 18.1848 5.22146 18.0766 5.07112 17.92C4.91064 17.7668 4.79987 17.5689 4.75313 17.352C4.72862 17.2579 4.72931 17.159 4.75511 17.0653C4.78091 16.9716 4.83093 16.8863 4.90013 16.818H4.90413ZM4.99812 16.904C4.97993 16.9226 4.96639 16.9453 4.95857 16.9701C4.95076 16.995 4.94888 17.0213 4.95312 17.047C4.97765 17.1394 5.02632 17.2236 5.09413 17.291C5.18146 17.395 5.31046 17.532 5.48112 17.702C5.56531 17.787 5.65483 17.8665 5.74913 17.94C5.80228 17.9855 5.86702 18.0152 5.93613 18.026C5.96027 18.0299 5.98499 18.0283 6.00839 18.0212C6.0318 18.0141 6.05325 18.0017 6.07112 17.985C6.08641 17.9706 6.09864 17.9532 6.10706 17.934C6.11548 17.9148 6.11993 17.894 6.12013 17.873C6.11701 17.8092 6.09469 17.7479 6.05612 17.697C5.91365 17.5172 5.7586 17.3478 5.59213 17.19C5.49676 17.0875 5.39083 16.9953 5.27612 16.915C5.22376 16.8795 5.16236 16.8598 5.09914 16.858C5.07942 16.8581 5.05992 16.8622 5.04185 16.8701C5.02379 16.878 5.00754 16.8895 4.99413 16.904H4.99812ZM4.17712 18.162C4.30602 18.0778 4.45304 18.0254 4.60612 18.009C4.68455 18.0076 4.76241 18.0226 4.83461 18.0533C4.90681 18.084 4.97173 18.1296 5.02513 18.187C5.08648 18.2449 5.13493 18.3151 5.16733 18.393C5.19972 18.4708 5.21533 18.5547 5.21313 18.639C5.19167 18.8808 5.07732 19.1048 4.89413 19.264L4.15312 20.005L4.10612 19.958C4.15676 19.9151 4.19623 19.8605 4.22113 19.799C4.23062 19.7632 4.22816 19.7253 4.21413 19.691C4.17018 19.6206 4.11628 19.557 4.05412 19.502L2.94113 18.389C2.88582 18.3265 2.82183 18.2723 2.75113 18.228C2.71666 18.2133 2.6782 18.2108 2.64214 18.221C2.58118 18.2464 2.52705 18.2858 2.48413 18.336L2.43713 18.289L3.13713 17.589C3.25014 17.4614 3.38883 17.3592 3.54413 17.289C3.64794 17.2544 3.75972 17.2516 3.86513 17.281C3.97189 17.3089 4.06924 17.3648 4.14713 17.443C4.22865 17.5231 4.27959 17.6293 4.29112 17.743C4.29498 17.8913 4.25423 18.0372 4.17413 18.162H4.17712ZM3.75214 18.519C3.83439 18.4466 3.89787 18.3553 3.93713 18.253C3.95936 18.1796 3.95936 18.1013 3.93713 18.028C3.90355 17.9436 3.85317 17.867 3.78905 17.8027C3.72493 17.7384 3.6484 17.6878 3.56413 17.654C3.49252 17.6315 3.41574 17.6315 3.34413 17.654C3.24212 17.6961 3.15137 17.7616 3.07913 17.845L3.75214 18.519ZM3.85213 18.619L4.40213 19.169L4.46413 19.233C4.49824 19.2727 4.5454 19.299 4.59712 19.307C4.62014 19.3079 4.64306 19.3036 4.66418 19.2944C4.68531 19.2853 4.7041 19.2715 4.71913 19.254C4.77506 19.1993 4.81455 19.13 4.83313 19.054C4.8515 18.9733 4.84487 18.8889 4.81413 18.812C4.78054 18.7256 4.72868 18.6475 4.66212 18.583C4.58871 18.5073 4.49866 18.4498 4.39912 18.415C4.31418 18.3841 4.22107 18.3841 4.13612 18.415C4.02678 18.462 3.92837 18.5311 3.84712 18.618L3.85213 18.619ZM11.8621 7.19501C11.9269 7.19485 11.9909 7.20955 12.0492 7.23798C12.1074 7.26641 12.1584 7.30781 12.1981 7.35901C12.2905 7.46923 12.3395 7.60926 12.3361 7.753C12.3398 7.89634 12.2902 8.03596 12.1971 8.14499C12.1571 8.19553 12.1062 8.23635 12.0482 8.26441C11.9902 8.29247 11.9266 8.30704 11.8621 8.30701C11.798 8.3071 11.7346 8.29254 11.6769 8.26447C11.6192 8.2364 11.5687 8.19554 11.5291 8.14499C11.4367 8.03562 11.3876 7.89615 11.3911 7.753C11.3878 7.60926 11.4368 7.46923 11.5291 7.35901C11.5678 7.30853 11.6174 7.26744 11.6742 7.23887C11.731 7.21029 11.7935 7.19495 11.8571 7.19401L11.8621 7.19501ZM11.8311 3.69501V3.818C11.6767 3.85426 11.5423 3.94887 11.4561 4.08201C11.312 4.33121 11.1931 4.59419 11.1011 4.86701L9.77612 8.32599H9.68213L8.36212 4.72599C8.2774 4.4625 8.17069 4.20662 8.04312 3.961C8.00472 3.91755 7.95789 3.88237 7.90546 3.85761C7.85302 3.83285 7.79608 3.81903 7.73813 3.81699V3.69401H9.58313V3.81699H9.52113C9.40262 3.8049 9.28331 3.83044 9.18013 3.88999C9.15827 3.90746 9.14095 3.92995 9.12964 3.95554C9.11832 3.98113 9.11334 4.00907 9.11513 4.03699C9.11645 4.08514 9.12418 4.13289 9.13812 4.17899C9.15346 4.23366 9.20446 4.38002 9.29112 4.61802L10.1111 6.87201L10.8721 4.865C10.9628 4.62233 11.0185 4.45966 11.0391 4.37699C11.0579 4.30849 11.0683 4.23799 11.0701 4.167C11.0715 4.105 11.0559 4.04381 11.0251 3.99C10.9941 3.93804 10.9476 3.89711 10.8921 3.87299C10.7895 3.83102 10.679 3.81161 10.5681 3.81601V3.693L11.8311 3.69501ZM6.97313 7.19501C7.03794 7.19485 7.10194 7.20955 7.16019 7.23798C7.21843 7.26641 7.26938 7.30781 7.30913 7.35901C7.40144 7.46923 7.4505 7.60926 7.44713 7.753C7.45075 7.89634 7.40125 8.03596 7.30814 8.14499C7.26825 8.19537 7.21748 8.23609 7.15964 8.26407C7.1018 8.29205 7.03839 8.30658 6.97414 8.30658C6.90988 8.30658 6.84646 8.29205 6.78862 8.26407C6.73078 8.23609 6.68 8.19537 6.64012 8.14499C6.5477 8.03562 6.49861 7.89615 6.50214 7.753C6.49877 7.60926 6.5478 7.46923 6.64012 7.35901C6.67868 7.30866 6.72812 7.26765 6.78474 7.23908C6.84137 7.21051 6.90372 7.1951 6.96713 7.19401L6.97313 7.19501ZM4.96114 5.823C5.24265 5.8818 5.5062 6.00657 5.73013 6.18702C5.83558 6.28861 5.91839 6.41128 5.97319 6.54706C6.02799 6.68285 6.05352 6.82869 6.04813 6.97501C6.05272 7.13249 6.02401 7.28914 5.96387 7.43476C5.90373 7.58037 5.81351 7.71167 5.69913 7.82001C5.35115 8.10946 4.90456 8.25282 4.45312 8.22001H2.49812V8.09601C2.62171 8.10635 2.74595 8.08643 2.86012 8.038C2.91975 8.00308 2.96643 7.94973 2.99313 7.88599C3.02785 7.73494 3.04065 7.57969 3.03113 7.42499V4.487C3.04048 4.33198 3.02769 4.17641 2.99313 4.025C2.9667 3.96047 2.91908 3.90686 2.85812 3.87299C2.74429 3.8259 2.62094 3.80639 2.49812 3.81601V3.693H4.34312C4.6617 3.67227 4.98106 3.71931 5.28014 3.831C5.46281 3.92269 5.61393 4.06685 5.71413 4.245C5.81849 4.42264 5.87338 4.62497 5.87312 4.831C5.87588 5.04261 5.80521 5.24865 5.67313 5.41401C5.48105 5.62011 5.23049 5.76247 4.95512 5.822L4.96114 5.823ZM3.92813 5.73301C4.13219 5.74587 4.33634 5.70917 4.52313 5.62601C4.64862 5.55726 4.75092 5.45285 4.81712 5.32599C4.88403 5.17025 4.91855 5.00253 4.91855 4.83301C4.91855 4.6635 4.88403 4.49575 4.81712 4.34C4.7533 4.21546 4.65278 4.11354 4.52913 4.04801C4.33961 3.96853 4.13418 3.93428 3.92912 3.948L3.92813 5.73301ZM3.92813 5.99302V7.44501V7.612C3.92112 7.70905 3.94876 7.80543 4.00613 7.88401C4.03528 7.91568 4.07116 7.94038 4.11115 7.9563C4.15113 7.97223 4.19418 7.97896 4.23712 7.97599C4.38525 7.97686 4.53057 7.9356 4.65613 7.857C4.78674 7.7748 4.88928 7.65483 4.95013 7.51301C5.0189 7.35543 5.053 7.18491 5.05013 7.01301C5.05329 6.8162 5.01049 6.62136 4.92513 6.44401C4.85569 6.29002 4.73425 6.16542 4.58212 6.09202C4.3716 6.01265 4.14672 5.97857 3.92213 5.99201L3.92813 5.99302Z" fill="#000F1D"/>
</svg>
