<svg width="86" height="32" viewBox="0 0 86 32" fill="none" xmlns="http://www.w3.org/2000/svg">
<mask id="mask0_895_822" style="mask-type:luminance" maskUnits="userSpaceOnUse" x="0" y="0" width="86" height="32">
<path d="M0 0H85.231V32H0V0Z" fill="white"/>
</mask>
<g mask="url(#mask0_895_822)">
<path d="M36.645 0H43.8L52.383 23.12H45.228L36.645 0ZM46.653 0H54L59.289 12.94L62.87 0H69.616L73.2 12.94L77.914 0H85.23L77.28 23.12H70.28L66.259 8.563L62.205 23.12H55.205L46.653 0ZM0 16.555V21.725H32.718L31.293 16.555H0Z" fill="white"/>
<path d="M33.826 0H26.035L18.813 14.906H26.257L29.836 6.565L35.03 23.12H42.504L33.826 0ZM15.519 23.374L11.624 32H18.908L22.614 23.374H15.519ZM24.831 26.074H25.465V28.136C25.4585 28.2533 25.4692 28.3709 25.497 28.485C25.4959 28.5986 25.5309 28.7096 25.597 28.802C25.6558 28.9085 25.7435 28.9962 25.85 29.055C25.9973 29.1282 26.1608 29.1626 26.325 29.155C26.489 29.159 26.6516 29.1248 26.8 29.055C26.9066 28.9963 26.9943 28.9085 27.053 28.802C27.1151 28.7076 27.1497 28.5979 27.153 28.485C27.153 28.358 27.185 28.232 27.185 28.136V26.069H27.818V28.353C27.8207 28.5574 27.7869 28.7606 27.718 28.953C27.6612 29.1132 27.5629 29.2553 27.433 29.365C27.2973 29.4865 27.1344 29.5736 26.958 29.619C26.568 29.7451 26.1481 29.7451 25.758 29.619C25.5846 29.5667 25.4232 29.4807 25.283 29.366C25.1603 29.2497 25.0632 29.109 24.998 28.953C24.9311 28.7602 24.8989 28.5571 24.903 28.353V26.069L24.831 26.074ZM28.38 27.052H28.918V27.433C29.0006 27.2872 29.1212 27.1665 29.267 27.084C29.407 26.9903 29.574 26.9457 29.742 26.957C29.8623 26.9471 29.9833 26.9617 30.0977 26.9999C30.2122 27.038 30.3177 27.099 30.408 27.179C30.4927 27.2674 30.5588 27.3719 30.6022 27.4863C30.6457 27.6007 30.6657 27.7227 30.661 27.845V29.621H30.091V28C30.0919 27.8429 30.0479 27.6888 29.964 27.556C29.9143 27.5077 29.8543 27.4711 29.7885 27.4492C29.7227 27.4272 29.6528 27.4203 29.584 27.429C29.4957 27.4314 29.4089 27.4532 29.33 27.493C29.2591 27.5362 29.1951 27.5898 29.14 27.652C29.0794 27.7139 29.0356 27.7903 29.013 27.874C28.9868 27.956 28.976 28.0421 28.981 28.128V29.65H28.411V27.05H28.38V27.052ZM30.98 27.052H31.423V26.291H31.993V27.052H32.5V27.465H31.993V29.019C31.9981 29.0539 32.009 29.0876 32.025 29.119C32.057 29.151 32.057 29.182 32.125 29.182C32.177 29.1958 32.2298 29.2065 32.283 29.214H32.41C32.4548 29.2187 32.4998 29.2074 32.537 29.182V29.626C32.472 29.621 32.4068 29.632 32.347 29.658H32.157C32.0397 29.6685 31.9215 29.6576 31.808 29.626C31.7245 29.6031 31.6481 29.5594 31.586 29.499C31.5551 29.4711 31.5305 29.4368 31.5141 29.3984C31.4977 29.3601 31.4898 29.3187 31.491 29.277C31.4648 29.1841 31.454 29.0874 31.459 28.991V27.465H31.015V27.052H30.98ZM33.32 28.48C33.315 28.5761 33.3258 28.6724 33.352 28.765C33.3813 28.8556 33.4241 28.9412 33.479 29.019C33.539 29.089 33.6152 29.1433 33.701 29.177C33.8021 29.2168 33.9094 29.2384 34.018 29.241C34.1615 29.2419 34.3029 29.2076 34.43 29.141C34.5379 29.0636 34.6162 28.9518 34.652 28.824H35.19C35.151 28.9562 35.098 29.084 35.032 29.205C34.9562 29.3075 34.8712 29.4029 34.778 29.49C34.6714 29.5613 34.5539 29.6147 34.43 29.648C34.2961 29.6873 34.1576 29.7088 34.018 29.712C33.834 29.7125 33.6515 29.6786 33.48 29.612C33.3292 29.5543 33.1976 29.4556 33.1 29.327C32.8733 29.0497 32.7499 28.7022 32.751 28.344C32.7505 28.1697 32.7845 27.9971 32.851 27.836C32.9037 27.6721 32.9898 27.5209 33.104 27.392C33.2084 27.2705 33.3381 27.1732 33.484 27.107C33.6447 27.0404 33.8171 27.0064 33.991 27.007C34.1785 27 34.3644 27.0439 34.529 27.134C34.6876 27.2227 34.8275 27.3412 34.941 27.483C35.0524 27.6214 35.1285 27.7847 35.163 27.959C35.2208 28.1438 35.2318 28.34 35.195 28.53H33.319L33.32 28.48ZM34.65 28.099C34.6478 28.0111 34.6263 27.9247 34.587 27.846C34.5642 27.7624 34.5205 27.686 34.46 27.624C34.4051 27.5617 34.341 27.5081 34.27 27.465C34.1914 27.4254 34.105 27.4035 34.017 27.401C33.9192 27.4069 33.823 27.4285 33.732 27.465C33.6463 27.4988 33.5701 27.5531 33.51 27.623C33.4497 27.6851 33.406 27.7615 33.383 27.845C33.3473 27.9253 33.326 28.0113 33.32 28.099H34.65ZM35.664 27.052H36.202V27.56L36.297 27.37C36.361 27.306 36.397 27.243 36.456 27.18C36.5226 27.1259 36.5976 27.083 36.678 27.053C36.758 27.0173 36.8436 26.9959 36.931 26.99H37.121V27.529C37.0766 27.5335 37.032 27.5222 36.995 27.497H36.868C36.7702 27.5029 36.674 27.5245 36.583 27.561C36.4973 27.5948 36.4211 27.6491 36.361 27.719C36.2835 27.7983 36.2289 27.8971 36.203 28.005C36.1609 28.1273 36.1392 28.2557 36.139 28.385V29.622H35.569V27.052H35.669H35.664ZM37.438 27.052H37.98V27.433C38.0621 27.2872 38.1824 27.1665 38.328 27.084C38.468 26.9904 38.635 26.9458 38.803 26.957C38.9231 26.9472 39.0439 26.9619 39.1582 27C39.2725 27.0382 39.3779 27.099 39.468 27.179C39.5527 27.2674 39.6188 27.3719 39.6622 27.4863C39.7057 27.6007 39.7257 27.7227 39.721 27.845V29.621H39.15V28C39.1512 27.8429 39.1071 27.6888 39.023 27.556C38.9733 27.5076 38.9133 27.471 38.8475 27.4491C38.7817 27.4271 38.7118 27.4202 38.643 27.429C38.555 27.4315 38.4686 27.4534 38.39 27.493C38.3191 27.5362 38.2551 27.5898 38.2 27.652C38.1397 27.7141 38.096 27.7905 38.073 27.874C38.0468 27.956 38.036 28.0421 38.041 28.128V29.65H37.471V27.05H37.439L37.438 27.052ZM40.732 28.48C40.727 28.5761 40.7378 28.6724 40.764 28.765C40.7934 28.8555 40.8363 28.9411 40.891 29.019C40.9511 29.089 41.0273 29.1432 41.113 29.177C41.2141 29.2168 41.3214 29.2384 41.43 29.241C41.5735 29.2419 41.715 29.2076 41.842 29.141C41.95 29.0638 42.0283 28.9519 42.064 28.824H42.602C42.5628 28.9562 42.5099 29.0839 42.444 29.205C42.3686 29.3075 42.2839 29.4029 42.191 29.49C42.0841 29.5614 41.9662 29.6148 41.842 29.648C41.7081 29.6873 41.5696 29.7088 41.43 29.712C41.246 29.7125 41.0636 29.6786 40.892 29.612C40.7412 29.5543 40.6096 29.4556 40.512 29.327C40.2852 29.0497 40.1619 28.7022 40.163 28.344C40.1623 28.1697 40.1963 27.997 40.263 27.836C40.3156 27.672 40.4018 27.5208 40.516 27.392C40.6204 27.2705 40.7501 27.1732 40.896 27.107C41.0567 27.0404 41.2291 27.0064 41.403 27.007C41.5905 27.0001 41.7764 27.044 41.941 27.134C42.0994 27.2229 42.2393 27.3414 42.353 27.483C42.4642 27.6215 42.5403 27.7848 42.575 27.959C42.6328 28.1438 42.6438 28.34 42.607 28.53H40.731L40.732 28.48ZM42.062 28.099C42.0595 28.011 42.0377 27.9246 41.998 27.846C41.9754 27.7623 41.9317 27.6859 41.871 27.624C41.8161 27.5617 41.752 27.5081 41.681 27.465C41.6024 27.4254 41.516 27.4035 41.428 27.401C41.3302 27.4069 41.234 27.4286 41.143 27.465C41.0573 27.4989 40.9812 27.5532 40.921 27.623C40.8608 27.6852 40.8172 27.7616 40.794 27.845C40.7583 27.9253 40.737 28.0113 40.731 28.099H42.062ZM43.044 26.069H43.614V27.4C43.6786 27.2674 43.7923 27.1651 43.931 27.115C44.077 27.0356 44.2399 26.9921 44.406 26.988C44.5261 26.9781 44.647 26.9927 44.7613 27.0308C44.8756 27.069 44.981 27.1299 45.071 27.21C45.1558 27.2983 45.2219 27.4028 45.2654 27.5172C45.3089 27.6316 45.3288 27.7537 45.324 27.876V29.652H44.754V28.036C44.7549 27.8789 44.7108 27.7249 44.627 27.592C44.5772 27.5437 44.5172 27.5072 44.4515 27.4853C44.3857 27.4633 44.3158 27.4564 44.247 27.465C44.1591 27.4672 44.0727 27.4887 43.994 27.528C43.9231 27.5713 43.8591 27.6248 43.804 27.687C43.7435 27.749 43.6997 27.8254 43.677 27.909C43.6507 27.9909 43.6398 28.0771 43.645 28.163V29.685H43.075V26.069H43.043H43.044ZM45.895 27.052H46.433V27.4C46.4674 27.3411 46.5102 27.2875 46.56 27.241C46.6044 27.1893 46.658 27.1462 46.718 27.114C46.7893 27.0748 46.8635 27.0414 46.94 27.014C47.0323 26.986 47.1289 26.9751 47.225 26.982C47.378 26.9845 47.5288 27.0186 47.668 27.082C47.794 27.155 47.8937 27.266 47.953 27.399C48.0538 27.2773 48.1713 27.1706 48.302 27.082C48.448 27.0025 48.6108 26.959 48.777 26.955C49.0043 26.9399 49.2295 27.0074 49.411 27.145C49.4956 27.2322 49.5594 27.3374 49.5977 27.4527C49.636 27.568 49.6477 27.6905 49.632 27.811V29.59H49.062V27.814C49.0602 27.7358 49.0385 27.6594 48.999 27.592C48.974 27.5353 48.9287 27.4901 48.872 27.465C48.7934 27.4254 48.707 27.4035 48.619 27.401C48.5399 27.3953 48.4606 27.4098 48.3886 27.443C48.3165 27.4762 48.2541 27.5271 48.207 27.591C48.1089 27.7413 48.0642 27.9202 48.08 28.099V29.621H47.51V27.972C47.5187 27.8277 47.4839 27.6842 47.41 27.56C47.3668 27.5118 47.3123 27.475 47.2514 27.4528C47.1906 27.4306 47.1252 27.4238 47.061 27.433C46.9859 27.4279 46.9106 27.4388 46.84 27.465C46.7698 27.496 46.7055 27.539 46.65 27.592C46.59 27.6542 46.5466 27.7305 46.524 27.814C46.4976 27.9069 46.4868 28.0036 46.492 28.1V29.622H45.922V27.053H45.89L45.895 27.052ZM50.68 28.48C50.675 28.5761 50.6858 28.6724 50.712 28.765C50.7414 28.8555 50.7843 28.9411 50.839 29.019C50.8991 29.089 50.9753 29.1432 51.061 29.177C51.1621 29.2168 51.2694 29.2384 51.378 29.241C51.5215 29.2419 51.663 29.2076 51.79 29.141C51.8981 29.0639 51.9765 28.952 52.012 28.824H52.55C52.5108 28.9562 52.4579 29.0839 52.392 29.205C52.3166 29.3075 52.2319 29.4029 52.139 29.49C52.0321 29.5614 51.9142 29.6148 51.79 29.648C51.6561 29.6873 51.5176 29.7088 51.378 29.712C51.194 29.7125 51.0116 29.6786 50.84 29.612C50.6893 29.5543 50.5577 29.4556 50.46 29.327C50.2334 29.0497 50.1104 28.7021 50.112 28.344C50.11 28.1701 50.1423 27.9974 50.207 27.836C50.2598 27.6721 50.346 27.521 50.46 27.392C50.5644 27.2705 50.6941 27.1732 50.84 27.107C51.0007 27.0404 51.1731 27.0064 51.347 27.007C51.5345 27 51.7204 27.0439 51.885 27.134C52.0434 27.2229 52.1833 27.3414 52.297 27.483C52.408 27.6215 52.4838 27.7848 52.518 27.959C52.576 28.1437 52.587 28.34 52.55 28.53H50.68V28.48ZM52.01 28.099C52.0077 28.011 51.9859 27.9245 51.946 27.846C51.9234 27.7623 51.8797 27.6859 51.819 27.624C51.7641 27.5617 51.7 27.5081 51.629 27.465C51.5504 27.4254 51.464 27.4035 51.376 27.401C51.2782 27.4069 51.182 27.4286 51.091 27.465C51.0053 27.4989 50.9292 27.5532 50.869 27.623C50.8088 27.6852 50.7652 27.7616 50.742 27.845C50.7063 27.9253 50.685 28.0113 50.679 28.099H52.01ZM52.992 27.052H53.53V27.433C53.6122 27.2872 53.7325 27.1666 53.878 27.084C54.018 26.9905 54.185 26.9458 54.353 26.957C54.4731 26.9472 54.5939 26.9619 54.7082 27C54.8225 27.0382 54.9279 27.099 55.018 27.179C55.1028 27.2673 55.1689 27.3718 55.2123 27.4862C55.2558 27.6007 55.2758 27.7227 55.271 27.845V29.621H54.701V28C54.7022 27.843 54.6585 27.689 54.575 27.556C54.5252 27.5077 54.4652 27.4712 54.3995 27.4493C54.3337 27.4273 54.2638 27.4204 54.195 27.429C54.107 27.4315 54.0206 27.4534 53.942 27.493C53.871 27.5361 53.807 27.5897 53.752 27.652C53.6914 27.7139 53.6477 27.7903 53.625 27.874C53.5987 27.9559 53.5878 28.0421 53.593 28.128V29.65H53.023V27.05L52.992 27.052ZM56.28 28.8C56.296 28.9365 56.3641 29.0615 56.47 29.149C56.5855 29.2156 56.7167 29.2501 56.85 29.249H57.04C57.103 29.249 57.167 29.217 57.23 29.217C57.294 29.185 57.33 29.153 57.388 29.117C57.4333 29.0644 57.4563 28.9963 57.452 28.927C57.449 28.8902 57.4386 28.8544 57.4214 28.8218C57.4042 28.7891 57.3806 28.7603 57.352 28.737C57.289 28.705 57.225 28.637 57.162 28.61C57.0834 28.5704 56.997 28.5485 56.909 28.546C56.809 28.515 56.719 28.515 56.592 28.483C56.497 28.451 56.371 28.42 56.275 28.383C56.1822 28.3603 56.0957 28.3169 56.022 28.256C55.951 28.1889 55.8873 28.1145 55.832 28.034C55.7926 27.9328 55.7709 27.8256 55.768 27.717C55.767 27.5935 55.8018 27.4723 55.868 27.368C55.9367 27.2779 56.0227 27.2024 56.121 27.146C56.2295 27.0845 56.3474 27.0416 56.47 27.019C56.7216 26.9769 56.9784 26.9769 57.23 27.019C57.3425 27.0418 57.4499 27.0848 57.547 27.146C57.6465 27.2141 57.7323 27.3002 57.8 27.4C57.8662 27.5178 57.9093 27.6471 57.927 27.781H57.327C57.3025 27.6652 57.2345 27.5631 57.137 27.496C57.0251 27.4566 56.9077 27.435 56.789 27.432H56.662C56.598 27.432 56.562 27.464 56.504 27.464C56.44 27.496 56.404 27.496 56.377 27.564C56.3569 27.5819 56.3409 27.6039 56.3299 27.6284C56.3189 27.653 56.3132 27.6796 56.3132 27.7065C56.3132 27.7334 56.3189 27.76 56.3299 27.7846C56.3409 27.8091 56.3569 27.8311 56.377 27.849L56.567 27.949C56.6467 27.9841 56.733 28.0016 56.82 28C56.92 28.032 57.01 28.032 57.137 28.064C57.237 28.096 57.327 28.128 57.454 28.164C57.5468 28.187 57.6332 28.2304 57.707 28.291C57.7779 28.3582 57.8416 28.4326 57.897 28.513C57.9508 28.6094 57.9729 28.7203 57.96 28.83C57.9666 28.9636 57.9336 29.0962 57.865 29.211C57.7934 29.3185 57.6952 29.4057 57.58 29.464C57.4622 29.5361 57.3341 29.5897 57.2 29.623C57.0644 29.6496 56.9261 29.6603 56.788 29.655C56.6383 29.6517 56.4896 29.6302 56.345 29.591C56.2208 29.5578 56.1029 29.5044 55.996 29.433C55.8884 29.3611 55.8013 29.2626 55.743 29.147C55.6802 29.0296 55.646 28.8991 55.643 28.766H56.28V28.8ZM58.18 27.055H58.78L59.445 29.022L60.079 27.055H60.679L59.761 29.624H59.127L58.177 27.055H58.18ZM61.442 28.483C61.437 28.5791 61.4478 28.6754 61.474 28.768C61.5034 28.8585 61.5463 28.9441 61.601 29.022C61.6611 29.092 61.7373 29.1462 61.823 29.18C61.9241 29.2197 62.0314 29.2414 62.14 29.244C62.2835 29.2449 62.425 29.2106 62.552 29.144C62.6601 29.0669 62.7385 28.955 62.774 28.827H63.312C63.2728 28.9592 63.2199 29.0869 63.154 29.208C63.0786 29.3105 62.9939 29.4059 62.901 29.493C62.7941 29.5644 62.6762 29.6178 62.552 29.651C62.4181 29.6903 62.2796 29.7118 62.14 29.715C61.956 29.7155 61.7736 29.6816 61.602 29.615C61.4513 29.5573 61.3197 29.4586 61.222 29.33C60.9958 29.0524 60.8729 28.7051 60.874 28.347C60.8733 28.1727 60.9073 28 60.974 27.839C61.0266 27.675 61.1128 27.5238 61.227 27.395C61.3314 27.2735 61.4611 27.1762 61.607 27.11C61.7677 27.0434 61.9401 27.0094 62.114 27.01C62.3015 27.003 62.4874 27.0469 62.652 27.137C62.8104 27.2259 62.9503 27.3444 63.064 27.486C63.175 27.6245 63.2508 27.7878 63.285 27.962C63.343 28.1467 63.354 28.343 63.317 28.533H61.445V28.48L61.442 28.483ZM62.772 28.102C62.7697 28.014 62.7479 27.9275 62.708 27.849C62.6854 27.7653 62.6417 27.6889 62.581 27.627C62.5261 27.5647 62.462 27.5111 62.391 27.468C62.3124 27.4284 62.226 27.4065 62.138 27.404C62.0402 27.41 61.944 27.4316 61.853 27.468C61.7673 27.5019 61.6912 27.5562 61.631 27.626C61.5708 27.6882 61.5272 27.7646 61.504 27.848C61.4684 27.9283 61.447 28.0143 61.441 28.102H62.772ZM63.785 27.055H64.323V27.563L64.423 27.373C64.486 27.309 64.523 27.246 64.581 27.183C64.6477 27.129 64.7227 27.0862 64.803 27.056C64.883 27.0203 64.9686 26.999 65.056 26.993H65.246V27.532C65.2012 27.5366 65.1563 27.5253 65.119 27.5H64.992C64.8942 27.5059 64.798 27.5275 64.707 27.564C64.6213 27.5979 64.5452 27.6522 64.485 27.722C64.4075 27.8013 64.3529 27.9001 64.327 28.008C64.2854 28.1304 64.2641 28.2587 64.264 28.388V29.625H63.694V27.052H63.789L63.785 27.055ZM65.527 26.072H66.097V27.372C66.1326 27.3044 66.1876 27.249 66.255 27.213C66.3105 27.1599 66.3748 27.1169 66.445 27.086C66.5159 27.0468 66.5898 27.0133 66.666 26.986C66.7369 26.9598 66.8126 26.9489 66.888 26.954C67.072 26.9537 67.2544 26.9876 67.426 27.054C67.5769 27.112 67.7085 27.2111 67.806 27.34C67.8984 27.4779 67.9727 27.6271 68.027 27.784C68.0814 27.9582 68.1031 28.1409 68.091 28.323C68.0854 28.4936 68.064 28.6633 68.027 28.83C67.9831 28.9856 67.9193 29.1348 67.837 29.274C67.744 29.3947 67.6246 29.4925 67.488 29.56C67.3308 29.6393 67.158 29.6826 66.982 29.687C66.8964 29.6921 66.8106 29.6813 66.729 29.655C66.6417 29.649 66.556 29.6276 66.476 29.592C66.3926 29.5689 66.3162 29.5253 66.254 29.465C66.1844 29.4047 66.1302 29.3286 66.096 29.243V29.592H65.558V26.072H65.527ZM67.527 28.356C67.5326 28.2364 67.5215 28.1166 67.494 28C67.4714 27.8976 67.4286 27.8007 67.368 27.715C67.3186 27.6276 67.24 27.5603 67.146 27.525C67.0497 27.4711 66.9387 27.449 66.829 27.462C66.7255 27.457 66.6223 27.4774 66.5285 27.5215C66.4347 27.5656 66.3532 27.6321 66.291 27.715C66.1536 27.9088 66.0866 28.1438 66.101 28.381C66.0945 28.4983 66.1052 28.6159 66.133 28.73C66.1495 28.8345 66.1933 28.9329 66.26 29.015C66.3094 29.1024 66.388 29.1697 66.482 29.205C66.5833 29.2442 66.6905 29.2655 66.799 29.268C66.9127 29.2754 67.0252 29.2416 67.116 29.173C67.2045 29.1153 67.2798 29.0397 67.337 28.951C67.4434 28.7673 67.5083 28.5625 67.527 28.351V28.356ZM70.727 29.056C70.7188 29.1111 70.7301 29.1674 70.759 29.215C70.772 29.2278 70.7879 29.2373 70.8052 29.2428C70.8226 29.2484 70.841 29.2498 70.859 29.247H71.017V29.628C70.985 29.628 70.985 29.628 70.954 29.66C70.936 29.6572 70.9176 29.6586 70.9002 29.6642C70.8829 29.6697 70.867 29.6792 70.854 29.692H70.664C70.5651 29.6909 70.4678 29.6666 70.38 29.621C70.2956 29.561 70.2384 29.4701 70.221 29.368C70.0956 29.4704 69.9571 29.5555 69.809 29.621C69.6564 29.6734 69.495 29.6951 69.334 29.685C69.2168 29.6903 69.0994 29.6795 68.985 29.653C68.8846 29.6242 68.7886 29.5814 68.7 29.526C68.6124 29.4768 68.5451 29.3981 68.51 29.304C68.4555 29.2078 68.4331 29.0968 68.446 28.987C68.4409 28.8529 68.4757 28.7203 68.546 28.606C68.5943 28.5101 68.6721 28.4322 68.768 28.384C68.8649 28.3225 68.9724 28.2794 69.085 28.257C69.212 28.225 69.307 28.225 69.434 28.193C69.5266 28.1668 69.6229 28.156 69.719 28.161C69.814 28.161 69.909 28.129 69.972 28.129C70.0288 28.1027 70.0819 28.0691 70.13 28.029C70.1747 27.9761 70.1973 27.9081 70.193 27.839C70.1866 27.7717 70.165 27.7068 70.13 27.649C70.098 27.617 70.066 27.549 70.003 27.549C69.939 27.517 69.903 27.517 69.845 27.485H69.655C69.5212 27.4799 69.3889 27.5147 69.275 27.585C69.2229 27.6191 69.1809 27.6664 69.1531 27.7221C69.1253 27.7778 69.1129 27.8399 69.117 27.902H68.547C68.5509 27.7556 68.5948 27.6131 68.674 27.49C68.7418 27.3903 68.8276 27.3042 68.927 27.236C69.0381 27.1565 69.1705 27.1123 69.307 27.109C69.4427 27.0826 69.5809 27.0719 69.719 27.077C69.8465 27.0719 69.9742 27.0827 70.099 27.109C70.2115 27.1319 70.3189 27.1749 70.416 27.236C70.5116 27.2844 70.589 27.3622 70.637 27.458C70.7034 27.5622 70.7381 27.6835 70.737 27.807V29.044L70.727 29.056ZM70.157 28.326C70.0647 28.3922 69.9536 28.4272 69.84 28.426C69.7113 28.4316 69.5837 28.4528 69.46 28.489C69.4068 28.4965 69.354 28.5072 69.302 28.521C69.238 28.553 69.202 28.553 69.144 28.584C69.103 28.6196 69.069 28.6627 69.044 28.711C69.018 28.7708 69.0071 28.836 69.012 28.901C69.0132 28.9596 69.0356 29.0157 69.075 29.059C69.107 29.091 69.175 29.123 69.202 29.159C69.265 29.191 69.302 29.191 69.36 29.223H69.518C69.583 29.228 69.6482 29.217 69.708 29.191C69.7848 29.1672 69.8589 29.1353 69.929 29.096C69.9965 29.0601 70.0515 29.0047 70.087 28.937C70.1271 28.8697 70.1492 28.7933 70.151 28.715V28.334L70.157 28.326ZM71.329 27.058H71.867V27.439C71.9496 27.2932 72.0702 27.1725 72.216 27.09C72.356 26.9964 72.523 26.9518 72.691 26.963C72.8111 26.9532 72.932 26.9678 73.0462 27.0059C73.1605 27.0441 73.2659 27.105 73.356 27.185C73.4409 27.2733 73.507 27.3777 73.5505 27.4922C73.594 27.6066 73.6139 27.7287 73.609 27.851V29.627H73.039V28C73.0402 27.8429 72.9961 27.6888 72.912 27.556C72.8623 27.5077 72.8023 27.4711 72.7365 27.4492C72.6707 27.4272 72.6008 27.4203 72.532 27.429C72.444 27.4315 72.3576 27.4534 72.279 27.493C72.2081 27.5363 72.1441 27.5898 72.089 27.652C72.0285 27.714 71.9848 27.7904 71.962 27.874C71.9358 27.956 71.925 28.0421 71.93 28.128V29.65H71.36V27.05L71.329 27.058ZM76.618 29.627H76.08V29.278C76.0476 29.3524 75.9998 29.419 75.9399 29.4737C75.8799 29.5283 75.8091 29.5696 75.732 29.595C75.5826 29.6616 75.4207 29.6957 75.257 29.695C75.073 29.6953 74.8906 29.6614 74.719 29.595C74.568 29.5372 74.4364 29.4381 74.339 29.309C74.2398 29.175 74.1647 29.0247 74.117 28.865C74.0632 28.6907 74.0418 28.508 74.054 28.326C74.05 28.122 74.0821 27.9188 74.149 27.726C74.207 27.5741 74.2928 27.4344 74.402 27.314C74.5047 27.212 74.6224 27.1263 74.751 27.06C74.8819 27.0084 75.0227 26.9868 75.163 26.997C75.2486 26.9921 75.3344 27.0029 75.416 27.029C75.5035 27.0351 75.5892 27.0568 75.669 27.093C75.7495 27.1228 75.8245 27.1658 75.891 27.22C75.9529 27.2751 76.0061 27.3392 76.049 27.41V26.1H76.619V29.62L76.618 29.627ZM74.618 28.359C74.613 28.4657 74.6238 28.5725 74.65 28.676C74.6788 28.7768 74.7216 28.873 74.777 28.962C74.8264 29.0495 74.905 29.1167 74.999 29.152C75.0952 29.2066 75.2062 29.229 75.316 29.216C75.4296 29.2171 75.5406 29.1821 75.633 29.116C75.722 29.0587 75.7977 28.983 75.855 28.894C75.9103 28.8049 75.953 28.7087 75.982 28.608C76.0083 28.5045 76.0191 28.3977 76.014 28.291C76.0285 28.0538 75.9614 27.8188 75.824 27.625C75.7636 27.5477 75.6868 27.4848 75.5991 27.4409C75.5115 27.3969 75.4151 27.3731 75.317 27.371C75.1935 27.3698 75.0722 27.4046 74.968 27.471C74.8794 27.5284 74.804 27.6041 74.747 27.693C74.6916 27.7816 74.6488 27.8775 74.62 27.978C74.6356 28.1025 74.6356 28.2285 74.62 28.353L74.618 28.359Z" fill="white"/>
</g>
</svg>
