<svg width="166" height="29" viewBox="0 0 166 29" fill="none" xmlns="http://www.w3.org/2000/svg">
<g clip-path="url(#clip0_1040_854)">
<path d="M37.9789 6.76489H35.4894V21.9301H42.6549V19.6987H37.9789V6.76489Z" fill="white"/>
<path d="M51.4441 13.1992C51.1265 12.6937 50.6756 12.2967 50.0911 12.0077C49.5068 11.7188 48.9185 11.5743 48.3269 11.5743C47.5616 11.5743 46.8619 11.7152 46.2269 11.9968C45.5917 12.2784 45.047 12.6651 44.5924 13.1559C44.1378 13.647 43.784 14.214 43.5317 14.8564C43.2789 15.4993 43.1528 16.1748 43.1528 16.8822C43.1528 17.6046 43.2789 18.2833 43.5317 18.9187C43.784 19.5544 44.1378 20.1177 44.5924 20.6086C45.047 21.0997 45.5916 21.486 46.2269 21.7676C46.8617 22.0491 47.5616 22.19 48.3269 22.19C48.9185 22.19 49.5068 22.0455 50.0911 21.7568C50.6756 21.4681 51.1266 21.071 51.4441 20.5653V21.9302H53.8037V11.8344H51.4441V13.1992ZM51.2277 18.117C51.0834 18.5071 50.8814 18.8465 50.6216 19.1353C50.3618 19.4243 50.0479 19.6553 49.6799 19.8286C49.3117 20.002 48.9039 20.0885 48.4566 20.0885C48.0091 20.0885 47.605 20.002 47.2442 19.8286C46.8834 19.6552 46.5733 19.4243 46.3136 19.1353C46.0537 18.8465 45.8551 18.5071 45.7182 18.117C45.5807 17.7271 45.5126 17.3154 45.5126 16.8822C45.5126 16.4489 45.5807 16.0372 45.7182 15.6473C45.855 15.2574 46.0537 14.9182 46.3136 14.6292C46.5733 14.3405 46.8835 14.1092 47.2442 13.9359C47.605 13.7625 48.0091 13.676 48.4566 13.676C48.9039 13.676 49.3117 13.7625 49.6799 13.9359C50.0479 14.1093 50.3618 14.3405 50.6216 14.6292C50.8814 14.9182 51.0834 15.2574 51.2277 15.6473C51.3719 16.0372 51.4443 16.4489 51.4443 16.8822C51.4441 17.3154 51.3719 17.7271 51.2277 18.117Z" fill="white"/>
<path d="M70.6241 13.1992C70.3065 12.6937 69.8556 12.2967 69.2712 12.0077C68.6868 11.7188 68.0986 11.5743 67.5069 11.5743C66.7416 11.5743 66.042 11.7152 65.4069 11.9968C64.7718 12.2784 64.2271 12.6651 63.7724 13.1559C63.3178 13.647 62.964 14.214 62.7117 14.8564C62.4589 15.4993 62.3328 16.1748 62.3328 16.8822C62.3328 17.6046 62.4589 18.2833 62.7117 18.9187C62.964 19.5544 63.3178 20.1177 63.7724 20.6086C64.2271 21.0997 64.7716 21.486 65.4069 21.7676C66.0417 22.0491 66.7416 22.19 67.5069 22.19C68.0986 22.19 68.6868 22.0455 69.2712 21.7568C69.8556 21.4681 70.3066 21.071 70.6241 20.5653V21.9302H72.9837V11.8344H70.6241V13.1992ZM70.4076 18.117C70.2633 18.5071 70.0612 18.8465 69.8015 19.1353C69.5417 19.4243 69.2278 19.6553 68.8598 19.8286C68.4916 20.002 68.0838 20.0885 67.6365 20.0885C67.189 20.0885 66.7848 20.002 66.4241 19.8286C66.0632 19.6552 65.7532 19.4243 65.4934 19.1353C65.2335 18.8465 65.035 18.5071 64.8981 18.117C64.7606 17.7271 64.6924 17.3154 64.6924 16.8822C64.6924 16.4489 64.7606 16.0372 64.8981 15.6473C65.0348 15.2574 65.2335 14.9182 65.4934 14.6292C65.7532 14.3405 66.0634 14.1092 66.4241 13.9359C66.7848 13.7625 67.189 13.676 67.6365 13.676C68.0838 13.676 68.4916 13.7625 68.8598 13.9359C69.2278 14.1093 69.5417 14.3405 69.8015 14.6292C70.0612 14.9182 70.2633 15.2574 70.4076 15.6473C70.5517 16.0372 70.6241 16.4489 70.6241 16.8822C70.6241 17.3154 70.5517 17.7271 70.4076 18.117Z" fill="white"/>
<path d="M98.8689 6.76489H96.5095V21.9301H98.8689V6.76489Z" fill="white"/>
<path d="M55.6657 21.9302H58.0253V14.158H62.0735V11.8346H55.6657V21.9302Z" fill="white"/>
<path d="M82.4443 11.8346L79.4786 19.5656L76.513 11.8346H74.1226L77.9955 21.9302H80.9611L84.834 11.8346H82.4443Z" fill="white"/>
<path d="M89.98 11.5747C87.0908 11.5747 84.8036 13.9511 84.8036 16.8823C84.8036 20.1227 87.0172 22.1899 90.2824 22.1899C92.1098 22.1899 93.2769 21.4906 94.7023 19.9676L93.108 18.7332C93.108 18.7332 91.9048 20.3142 90.1099 20.3142C88.0233 20.3142 87.145 18.6306 87.145 17.7596H94.973C95.3843 14.4244 93.1931 11.5747 89.98 11.5747ZM87.1507 16.0049C87.1688 15.8106 87.4409 13.4503 89.9612 13.4503C92.4815 13.4503 92.7882 15.8103 92.8056 16.0049H87.1507Z" fill="white"/>
<path d="M28.3088 6.64624C28.3051 6.63293 28.2977 6.62127 28.293 6.60841C28.2842 6.58466 28.2767 6.56061 28.2642 6.53881C28.2556 6.52414 28.2434 6.51218 28.2334 6.49872C28.2203 6.48102 28.2091 6.4621 28.1934 6.44652C28.1805 6.43351 28.1641 6.42413 28.1495 6.41278C28.133 6.39992 28.1184 6.38524 28.1001 6.37465C28.1 6.37465 28.0997 6.37435 28.0995 6.3742L22.7099 3.26882C22.5713 3.18894 22.4005 3.18894 22.2618 3.26882L16.8724 6.37389C16.8722 6.37389 16.8725 6.37374 16.8724 6.37389C16.8722 6.37389 16.8718 6.37419 16.8718 6.37435C16.8535 6.38494 16.8387 6.39961 16.8224 6.41248C16.8078 6.42382 16.7913 6.43336 16.7785 6.44622C16.763 6.4618 16.7516 6.48071 16.7384 6.49842C16.7285 6.51188 16.7162 6.52399 16.7077 6.53851C16.6952 6.5603 16.6876 6.58451 16.6789 6.60811C16.6742 6.62097 16.6667 6.63262 16.6631 6.64594C16.653 6.68361 16.6476 6.7231 16.6476 6.76335V12.6611L12.1564 15.2488V3.71109C12.1564 3.67099 12.1509 3.6315 12.1408 3.59368C12.1372 3.58036 12.1298 3.56871 12.1251 3.55585C12.1163 3.53209 12.1087 3.50804 12.0962 3.48625C12.0877 3.47157 12.0755 3.45962 12.0655 3.44615C12.0524 3.42845 12.0412 3.40954 12.0255 3.39395C12.0126 3.38094 11.9961 3.37156 11.9816 3.36021C11.9651 3.34735 11.9505 3.33268 11.9321 3.32208C11.932 3.32208 11.9317 3.32178 11.9316 3.32163L6.54215 0.216411C6.4035 0.136522 6.23266 0.136522 6.09402 0.216411L0.704614 3.32163C0.704463 3.32163 0.704765 3.32148 0.704614 3.32163C0.704462 3.32163 0.70401 3.32193 0.70401 3.32208C0.685716 3.33268 0.670898 3.34735 0.654569 3.36021C0.640055 3.37156 0.623577 3.38109 0.610726 3.39395C0.595154 3.40954 0.583814 3.42845 0.570661 3.44615C0.560683 3.45962 0.548436 3.47172 0.53997 3.48625C0.527421 3.50804 0.519863 3.53225 0.511093 3.55585C0.506406 3.56871 0.498998 3.58036 0.495369 3.59368C0.485239 3.63135 0.479797 3.67084 0.479797 3.71109V22.1839C0.479797 22.3447 0.565672 22.4931 0.704916 22.5735L11.4836 28.7838C11.5072 28.7972 11.5326 28.8054 11.5577 28.8143C11.5695 28.8186 11.5804 28.8255 11.5924 28.8287C11.6301 28.8386 11.6689 28.8438 11.7077 28.8438C11.7464 28.8438 11.785 28.8388 11.8229 28.8287C11.8333 28.8259 11.8428 28.8197 11.8531 28.8161C11.8797 28.8069 11.9066 28.7981 11.9316 28.7838L22.7102 22.5735C22.8495 22.4932 22.9353 22.3447 22.9353 22.1839V16.2861L28.0996 13.3106C28.2389 13.2304 28.3248 13.0819 28.3248 12.921V6.76335C28.3243 6.72341 28.319 6.68392 28.3088 6.64624ZM11.7063 21.667L7.22388 19.1283L11.9313 16.416L17.0966 13.4398L21.5829 16.0247L18.2913 17.9051L11.7063 21.667ZM22.0368 10.1286V15.2489L20.1507 14.1623L17.5456 12.6614V7.54104L19.4317 8.62774L22.0368 10.1286ZM22.4858 4.1771L26.9751 6.76365L22.4858 9.3502L17.9966 6.76365L22.4858 4.1771ZM8.65306 17.2673L6.76696 18.3541V7.0761L9.37206 5.57516L11.2582 4.48849V15.7662L8.65306 17.2673ZM6.31778 1.12454L10.807 3.71109L6.31778 6.29764L1.82854 3.71109L6.31778 1.12454ZM1.37755 4.48864L3.26363 5.57531L5.86875 7.07625V19.1315C5.86875 19.1319 5.8689 19.132 5.8689 19.1323C5.8689 19.1326 5.86875 19.1329 5.86875 19.1332C5.86875 19.1505 5.87359 19.1667 5.87556 19.1836C5.87813 19.2057 5.87873 19.2281 5.88448 19.2493C5.88463 19.2496 5.88463 19.2501 5.88478 19.2504C5.88962 19.2681 5.89899 19.2839 5.90594 19.3009C5.91366 19.3197 5.91925 19.3395 5.92953 19.357C5.92968 19.3575 5.92983 19.358 5.93014 19.3584C5.93936 19.3743 5.95266 19.3872 5.9637 19.402C5.97594 19.4178 5.98623 19.4352 6.00059 19.4495C6.00104 19.4499 6.00135 19.4505 6.0018 19.451C6.0145 19.4635 6.03052 19.4724 6.04473 19.4835C6.06076 19.4961 6.07528 19.5104 6.09312 19.5209C6.09372 19.5212 6.09448 19.5213 6.09508 19.5217C6.09569 19.522 6.09614 19.5225 6.09674 19.5228L11.2582 22.4462V27.617L1.3777 21.9242L1.37755 4.48864ZM22.0368 21.9242L12.1564 27.617V22.4452L19.4737 18.2649L22.0368 16.8007V21.9242ZM27.4261 12.6614L22.9349 15.2489V10.1286L25.54 8.62774L27.4261 7.54104V12.6614Z" fill="white"/>
<path d="M111.509 18.8935C113.659 18.8935 115.175 17.2405 115.175 15.2395C115.175 13.2385 113.659 11.6 111.509 11.6H107.236V21.75H109.113V18.8935H111.509ZM109.113 17.2695V13.224H111.263C112.505 13.224 113.299 14.123 113.299 15.2395C113.299 16.356 112.505 17.2695 111.263 17.2695H109.113ZM122.156 14.5145V15.7615C121.795 14.993 120.813 14.3405 119.558 14.3405C117.421 14.3405 115.92 16.0515 115.92 18.1395C115.92 20.213 117.421 21.924 119.558 21.924C120.813 21.924 121.766 21.2425 122.185 20.503V21.75H123.931V14.5145H122.156ZM117.739 18.1395C117.739 16.878 118.605 15.8485 119.904 15.8485C121.102 15.8485 122.112 16.7475 122.112 18.1395C122.112 19.5315 121.102 20.416 119.904 20.416C118.605 20.416 117.739 19.401 117.739 18.1395ZM130.27 14.4565C128.999 14.4565 128.032 14.935 127.686 16.0805V14.5145H125.925V21.75H127.743V18.531C127.743 17.1245 128.422 16.269 129.88 16.269H130.27V14.4565ZM132.027 14.5145H130.685V16.0225H132.027V19.227C132.027 20.8945 132.662 21.924 134.365 21.924C134.827 21.924 135.405 21.8225 135.636 21.7355V20.271C135.39 20.3435 135.145 20.4015 134.842 20.4015C134.134 20.4015 133.846 20.068 133.846 19.314V16.0225H135.708V14.5145H133.846V12.354H132.027V14.5145ZM138.922 17.7045C138.922 16.6605 139.6 15.9355 140.596 15.9355C141.679 15.9355 142.141 16.6895 142.141 17.719V21.75H143.96V17.4145C143.96 15.6165 142.992 14.3405 141.26 14.3405C140.134 14.3405 139.196 14.906 138.864 15.747V14.5145H137.103V21.75H138.922V17.7045ZM153.016 18.7485V18.154C153.016 15.921 151.5 14.3405 149.234 14.3405C147.011 14.3405 145.438 15.9355 145.438 18.125C145.438 20.2855 146.867 21.924 149.321 21.924C151.038 21.924 152.424 20.9235 152.915 19.633H151.226C150.88 20.184 150.201 20.5755 149.321 20.5755C148.036 20.5755 147.343 19.836 147.228 18.7485H153.016ZM149.263 15.6455C150.432 15.6455 151.168 16.4285 151.284 17.545H147.213C147.357 16.3705 148.137 15.6455 149.263 15.6455ZM158.913 14.4565C157.643 14.4565 156.676 14.935 156.329 16.0805V14.5145H154.568V21.75H156.387V18.531C156.387 17.1245 157.066 16.269 158.523 16.269H158.913V14.4565ZM159.561 19.5895C159.748 21.228 160.946 21.924 162.448 21.924C163.92 21.924 165.277 20.996 165.277 19.5605C165.277 18.5165 164.714 17.8495 163.559 17.5305L162.274 17.168C161.755 17.023 161.495 16.849 161.495 16.3995C161.495 15.921 161.87 15.6165 162.433 15.6165C163.068 15.6165 163.371 16.0515 163.4 16.501H164.945C164.8 15.2395 163.934 14.3405 162.39 14.3405C160.961 14.3405 159.835 15.167 159.835 16.4865C159.835 17.6465 160.528 18.2555 161.769 18.5745L162.837 18.8645C163.371 19.0095 163.617 19.256 163.617 19.72C163.617 20.3 163.126 20.648 162.433 20.648C161.639 20.648 161.206 20.2565 161.105 19.5895H159.561Z" fill="white"/>
</g>
<defs>
<clipPath id="clip0_1040_854">
<rect width="166" height="29" fill="white"/>
</clipPath>
</defs>
</svg>
