<svg width="24" height="24" viewBox="0 0 24 24" fill="none" xmlns="http://www.w3.org/2000/svg">
<path d="M4.825 12.025L8.7 15.9C8.88333 16.0834 8.975 16.3167 8.975 16.6C8.975 16.8834 8.88333 17.1167 8.7 17.3C8.51666 17.4834 8.28333 17.575 8 17.575C7.71666 17.575 7.48333 17.4834 7.3 17.3L2.7 12.7C2.6 12.6 2.529 12.4917 2.487 12.375C2.445 12.2584 2.42466 12.1334 2.426 12C2.426 11.8667 2.447 11.7417 2.489 11.625C2.531 11.5084 2.60133 11.4 2.7 11.3L7.3 6.70002C7.5 6.50002 7.73766 6.40002 8.01299 6.40002C8.28833 6.40002 8.52566 6.50002 8.725 6.70002C8.925 6.90002 9.02499 7.13769 9.02499 7.41302C9.02499 7.68836 8.925 7.92569 8.725 8.12502L4.825 12.025ZM19.175 11.975L15.3 8.10002C15.1167 7.91669 15.025 7.68336 15.025 7.40002C15.025 7.11669 15.1167 6.88336 15.3 6.70002C15.4833 6.51669 15.7167 6.42502 16 6.42502C16.2833 6.42502 16.5167 6.51669 16.7 6.70002L21.3 11.3C21.4 11.4 21.471 11.5084 21.513 11.625C21.555 11.7417 21.5757 11.8667 21.575 12C21.575 12.1334 21.554 12.2584 21.512 12.375C21.47 12.4917 21.3993 12.6 21.3 12.7L16.7 17.3C16.5 17.5 16.2667 17.596 16 17.588C15.7333 17.58 15.5 17.4757 15.3 17.275C15.1 17.075 15 16.8377 15 16.563C15 16.2884 15.1 16.0507 15.3 15.85L19.175 11.975Z" fill="white"/>
</svg>
