<svg width="24" height="24" viewBox="0 0 24 24" fill="none" xmlns="http://www.w3.org/2000/svg">
<path d="M2.82873 6.72575C2.71938 6.72762 2.61077 6.70746 2.50938 6.66648C2.40799 6.62549 2.31588 6.56451 2.23855 6.48718C2.16122 6.40985 2.10024 6.31774 2.05925 6.21635C2.01827 6.11496 1.99811 6.00635 1.99998 5.897V2.43191C1.99509 2.34389 2.00899 2.25583 2.04074 2.1736C2.07249 2.09136 2.12138 2.01681 2.18414 1.95491C2.31805 1.8343 2.49398 1.77113 2.67403 1.77903C2.84455 1.77545 3.00974 1.83855 3.13444 1.95491C3.19721 2.01681 3.24609 2.09136 3.27785 2.1736C3.3096 2.25583 3.32349 2.34389 3.31861 2.43191V4.13913C4.51848 3.122 5.89279 2.3308 7.37488 1.8039C9.61653 0.996327 12.03 0.786971 14.3772 1.19648C16.7244 1.60598 18.9244 2.6202 20.7601 4.13913V2.43191C20.7589 2.34571 20.7749 2.26013 20.8074 2.18025C20.8398 2.10037 20.8879 2.0278 20.9488 1.96684C21.0098 1.90588 21.0824 1.85777 21.1623 1.82535C21.2421 1.79294 21.3277 1.77687 21.4139 1.77811C21.5038 1.77386 21.5936 1.78799 21.6778 1.81966C21.7621 1.85133 21.839 1.89986 21.9038 1.96228C21.964 2.02257 22.0114 2.09446 22.0431 2.1736C22.0747 2.25274 22.09 2.33748 22.088 2.4227V5.897C22.0898 6.00635 22.0697 6.11496 22.0287 6.21635C21.9877 6.31774 21.9267 6.40985 21.8494 6.48718C21.7721 6.56451 21.6799 6.62549 21.5786 6.66648C21.4772 6.70746 21.3686 6.72762 21.2592 6.72575H17.8724C17.7872 6.72781 17.7024 6.71254 17.6233 6.68089C17.5441 6.64923 17.4723 6.60184 17.412 6.54158C17.3495 6.47676 17.301 6.39988 17.2693 6.31564C17.2377 6.23141 17.2235 6.14159 17.2278 6.0517C17.2257 5.96649 17.241 5.88175 17.2727 5.80261C17.3043 5.72347 17.3517 5.65157 17.412 5.59128C17.4767 5.52898 17.5534 5.48051 17.6375 5.44885C17.7215 5.41719 17.8112 5.40299 17.9009 5.40712H20.2122C19.0811 4.4192 17.7884 3.63331 16.3908 3.08386C14.9994 2.53418 13.5165 2.25297 12.0205 2.25511C10.5327 2.25149 9.05797 2.5328 7.67599 3.08386C6.29016 3.634 5.00767 4.4152 3.88308 5.39423H6.19437C6.28241 5.38922 6.37049 5.40306 6.45275 5.43482C6.535 5.46658 6.60954 5.51553 6.67136 5.57839C6.78773 5.7031 6.85083 5.86829 6.84724 6.03881C6.85515 6.21885 6.79198 6.39479 6.67136 6.52869C6.60954 6.59156 6.535 6.6405 6.45275 6.67226C6.37049 6.70402 6.28241 6.71786 6.19437 6.71286L2.82873 6.72575ZM10.5886 23.1C10.3122 23.1019 10.0385 23.0464 9.7847 22.937C9.54103 22.8336 9.31941 22.6845 9.13183 22.4978L5.23947 18.6045C4.94045 18.2873 4.76643 17.8725 4.74959 17.4369C4.70019 16.9744 4.81103 16.5089 5.06359 16.1183C5.30247 15.7724 5.63912 15.5056 6.03047 15.3521C6.35948 15.2121 6.72438 15.1798 7.07285 15.26L9.03146 15.7122V7.52964C9.028 7.19856 9.09071 6.87013 9.2159 6.56361C9.3411 6.2571 9.52625 5.97867 9.7605 5.74468C9.99475 5.51069 10.2734 5.32584 10.58 5.20099C10.8867 5.07613 11.2152 5.01379 11.5463 5.01761C11.877 5.01428 12.2051 5.07699 12.5114 5.20207C12.8176 5.32714 13.0958 5.51207 13.3296 5.74601C13.5635 5.97995 13.7483 6.2582 13.8733 6.56448C13.9982 6.87075 14.0608 7.19887 14.0574 7.52964V11.8493H14.7112C14.7892 11.848 14.8665 11.8651 14.9368 11.899C15.0037 11.9321 15.0789 11.9656 15.1624 11.9994L18.8789 13.8079C19.2749 13.9862 19.5919 14.3032 19.7702 14.6992C19.9608 15.093 20.018 15.5381 19.9332 15.9672L19.0289 21.4416C18.9546 21.9151 18.7035 22.3429 18.3264 22.6387C17.9587 22.9407 17.4964 23.1037 17.0206 23.0991L10.5886 23.1ZM10.4634 21.4176H17.2941L18.3485 15.4405L13.8787 13.2305H12.375V7.52964C12.375 7.30984 12.2877 7.09904 12.1323 6.94362C11.9768 6.7882 11.7661 6.70089 11.5463 6.70089C11.3265 6.70089 11.1157 6.7882 10.9602 6.94362C10.8048 7.09904 10.7175 7.30984 10.7175 7.52964V17.7509L6.69899 16.8973L6.32237 17.2988L10.4634 21.4176Z" fill="white"/>
</svg>
