<svg width="16" height="16" viewBox="0 0 16 16" fill="none" xmlns="http://www.w3.org/2000/svg">
<path d="M3.56352 5.55729C3.71698 5.40801 3.9123 5.33337 4.14947 5.33337C4.38664 5.33337 4.58195 5.40801 4.73542 5.55729L7.99999 8.73286L11.2646 5.55729C11.418 5.40801 11.6133 5.33337 11.8505 5.33337C12.0877 5.33337 12.283 5.40801 12.4365 5.55729C12.5899 5.70657 12.6667 5.89656 12.6667 6.12726C12.6667 6.35797 12.5899 6.54796 12.4365 6.69724L8.58594 10.4428C8.50223 10.5242 8.41155 10.582 8.31389 10.6162C8.21623 10.6504 8.1116 10.6672 7.99999 10.6667C7.88838 10.6667 7.78375 10.6496 7.68609 10.6154C7.58843 10.5812 7.49775 10.5237 7.41404 10.4428L3.56352 6.69724C3.41006 6.54796 3.33332 6.35797 3.33332 6.12726C3.33332 5.89656 3.41006 5.70657 3.56352 5.55729Z" fill="white"/>
</svg>
