<svg width="24" height="24" viewBox="0 0 24 24" fill="none" xmlns="http://www.w3.org/2000/svg">
<path d="M14 21C13.7167 21 13.479 20.904 13.287 20.712C13.095 20.52 12.9993 20.2827 13 20C13 19.7167 13.096 19.479 13.288 19.287C13.48 19.095 13.7173 18.9993 14 19C14.7833 19 15.479 18.8457 16.087 18.537C16.695 18.2283 16.9993 17.8827 17 17.5C17 17.2667 16.8917 17.05 16.675 16.85C16.4583 16.65 16.1583 16.4667 15.775 16.3L17.25 14.825C17.7833 15.1417 18.2083 15.5167 18.525 15.95C18.8417 16.3833 19 16.9 19 17.5C19 18.6 18.475 19.4583 17.425 20.075C16.375 20.6917 15.2333 21 14 21ZM4.575 13.35C4.09167 13.0667 3.70833 12.7377 3.425 12.363C3.14167 11.9883 3 11.534 3 11C3 10.3 3.25833 9.71233 3.775 9.237C4.29167 8.76167 5.21667 8.23267 6.55 7.65C7.6 7.16667 8.271 6.82933 8.563 6.638C8.855 6.44667 9.00067 6.234 9 6C9 5.73333 8.83733 5.5 8.512 5.3C8.18667 5.1 7.68267 5 7 5C6.58333 5 6.23333 5.05 5.95 5.15C5.66667 5.25 5.40833 5.41667 5.175 5.65C4.99167 5.83333 4.76667 5.94167 4.5 5.975C4.23333 6.00833 3.99167 5.93333 3.775 5.75C3.55833 5.58333 3.43333 5.36667 3.4 5.1C3.36667 4.83333 3.44167 4.59167 3.625 4.375C3.94167 3.99167 4.396 3.66667 4.988 3.4C5.58 3.13333 6.25067 3 7 3C8.2 3 9.16667 3.271 9.9 3.813C10.6333 4.355 11 5.084 11 6C11 6.65 10.7583 7.23333 10.275 7.75C9.79167 8.26667 8.81667 8.84167 7.35 9.475C6.38333 9.89167 5.75 10.2 5.45 10.4C5.15 10.6 5 10.8 5 11C5 11.15 5.09567 11.296 5.287 11.438C5.47833 11.58 5.741 11.7173 6.075 11.85L4.575 13.35ZM18.85 10.4L14.6 6.15L15.65 5.1C16.05 4.7 16.5293 4.5 17.088 4.5C17.6467 4.5 18.1173 4.7 18.5 5.1L19.9 6.5C20.3 6.88333 20.5 7.35433 20.5 7.913C20.5 8.47167 20.3 8.95067 19.9 9.35L18.85 10.4ZM6 19H7.4L14.6 11.8L13.2 10.4L6 17.6V19ZM4 21V16.75L13.2 7.55L17.45 11.8L8.25 21H4Z" fill="white"/>
</svg>
