<svg width="24" height="24" viewBox="0 0 24 24" fill="none" xmlns="http://www.w3.org/2000/svg">
<path d="M8.85 17.825L12 15.925L15.15 17.85L14.325 14.25L17.1 11.85L13.45 11.525L12 8.12501L10.55 11.5L6.9 11.825L9.675 14.25L8.85 17.825ZM12 18.275L7.85 20.775C7.66667 20.8917 7.475 20.9417 7.275 20.925C7.075 20.9083 6.9 20.8417 6.75 20.725C6.6 20.6083 6.48333 20.4623 6.4 20.287C6.31667 20.1117 6.3 19.916 6.35 19.7L7.45 14.975L3.775 11.8C3.60833 11.65 3.50433 11.479 3.463 11.287C3.42167 11.095 3.434 10.9077 3.5 10.725C3.56667 10.5417 3.66667 10.3917 3.8 10.275C3.93333 10.1583 4.11667 10.0833 4.35 10.05L9.2 9.62501L11.075 5.17501C11.1583 4.97501 11.2877 4.82501 11.463 4.72501C11.6383 4.62501 11.8173 4.57501 12 4.57501C12.1833 4.57501 12.3623 4.62501 12.537 4.72501C12.7117 4.82501 12.841 4.97501 12.925 5.17501L14.8 9.62501L19.65 10.05C19.8833 10.0833 20.0667 10.1583 20.2 10.275C20.3333 10.3917 20.4333 10.5417 20.5 10.725C20.5667 10.9083 20.5793 11.096 20.538 11.288C20.4967 11.48 20.3923 11.6507 20.225 11.8L16.55 14.975L17.65 19.7C17.7 19.9167 17.6833 20.1127 17.6 20.288C17.5167 20.4633 17.4 20.609 17.25 20.725C17.1 20.8417 16.925 20.9083 16.725 20.925C16.525 20.9417 16.3333 20.8917 16.15 20.775L12 18.275Z" fill="white"/>
</svg>
