<svg width="24" height="24" viewBox="0 0 24 24" fill="none" xmlns="http://www.w3.org/2000/svg">
<g opacity="0.7">
<path d="M8.33588 18.6547C8.11196 18.4245 8 18.1315 8 17.7758C8 17.42 8.11196 17.1271 8.33588 16.8969L13.0992 12L8.33588 7.10314C8.11196 6.87294 8 6.57997 8 6.22422C8 5.86846 8.11196 5.57549 8.33588 5.34529C8.55979 5.1151 8.84478 5 9.19084 5C9.53689 5 9.82188 5.1151 10.0458 5.34529L15.6641 11.1211C15.7862 11.2466 15.873 11.3827 15.9243 11.5291C15.9756 11.6756 16.0008 11.8326 16 12C16 12.1674 15.9743 12.3244 15.923 12.4709C15.8717 12.6173 15.7854 12.7534 15.6641 12.8789L10.0458 18.6547C9.82188 18.8849 9.53689 19 9.19084 19C8.84478 19 8.55979 18.8849 8.33588 18.6547Z" fill="white"/>
</g>
</svg>
