<svg width="24" height="24" viewBox="0 0 24 24" fill="none" xmlns="http://www.w3.org/2000/svg">
<path d="M13.9542 18.6547L8.33588 12.8789C8.21374 12.7534 8.12743 12.6173 8.07695 12.4709C8.02646 12.3244 8.00081 12.1674 8 12C8 11.8326 8.02565 11.6756 8.07695 11.5291C8.12824 11.3827 8.21455 11.2466 8.33588 11.1211L13.9542 5.34529C14.1781 5.1151 14.4631 5 14.8092 5C15.1552 5 15.4402 5.1151 15.6641 5.34529C15.888 5.57549 16 5.86846 16 6.22422C16 6.57997 15.888 6.87294 15.6641 7.10314L10.9008 12L15.6641 16.8969C15.888 17.1271 16 17.42 16 17.7758C16 18.1315 15.888 18.4245 15.6641 18.6547C15.4402 18.8849 15.1552 19 14.8092 19C14.4631 19 14.1781 18.8849 13.9542 18.6547Z" fill="white"/>
</svg>
