<svg width="40" height="40" viewBox="0 0 40 40" fill="none" xmlns="http://www.w3.org/2000/svg">
<path d="M28.2262 13.4395L27.3462 11.4585L25.3912 10.5665C25.2688 10.5092 25.1652 10.4182 25.0927 10.3041C25.0201 10.1901 24.9816 10.0577 24.9816 9.9225C24.9816 9.78732 25.0201 9.65493 25.0927 9.54087C25.1652 9.42681 25.2688 9.33579 25.3912 9.2785L27.3462 8.3875L28.2262 6.4065C28.2823 6.28514 28.3719 6.18236 28.4846 6.11032C28.5972 6.03828 28.7281 6 28.8617 6C28.9954 6 29.1263 6.03828 29.2389 6.11032C29.3516 6.18236 29.4412 6.28514 29.4972 6.4065L30.3772 8.3875L32.3322 9.2785C32.4547 9.33579 32.5583 9.42681 32.6308 9.54087C32.7034 9.65493 32.7419 9.78732 32.7419 9.9225C32.7419 10.0577 32.7034 10.1901 32.6308 10.3041C32.5583 10.4182 32.4547 10.5092 32.3322 10.5665L30.3732 11.4585L29.4932 13.4395C29.4367 13.5598 29.3471 13.6614 29.2349 13.7327C29.1228 13.8039 28.9926 13.8417 28.8597 13.8417C28.7269 13.8417 28.5967 13.8039 28.4846 13.7327C28.3724 13.6614 28.2828 13.5598 28.2262 13.4395ZM32.7512 20.1315L32.3042 19.1125C32.2482 18.9911 32.1586 18.8884 32.0459 18.8163C31.9333 18.7443 31.8024 18.706 31.6687 18.706C31.5351 18.706 31.4042 18.7443 31.2916 18.8163C31.1789 18.8884 31.0893 18.9911 31.0332 19.1125L30.5862 20.1315L29.5662 20.5845C29.4438 20.6418 29.3402 20.7328 29.2677 20.8469C29.1951 20.9609 29.1566 21.0933 29.1566 21.2285C29.1566 21.3637 29.1951 21.4961 29.2677 21.6101C29.3402 21.7242 29.4438 21.8152 29.5662 21.8725L30.5722 22.3255L31.0192 23.3585C31.0753 23.4799 31.1649 23.5827 31.2776 23.6547C31.3902 23.7267 31.5211 23.765 31.6547 23.765C31.7884 23.765 31.9193 23.7267 32.0319 23.6547C32.1446 23.5827 32.2342 23.4799 32.2902 23.3585L32.7372 22.3395L33.7572 21.8865C33.8797 21.8292 33.9833 21.7382 34.0558 21.6241C34.1284 21.5101 34.1669 21.3777 34.1669 21.2425C34.1669 21.1073 34.1284 20.9749 34.0558 20.8609C33.9833 20.7468 33.8797 20.6558 33.7572 20.5985L32.7512 20.1315ZM25.7122 22.4665L27.4302 23.7825C27.7012 23.9946 27.8869 24.297 27.9535 24.6345C28.0201 24.9721 27.9633 25.3224 27.7932 25.6215L25.5302 29.5835C25.3654 29.8821 25.0951 30.1084 24.7722 30.2183C24.4493 30.3282 24.097 30.3136 23.7842 30.1775L21.7842 29.3285C21.4962 29.5197 21.1978 29.6946 20.8902 29.8525L20.6252 32.0315C20.5858 32.3718 20.4236 32.6861 20.169 32.9153C19.9143 33.1445 19.5848 33.2729 19.2422 33.2765H14.7342C14.3917 33.2729 14.0622 33.1445 13.8075 32.9153C13.5529 32.6861 13.3907 32.3718 13.3512 32.0315L13.0862 29.8525C12.7775 29.6969 12.4789 29.5218 12.1922 29.3285L10.1922 30.1775C9.8795 30.3136 9.52723 30.3282 9.20433 30.2183C8.88143 30.1084 8.61111 29.8821 8.44625 29.5835L6.18625 25.6215C6.01706 25.3222 5.96066 24.9721 6.02724 24.6348C6.09383 24.2975 6.27901 23.9951 6.54925 23.7825L8.26725 22.4665V21.9425C8.26725 21.7725 8.26725 21.5885 8.28125 21.4185L6.56325 20.1035C6.29282 19.8915 6.10745 19.5895 6.04083 19.2524C5.97422 18.9153 6.03079 18.5654 6.20025 18.2665L8.46325 14.3025C8.62811 14.0039 8.89843 13.7776 9.22133 13.6677C9.54423 13.5579 9.8965 13.5724 10.2092 13.7085L12.2092 14.5575C12.4973 14.3663 12.7957 14.1914 13.1032 14.0335L13.3682 11.8545C13.4056 11.5171 13.5657 11.2051 13.8182 10.9781C14.0706 10.7511 14.3977 10.6249 14.7372 10.6235H19.2482C19.59 10.6277 19.9185 10.7562 20.1725 10.985C20.4264 11.2137 20.5884 11.5271 20.6282 11.8665L20.8932 14.0455C21.202 14.2011 21.5006 14.3762 21.7872 14.5695L23.7872 13.7205C24.1 13.5844 24.4523 13.5699 24.7752 13.6797C25.0981 13.7896 25.3684 14.0159 25.5332 14.3145L27.7962 18.2765C27.9654 18.5758 28.0218 18.9259 27.9553 19.2632C27.8887 19.6006 27.7035 19.9029 27.4332 20.1155L25.7152 21.4315C25.7292 21.6015 25.7292 21.7715 25.7292 21.9555C25.7292 22.1395 25.7262 22.2975 25.7122 22.4665ZM21.1872 21.9425C21.1764 21.1162 20.9215 20.3116 20.4545 19.6298C19.9876 18.9481 19.3295 18.4196 18.5629 18.1109C17.7964 17.8022 16.9558 17.727 16.1466 17.8948C15.3375 18.0627 14.5961 18.466 14.0156 19.0541C13.4351 19.6422 13.0415 20.3889 12.8842 21.2001C12.7269 22.0113 12.813 22.851 13.1317 23.6134C13.4504 24.3758 13.9874 25.027 14.6752 25.485C15.363 25.943 16.1709 26.1874 16.9972 26.1875C17.5512 26.1846 18.0992 26.0725 18.6098 25.8575C19.1203 25.6426 19.5835 25.329 19.9727 24.9348C20.3619 24.5405 20.6695 24.0734 20.878 23.5601C21.0864 23.0468 21.1915 22.4965 21.1872 21.9425Z" fill="white"/>
</svg>
