<svg width="40" height="40" viewBox="0 0 40 40" fill="none" xmlns="http://www.w3.org/2000/svg">
<g clip-path="url(#clip0_895_1142)">
<path d="M25.2821 20.334C25.1506 20.5283 25.0728 20.7539 25.0565 20.988C25.0401 21.222 25.0859 21.4563 25.1891 21.667C25.5198 22.4392 25.7526 23.2499 25.8821 24.08C26.2253 26.2269 25.9043 28.4275 24.9621 30.387C24.8477 30.602 24.6766 30.7816 24.4673 30.9063C24.258 31.0309 24.0186 31.0958 23.7751 31.094H6.90905C6.66415 31.0946 6.42382 31.0277 6.21442 30.9007C6.00503 30.7737 5.83467 30.5914 5.72205 30.374C4.86848 28.6425 4.50078 26.7118 4.65815 24.7878C4.81552 22.8638 5.49206 21.0186 6.61565 19.4488C7.73924 17.8791 9.26775 16.6436 11.0382 15.8742C12.8087 15.1049 14.7548 14.8303 16.6691 15.08C17.6375 15.1939 18.5847 15.4455 19.4821 15.827C19.6429 15.9042 19.8175 15.9485 19.9957 15.9573C20.1739 15.9661 20.3521 15.9393 20.5197 15.8783C20.6874 15.8173 20.8412 15.7235 20.9721 15.6023C21.1031 15.4811 21.2085 15.335 21.2822 15.1726C21.3559 15.0101 21.3964 14.8345 21.4014 14.6562C21.4064 14.4779 21.3757 14.3003 21.3111 14.134C21.2465 13.9677 21.1494 13.816 21.0254 13.6877C20.9014 13.5594 20.7531 13.4572 20.5891 13.387C18.0132 12.2821 15.1548 12.017 12.4197 12.6294C9.68466 13.2418 7.21216 14.7006 5.35349 16.7984C3.49482 18.8963 2.34451 21.5265 2.066 24.3154C1.78749 27.1043 2.39494 29.91 3.80205 32.334C4.03486 32.737 4.36909 33.0721 4.77153 33.306C5.17397 33.5398 5.63061 33.6643 6.09605 33.667H24.5621C25.0319 33.6688 25.4939 33.5465 25.9013 33.3125C26.3087 33.0784 26.647 32.7408 26.8821 32.334C27.9118 30.5493 28.5139 28.5502 28.6411 26.4936C28.7683 24.437 28.4171 22.379 27.6151 20.481C27.5136 20.2646 27.3558 20.0795 27.1582 19.9451C26.9606 19.8106 26.7306 19.7318 26.4921 19.7168C26.2536 19.7017 26.0154 19.7511 25.8025 19.8597C25.5897 19.9683 25.4099 20.1321 25.2821 20.334Z" fill="white"/>
<path d="M13.4558 23.787C12.9621 24.2887 12.6866 24.9652 12.6895 25.6691C12.6923 26.3729 12.9732 27.0472 13.4709 27.5449C13.9686 28.0426 14.6429 28.3235 15.3467 28.3263C16.0506 28.3291 16.7271 28.0537 17.2288 27.56L24.7758 16.24L13.4558 23.787Z" fill="white"/>
<path d="M32.2549 12.252L35.0029 11L32.2549 9.746L31.0029 7L29.7489 9.746L27.0029 11L29.7489 12.253L31.0029 15L32.2549 12.252ZM35.8409 16.824L37.6669 17.664L35.8409 18.504L35.0029 20.33L34.1629 18.504L32.3369 17.664L34.1629 16.824L35.0029 15L35.8409 16.824Z" fill="white"/>
</g>
<defs>
<clipPath id="clip0_895_1142">
<rect width="40" height="40" fill="white"/>
</clipPath>
</defs>
</svg>
