<svg width="40" height="40" viewBox="0 0 40 40" fill="none" xmlns="http://www.w3.org/2000/svg">
<path d="M14.413 16.253L11.667 15L14.413 13.747L15.667 11L16.92 13.747L19.667 15L16.92 16.253L15.667 19L14.413 16.253ZM15.666 32.333L16.919 29.586L19.666 28.333L16.92 27.08L15.667 24.333L14.413 27.08L11.667 28.333L14.414 29.586L15.666 32.333ZM10.827 20.827L9 21.667L10.827 22.507L11.667 24.334L12.507 22.507L14.334 21.667L12.507 20.827L11.667 19L10.827 20.827ZM30.334 31.547C30.3344 31.7825 30.2724 32.0139 30.1542 32.2176C30.0361 32.4213 29.866 32.59 29.6614 32.7066C29.4568 32.8232 29.225 32.8834 28.9895 32.8812C28.7541 32.879 28.5234 32.8144 28.321 32.694C26.1381 31.4402 24.3167 29.6429 23.0339 27.4769C21.7511 25.3109 21.0504 22.8499 21 20.333C21.0448 16.7792 22.3435 13.3555 24.667 10.666L22.133 8.13304C22.0411 8.03897 21.9791 7.91985 21.9548 7.79064C21.9304 7.66143 21.9448 7.52791 21.996 7.40684C22.0473 7.28577 22.1333 7.18257 22.243 7.11019C22.3528 7.03781 22.4815 6.99949 22.613 7.00004H29.666C29.7539 6.9991 29.841 7.01571 29.9224 7.0489C30.0037 7.08209 30.0776 7.13119 30.1397 7.19331C30.2019 7.25543 30.2509 7.32934 30.2841 7.41068C30.3173 7.49203 30.3339 7.57919 30.333 7.66704V14.72C30.3343 14.8519 30.2962 14.9812 30.2234 15.0911C30.1506 15.2011 30.0465 15.2867 29.9245 15.337C29.8026 15.3872 29.6684 15.3998 29.5393 15.3731C29.4101 15.3464 29.292 15.2816 29.2 15.187L26.573 12.56C24.7459 14.7437 23.7202 17.4863 23.666 20.333C23.7139 22.3875 24.293 24.3946 25.3469 26.1588C26.4008 27.9229 27.8936 29.3841 29.68 30.4C29.878 30.5193 30.042 30.6874 30.1564 30.8882C30.2707 31.0891 30.3325 31.3159 30.334 31.547Z" fill="white"/>
</svg>
