<svg width="23" height="16" viewBox="0 0 23 16" fill="none" xmlns="http://www.w3.org/2000/svg">
<path d="M9.19495 10.9459L15.337 7.77191L9.19495 4.56191V10.9459ZM11.544 0.00390625C12.966 0.00390625 14.339 0.0229063 15.663 0.0609063C16.987 0.0989062 17.958 0.13924 18.576 0.181906L19.502 0.234906L19.715 0.253906C19.819 0.261823 19.9225 0.27551 20.025 0.294906H20.008C20.0673 0.307573 20.1673 0.326573 20.308 0.351906C20.4361 0.373196 20.5615 0.408405 20.682 0.456906H20.67C20.7719 0.498906 20.8906 0.553906 21.026 0.621906C21.167 0.692606 21.3009 0.776657 21.426 0.872906H21.421C21.5519 0.974424 21.6743 1.08646 21.787 1.20791C21.8556 1.2799 21.9197 1.35604 21.979 1.43591V1.44291C22.1211 1.66877 22.241 1.90789 22.337 2.15691L22.347 2.18591C22.5162 2.587 22.6286 3.00974 22.681 3.44191V3.46491C22.7476 4.00624 22.801 4.58391 22.841 5.19791C22.881 5.81191 22.9043 6.29191 22.911 6.63791V8.86391C22.911 8.91591 22.911 8.97791 22.911 9.03891C22.9111 10.257 22.8293 11.4738 22.666 12.6809L22.681 12.5419C22.6283 12.988 22.5167 13.4252 22.349 13.8419L22.369 13.8039C22.2685 14.0851 22.1295 14.3509 21.956 14.5939L21.963 14.5839L21.786 14.7969C21.6748 14.9168 21.554 15.0275 21.425 15.1279L21.418 15.1329C21.2998 15.2247 21.172 15.3035 21.037 15.3679L21.024 15.3729C20.8906 15.4396 20.772 15.4929 20.668 15.5329C20.5548 15.5786 20.4372 15.6121 20.317 15.6329H20.306L20.006 15.6899C19.9393 15.7026 19.842 15.7152 19.714 15.7279L19.505 15.7469C17.3803 15.9182 14.727 16.0039 11.545 16.0039C9.79295 15.9872 8.27162 15.9596 6.98095 15.9209C5.69028 15.8822 4.84195 15.8489 4.43595 15.8209L3.81395 15.7679L3.35695 15.7149C3.10967 15.6851 2.86451 15.6396 2.62295 15.5789L2.66395 15.5879C2.43316 15.5165 2.20952 15.4238 1.99595 15.3109L2.01695 15.3209C1.74988 15.1905 1.50758 15.0145 1.30095 14.8009C1.23234 14.7289 1.16822 14.6528 1.10895 14.5729V14.5659C0.966814 14.34 0.846919 14.1009 0.750952 13.8519L0.740952 13.8229C0.571732 13.4218 0.459315 12.9991 0.406952 12.5669V12.5439C0.340285 12.0026 0.286952 11.4249 0.246952 10.8109C0.206952 10.1969 0.180952 9.71691 0.168952 9.37091V7.13691C0.168952 7.08491 0.168952 7.02291 0.168952 6.96191C0.168119 5.74383 0.249303 4.52708 0.411952 3.31991L0.396952 3.45891C0.449573 3.01278 0.561216 2.57563 0.728952 2.15891L0.716952 2.19291C0.817192 1.91214 0.955843 1.64662 1.12895 1.40391L1.12195 1.41391L1.29995 1.20391C1.41105 1.0833 1.53179 0.971931 1.66095 0.870906L1.66895 0.864906C1.7875 0.772936 1.91438 0.692252 2.04795 0.623906L2.06195 0.616906C2.19529 0.55024 2.31395 0.49524 2.41795 0.451906C2.53107 0.406219 2.64874 0.372697 2.76895 0.351906H2.77995C2.91929 0.326573 3.01929 0.307573 3.07995 0.294906C3.17281 0.276642 3.26663 0.263622 3.36095 0.255906H3.36895L3.58395 0.235906C5.70728 0.0812396 8.36129 0.00390625 11.546 0.00390625H11.544Z" fill="white"/>
</svg>
